STARTFONT 2.1
FONT -xos4-Gambas-Bold-R-Normal--13-120-75-75-P-70-ISO10646-1
SIZE 12 75 75
FONTBOUNDINGBOX 7 14 0 -2
COMMENT "Generated by fontforge, http://fontforge.sourceforge.net"
COMMENT "Copyright (C) 2013 Benoit Minisini"
STARTPROPERTIES 33
FOUNDRY "xos4"
FAMILY_NAME "Gambas"
WEIGHT_NAME "Bold"
SLANT "R"
SETWIDTH_NAME "Normal"
ADD_STYLE_NAME ""
PIXEL_SIZE 13
POINT_SIZE 120
RESOLUTION_X 75
RESOLUTION_Y 75
SPACING "P"
AVERAGE_WIDTH 70
CHARSET_REGISTRY "ISO10646"
CHARSET_ENCODING "1"
FONTNAME_REGISTRY ""
CHARSET_COLLECTIONS "ASCII ISOLatin1Encoding ISO8859-2 ISO8859-5 ISO8859-7 ISO8859-9 ISO8859-6 ISO8859-4 ISO10646-1"
FONT_NAME "GambasBold"
FACE_NAME "Gambas Bold"
FONT_VERSION "001.000"
FONT_ASCENT 11
FONT_DESCENT 2
UNDERLINE_POSITION -1
UNDERLINE_THICKNESS 1
X_HEIGHT 6
CAP_HEIGHT 8
RAW_ASCENT 846
RAW_DESCENT 154
NORM_SPACE 7
RELATIVE_WEIGHT 50
RELATIVE_SETWIDTH 50
FIGURE_WIDTH 7
AVG_LOWERCASE_WIDTH 70
AVG_UPPERCASE_WIDTH 70
ENDPROPERTIES
CHARS 2623
STARTCHAR uni0000
ENCODING 0
SWIDTH 500 0
DWIDTH 7 0
BBX 5 9 0 0
BITMAP
D8
88
00
88
88
00
00
88
D8
ENDCHAR
STARTCHAR space
ENCODING 32
SWIDTH 500 0
DWIDTH 7 0
BBX 1 1 6 -2
BITMAP
00
ENDCHAR
STARTCHAR exclam
ENCODING 33
SWIDTH 500 0
DWIDTH 7 0
BBX 2 9 2 0
BITMAP
C0
C0
C0
C0
C0
C0
00
C0
C0
ENDCHAR
STARTCHAR quotedbl
ENCODING 34
SWIDTH 500 0
DWIDTH 7 0
BBX 5 3 1 7
BITMAP
D8
D8
D8
ENDCHAR
STARTCHAR numbersign
ENCODING 35
SWIDTH 500 0
DWIDTH 7 0
BBX 5 8 1 1
BITMAP
50
F8
F8
50
50
F8
F8
50
ENDCHAR
STARTCHAR dollar
ENCODING 36
SWIDTH 500 0
DWIDTH 7 0
BBX 6 11 0 -1
BITMAP
30
30
7C
C0
C0
78
0C
0C
F8
30
30
ENDCHAR
STARTCHAR percent
ENCODING 37
SWIDTH 500 0
DWIDTH 7 0
BBX 6 11 0 -1
BITMAP
60
D0
D4
6C
18
30
60
D8
B4
34
18
ENDCHAR
STARTCHAR ampersand
ENCODING 38
SWIDTH 500 0
DWIDTH 7 0
BBX 6 9 0 0
BITMAP
70
D8
D8
70
70
FC
D8
D8
7C
ENDCHAR
STARTCHAR quotesingle
ENCODING 39
SWIDTH 500 0
DWIDTH 7 0
BBX 2 4 2 7
BITMAP
C0
C0
C0
C0
ENDCHAR
STARTCHAR parenleft
ENCODING 40
SWIDTH 500 0
DWIDTH 7 0
BBX 4 11 1 -1
BITMAP
30
60
C0
C0
C0
C0
C0
C0
C0
60
30
ENDCHAR
STARTCHAR parenright
ENCODING 41
SWIDTH 500 0
DWIDTH 7 0
BBX 4 11 1 -1
BITMAP
C0
60
30
30
30
30
30
30
30
60
C0
ENDCHAR
STARTCHAR asterisk
ENCODING 42
SWIDTH 500 0
DWIDTH 7 0
BBX 5 5 1 2
BITMAP
D8
70
F8
70
D8
ENDCHAR
STARTCHAR plus
ENCODING 43
SWIDTH 500 0
DWIDTH 7 0
BBX 6 5 0 2
BITMAP
30
30
FC
30
30
ENDCHAR
STARTCHAR comma
ENCODING 44
SWIDTH 500 0
DWIDTH 7 0
BBX 3 4 1 -2
BITMAP
60
60
60
C0
ENDCHAR
STARTCHAR hyphen
ENCODING 45
SWIDTH 500 0
DWIDTH 7 0
BBX 6 1 0 4
BITMAP
FC
ENDCHAR
STARTCHAR period
ENCODING 46
SWIDTH 500 0
DWIDTH 7 0
BBX 2 2 2 0
BITMAP
C0
C0
ENDCHAR
STARTCHAR slash
ENCODING 47
SWIDTH 500 0
DWIDTH 7 0
BBX 6 10 0 0
BITMAP
0C
0C
18
18
30
30
60
60
C0
C0
ENDCHAR
STARTCHAR zero
ENCODING 48
SWIDTH 500 0
DWIDTH 7 0
BBX 6 9 0 0
BITMAP
78
CC
CC
DC
FC
EC
CC
CC
78
ENDCHAR
STARTCHAR one
ENCODING 49
SWIDTH 500 0
DWIDTH 7 0
BBX 6 9 0 0
BITMAP
30
70
F0
30
30
30
30
30
FC
ENDCHAR
STARTCHAR two
ENCODING 50
SWIDTH 500 0
DWIDTH 7 0
BBX 6 9 0 0
BITMAP
78
CC
0C
0C
18
30
60
C0
FC
ENDCHAR
STARTCHAR three
ENCODING 51
SWIDTH 500 0
DWIDTH 7 0
BBX 6 9 0 0
BITMAP
78
CC
0C
0C
78
0C
0C
CC
78
ENDCHAR
STARTCHAR four
ENCODING 52
SWIDTH 500 0
DWIDTH 7 0
BBX 6 9 0 0
BITMAP
08
18
38
78
D8
FC
18
18
18
ENDCHAR
STARTCHAR five
ENCODING 53
SWIDTH 500 0
DWIDTH 7 0
BBX 6 9 0 0
BITMAP
FC
C0
C0
F8
0C
0C
0C
CC
78
ENDCHAR
STARTCHAR six
ENCODING 54
SWIDTH 500 0
DWIDTH 7 0
BBX 6 9 0 0
BITMAP
38
60
C0
C0
F8
CC
CC
CC
78
ENDCHAR
STARTCHAR seven
ENCODING 55
SWIDTH 500 0
DWIDTH 7 0
BBX 6 9 0 0
BITMAP
FC
0C
0C
18
18
30
30
60
60
ENDCHAR
STARTCHAR eight
ENCODING 56
SWIDTH 500 0
DWIDTH 7 0
BBX 6 9 0 0
BITMAP
78
CC
CC
CC
78
CC
CC
CC
78
ENDCHAR
STARTCHAR nine
ENCODING 57
SWIDTH 500 0
DWIDTH 7 0
BBX 6 9 0 0
BITMAP
78
CC
CC
CC
7C
0C
0C
18
70
ENDCHAR
STARTCHAR colon
ENCODING 58
SWIDTH 500 0
DWIDTH 7 0
BBX 2 6 2 0
BITMAP
C0
C0
00
00
C0
C0
ENDCHAR
STARTCHAR semicolon
ENCODING 59
SWIDTH 500 0
DWIDTH 7 0
BBX 3 8 1 -2
BITMAP
60
60
00
00
60
60
60
C0
ENDCHAR
STARTCHAR less
ENCODING 60
SWIDTH 500 0
DWIDTH 7 0
BBX 6 9 0 0
BITMAP
0C
18
30
60
C0
60
30
18
0C
ENDCHAR
STARTCHAR equal
ENCODING 61
SWIDTH 500 0
DWIDTH 7 0
BBX 6 4 0 2
BITMAP
FC
00
00
FC
ENDCHAR
STARTCHAR greater
ENCODING 62
SWIDTH 500 0
DWIDTH 7 0
BBX 6 9 0 0
BITMAP
C0
60
30
18
0C
18
30
60
C0
ENDCHAR
STARTCHAR question
ENCODING 63
SWIDTH 500 0
DWIDTH 7 0
BBX 5 9 1 0
BITMAP
F0
18
18
30
60
60
00
60
60
ENDCHAR
STARTCHAR at
ENCODING 64
SWIDTH 500 0
DWIDTH 7 0
BBX 6 9 0 0
BITMAP
38
6C
DC
EC
EC
EC
D8
60
38
ENDCHAR
STARTCHAR A
ENCODING 65
SWIDTH 500 0
DWIDTH 7 0
BBX 6 9 0 0
BITMAP
78
CC
CC
CC
FC
CC
CC
CC
CC
ENDCHAR
STARTCHAR B
ENCODING 66
SWIDTH 500 0
DWIDTH 7 0
BBX 6 9 0 0
BITMAP
F8
CC
CC
CC
F8
CC
CC
CC
F8
ENDCHAR
STARTCHAR C
ENCODING 67
SWIDTH 500 0
DWIDTH 7 0
BBX 6 9 0 0
BITMAP
7C
C0
C0
C0
C0
C0
C0
C0
7C
ENDCHAR
STARTCHAR D
ENCODING 68
SWIDTH 500 0
DWIDTH 7 0
BBX 6 9 0 0
BITMAP
F0
D8
CC
CC
CC
CC
CC
D8
F0
ENDCHAR
STARTCHAR E
ENCODING 69
SWIDTH 500 0
DWIDTH 7 0
BBX 6 9 0 0
BITMAP
FC
C0
C0
C0
F8
C0
C0
C0
FC
ENDCHAR
STARTCHAR F
ENCODING 70
SWIDTH 500 0
DWIDTH 7 0
BBX 6 9 0 0
BITMAP
FC
C0
C0
C0
F0
C0
C0
C0
C0
ENDCHAR
STARTCHAR G
ENCODING 71
SWIDTH 500 0
DWIDTH 7 0
BBX 6 9 0 0
BITMAP
7C
C0
C0
C0
DC
CC
CC
CC
78
ENDCHAR
STARTCHAR H
ENCODING 72
SWIDTH 500 0
DWIDTH 7 0
BBX 6 9 0 0
BITMAP
CC
CC
CC
CC
FC
CC
CC
CC
CC
ENDCHAR
STARTCHAR I
ENCODING 73
SWIDTH 500 0
DWIDTH 7 0
BBX 6 9 0 0
BITMAP
FC
30
30
30
30
30
30
30
FC
ENDCHAR
STARTCHAR J
ENCODING 74
SWIDTH 500 0
DWIDTH 7 0
BBX 5 9 1 0
BITMAP
78
30
30
30
30
30
30
30
E0
ENDCHAR
STARTCHAR K
ENCODING 75
SWIDTH 500 0
DWIDTH 7 0
BBX 6 9 0 0
BITMAP
CC
D8
F0
E0
C0
E0
F0
D8
CC
ENDCHAR
STARTCHAR L
ENCODING 76
SWIDTH 500 0
DWIDTH 7 0
BBX 6 9 0 0
BITMAP
C0
C0
C0
C0
C0
C0
C0
C0
FC
ENDCHAR
STARTCHAR M
ENCODING 77
SWIDTH 500 0
DWIDTH 7 0
BBX 6 9 0 0
BITMAP
84
CC
FC
FC
FC
CC
CC
CC
CC
ENDCHAR
STARTCHAR N
ENCODING 78
SWIDTH 500 0
DWIDTH 7 0
BBX 6 9 0 0
BITMAP
8C
CC
EC
FC
FC
FC
DC
CC
C4
ENDCHAR
STARTCHAR O
ENCODING 79
SWIDTH 500 0
DWIDTH 7 0
BBX 6 9 0 0
BITMAP
78
CC
CC
CC
CC
CC
CC
CC
78
ENDCHAR
STARTCHAR P
ENCODING 80
SWIDTH 500 0
DWIDTH 7 0
BBX 6 9 0 0
BITMAP
F8
CC
CC
CC
F8
C0
C0
C0
C0
ENDCHAR
STARTCHAR Q
ENCODING 81
SWIDTH 500 0
DWIDTH 7 0
BBX 6 9 0 0
BITMAP
78
CC
CC
CC
CC
CC
D4
D8
6C
ENDCHAR
STARTCHAR R
ENCODING 82
SWIDTH 500 0
DWIDTH 7 0
BBX 6 9 0 0
BITMAP
F8
CC
CC
CC
F8
E0
F0
D8
CC
ENDCHAR
STARTCHAR S
ENCODING 83
SWIDTH 500 0
DWIDTH 7 0
BBX 6 9 0 0
BITMAP
7C
C0
C0
C0
78
0C
0C
0C
F8
ENDCHAR
STARTCHAR T
ENCODING 84
SWIDTH 500 0
DWIDTH 7 0
BBX 6 9 0 0
BITMAP
FC
30
30
30
30
30
30
30
30
ENDCHAR
STARTCHAR U
ENCODING 85
SWIDTH 500 0
DWIDTH 7 0
BBX 6 9 0 0
BITMAP
CC
CC
CC
CC
CC
CC
CC
CC
78
ENDCHAR
STARTCHAR V
ENCODING 86
SWIDTH 500 0
DWIDTH 7 0
BBX 6 9 0 0
BITMAP
CC
CC
CC
78
78
78
30
30
30
ENDCHAR
STARTCHAR W
ENCODING 87
SWIDTH 500 0
DWIDTH 7 0
BBX 6 9 0 0
BITMAP
CC
CC
CC
CC
FC
FC
FC
CC
84
ENDCHAR
STARTCHAR X
ENCODING 88
SWIDTH 500 0
DWIDTH 7 0
BBX 6 9 0 0
BITMAP
CC
CC
CC
78
30
78
CC
CC
CC
ENDCHAR
STARTCHAR Y
ENCODING 89
SWIDTH 500 0
DWIDTH 7 0
BBX 6 9 0 0
BITMAP
CC
CC
78
78
30
30
30
30
30
ENDCHAR
STARTCHAR Z
ENCODING 90
SWIDTH 500 0
DWIDTH 7 0
BBX 6 9 0 0
BITMAP
FC
0C
18
18
30
60
60
C0
FC
ENDCHAR
STARTCHAR bracketleft
ENCODING 91
SWIDTH 500 0
DWIDTH 7 0
BBX 4 11 1 -1
BITMAP
F0
C0
C0
C0
C0
C0
C0
C0
C0
C0
F0
ENDCHAR
STARTCHAR backslash
ENCODING 92
SWIDTH 500 0
DWIDTH 7 0
BBX 6 10 0 0
BITMAP
C0
C0
60
60
30
30
18
18
0C
0C
ENDCHAR
STARTCHAR bracketright
ENCODING 93
SWIDTH 500 0
DWIDTH 7 0
BBX 4 11 1 -1
BITMAP
F0
30
30
30
30
30
30
30
30
30
F0
ENDCHAR
STARTCHAR asciicircum
ENCODING 94
SWIDTH 500 0
DWIDTH 7 0
BBX 6 3 0 7
BITMAP
30
78
CC
ENDCHAR
STARTCHAR underscore
ENCODING 95
SWIDTH 500 0
DWIDTH 7 0
BBX 6 1 0 0
BITMAP
FC
ENDCHAR
STARTCHAR grave
ENCODING 96
SWIDTH 500 0
DWIDTH 7 0
BBX 3 4 2 7
BITMAP
C0
C0
C0
60
ENDCHAR
STARTCHAR a
ENCODING 97
SWIDTH 500 0
DWIDTH 7 0
BBX 6 7 0 0
BITMAP
78
0C
0C
7C
CC
CC
7C
ENDCHAR
STARTCHAR b
ENCODING 98
SWIDTH 500 0
DWIDTH 7 0
BBX 6 9 0 0
BITMAP
C0
C0
F8
CC
CC
CC
CC
CC
F8
ENDCHAR
STARTCHAR c
ENCODING 99
SWIDTH 500 0
DWIDTH 7 0
BBX 6 7 0 0
BITMAP
7C
C0
C0
C0
C0
C0
7C
ENDCHAR
STARTCHAR d
ENCODING 100
SWIDTH 500 0
DWIDTH 7 0
BBX 6 9 0 0
BITMAP
0C
0C
7C
CC
CC
CC
CC
CC
7C
ENDCHAR
STARTCHAR e
ENCODING 101
SWIDTH 500 0
DWIDTH 7 0
BBX 6 7 0 0
BITMAP
78
CC
CC
FC
C0
C0
7C
ENDCHAR
STARTCHAR f
ENCODING 102
SWIDTH 500 0
DWIDTH 7 0
BBX 5 9 1 0
BITMAP
78
C0
C0
F0
C0
C0
C0
C0
C0
ENDCHAR
STARTCHAR g
ENCODING 103
SWIDTH 500 0
DWIDTH 7 0
BBX 6 9 0 -2
BITMAP
7C
CC
CC
CC
CC
CC
7C
0C
78
ENDCHAR
STARTCHAR h
ENCODING 104
SWIDTH 500 0
DWIDTH 7 0
BBX 6 9 0 0
BITMAP
C0
C0
F8
CC
CC
CC
CC
CC
CC
ENDCHAR
STARTCHAR i
ENCODING 105
SWIDTH 500 0
DWIDTH 7 0
BBX 4 10 1 0
BITMAP
60
60
00
E0
60
60
60
60
60
F0
ENDCHAR
STARTCHAR j
ENCODING 106
SWIDTH 500 0
DWIDTH 7 0
BBX 5 12 0 -2
BITMAP
18
18
00
38
18
18
18
18
18
18
18
F0
ENDCHAR
STARTCHAR k
ENCODING 107
SWIDTH 500 0
DWIDTH 7 0
BBX 6 9 0 0
BITMAP
C0
C0
CC
D8
F0
E0
F0
D8
CC
ENDCHAR
STARTCHAR l
ENCODING 108
SWIDTH 500 0
DWIDTH 7 0
BBX 4 9 1 0
BITMAP
E0
60
60
60
60
60
60
60
30
ENDCHAR
STARTCHAR m
ENCODING 109
SWIDTH 500 0
DWIDTH 7 0
BBX 6 7 0 0
BITMAP
F8
FC
FC
FC
CC
CC
CC
ENDCHAR
STARTCHAR n
ENCODING 110
SWIDTH 500 0
DWIDTH 7 0
BBX 6 7 0 0
BITMAP
F8
CC
CC
CC
CC
CC
CC
ENDCHAR
STARTCHAR o
ENCODING 111
SWIDTH 500 0
DWIDTH 7 0
BBX 6 7 0 0
BITMAP
78
CC
CC
CC
CC
CC
78
ENDCHAR
STARTCHAR p
ENCODING 112
SWIDTH 500 0
DWIDTH 7 0
BBX 6 9 0 -2
BITMAP
F8
CC
CC
CC
CC
CC
F8
C0
C0
ENDCHAR
STARTCHAR q
ENCODING 113
SWIDTH 500 0
DWIDTH 7 0
BBX 6 9 0 -2
BITMAP
7C
CC
CC
CC
CC
CC
7C
0C
0C
ENDCHAR
STARTCHAR r
ENCODING 114
SWIDTH 500 0
DWIDTH 7 0
BBX 6 7 0 0
BITMAP
7C
C0
C0
C0
C0
C0
C0
ENDCHAR
STARTCHAR s
ENCODING 115
SWIDTH 500 0
DWIDTH 7 0
BBX 6 7 0 0
BITMAP
7C
C0
C0
78
0C
0C
F8
ENDCHAR
STARTCHAR t
ENCODING 116
SWIDTH 500 0
DWIDTH 7 0
BBX 5 9 1 0
BITMAP
C0
C0
F8
C0
C0
C0
C0
C0
78
ENDCHAR
STARTCHAR u
ENCODING 117
SWIDTH 500 0
DWIDTH 7 0
BBX 6 7 0 0
BITMAP
CC
CC
CC
CC
CC
CC
7C
ENDCHAR
STARTCHAR v
ENCODING 118
SWIDTH 500 0
DWIDTH 7 0
BBX 6 7 0 0
BITMAP
CC
CC
78
78
78
30
30
ENDCHAR
STARTCHAR w
ENCODING 119
SWIDTH 500 0
DWIDTH 7 0
BBX 6 7 0 0
BITMAP
CC
CC
CC
FC
FC
FC
78
ENDCHAR
STARTCHAR x
ENCODING 120
SWIDTH 500 0
DWIDTH 7 0
BBX 6 7 0 0
BITMAP
CC
CC
78
30
78
CC
CC
ENDCHAR
STARTCHAR y
ENCODING 121
SWIDTH 500 0
DWIDTH 7 0
BBX 6 9 0 -2
BITMAP
CC
CC
CC
CC
CC
CC
7C
0C
78
ENDCHAR
STARTCHAR z
ENCODING 122
SWIDTH 500 0
DWIDTH 7 0
BBX 6 7 0 0
BITMAP
FC
0C
18
30
60
C0
FC
ENDCHAR
STARTCHAR braceleft
ENCODING 123
SWIDTH 500 0
DWIDTH 7 0
BBX 5 11 0 -1
BITMAP
38
60
60
60
60
C0
60
60
60
60
38
ENDCHAR
STARTCHAR bar
ENCODING 124
SWIDTH 500 0
DWIDTH 7 0
BBX 2 11 2 -1
BITMAP
C0
C0
C0
C0
C0
C0
C0
C0
C0
C0
C0
ENDCHAR
STARTCHAR braceright
ENCODING 125
SWIDTH 500 0
DWIDTH 7 0
BBX 5 11 1 -1
BITMAP
E0
30
30
30
30
18
30
30
30
30
E0
ENDCHAR
STARTCHAR asciitilde
ENCODING 126
SWIDTH 500 0
DWIDTH 7 0
BBX 6 3 0 7
BITMAP
64
B4
98
ENDCHAR
STARTCHAR uni00A0
ENCODING 160
SWIDTH 500 0
DWIDTH 7 0
BBX 1 1 6 -2
BITMAP
00
ENDCHAR
STARTCHAR exclamdown
ENCODING 161
SWIDTH 500 0
DWIDTH 7 0
BBX 2 9 2 0
BITMAP
C0
C0
00
C0
C0
C0
C0
C0
C0
ENDCHAR
STARTCHAR cent
ENCODING 162
SWIDTH 500 0
DWIDTH 7 0
BBX 6 11 0 -1
BITMAP
30
30
7C
C0
C0
C0
C0
C0
7C
30
30
ENDCHAR
STARTCHAR sterling
ENCODING 163
SWIDTH 500 0
DWIDTH 7 0
BBX 6 9 0 0
BITMAP
3C
60
60
F8
60
60
60
60
FC
ENDCHAR
STARTCHAR currency
ENCODING 164
SWIDTH 500 0
DWIDTH 7 0
BBX 6 7 0 1
BITMAP
CC
78
CC
CC
CC
78
CC
ENDCHAR
STARTCHAR yen
ENCODING 165
SWIDTH 500 0
DWIDTH 7 0
BBX 6 9 0 0
BITMAP
CC
CC
78
78
30
FC
30
FC
30
ENDCHAR
STARTCHAR brokenbar
ENCODING 166
SWIDTH 500 0
DWIDTH 7 0
BBX 2 10 2 0
BITMAP
C0
C0
C0
C0
00
00
C0
C0
C0
C0
ENDCHAR
STARTCHAR section
ENCODING 167
SWIDTH 500 0
DWIDTH 7 0
BBX 5 9 1 0
BITMAP
78
C0
60
F0
D8
78
30
18
F0
ENDCHAR
STARTCHAR dieresis
ENCODING 168
SWIDTH 500 0
DWIDTH 7 0
BBX 5 1 1 10
BITMAP
D8
ENDCHAR
STARTCHAR copyright
ENCODING 169
SWIDTH 500 0
DWIDTH 7 0
BBX 7 9 0 0
BITMAP
38
7C
E6
DE
DE
DE
E6
7C
38
ENDCHAR
STARTCHAR ordfeminine
ENCODING 170
SWIDTH 500 0
DWIDTH 7 0
BBX 6 7 0 4
BITMAP
78
0C
7C
CC
7C
00
FC
ENDCHAR
STARTCHAR guillemotleft
ENCODING 171
SWIDTH 500 0
DWIDTH 7 0
BBX 7 5 0 2
BITMAP
36
6C
D8
6C
36
ENDCHAR
STARTCHAR logicalnot
ENCODING 172
SWIDTH 500 0
DWIDTH 7 0
BBX 6 4 0 3
BITMAP
FC
0C
0C
0C
ENDCHAR
STARTCHAR uni00AD
ENCODING 173
SWIDTH 500 0
DWIDTH 7 0
BBX 6 1 0 4
BITMAP
FC
ENDCHAR
STARTCHAR registered
ENCODING 174
SWIDTH 500 0
DWIDTH 7 0
BBX 7 9 0 0
BITMAP
38
7C
CE
D6
CE
D6
D6
7C
38
ENDCHAR
STARTCHAR macron
ENCODING 175
SWIDTH 500 0
DWIDTH 7 0
BBX 6 1 0 10
BITMAP
FC
ENDCHAR
STARTCHAR degree
ENCODING 176
SWIDTH 500 0
DWIDTH 7 0
BBX 5 4 1 7
BITMAP
70
D8
D8
70
ENDCHAR
STARTCHAR plusminus
ENCODING 177
SWIDTH 500 0
DWIDTH 7 0
BBX 6 7 0 1
BITMAP
30
30
FC
30
30
00
FC
ENDCHAR
STARTCHAR uni00B2
ENCODING 178
SWIDTH 500 0
DWIDTH 7 0
BBX 5 5 1 6
BITMAP
F0
18
70
C0
F8
ENDCHAR
STARTCHAR uni00B3
ENCODING 179
SWIDTH 500 0
DWIDTH 7 0
BBX 5 5 1 6
BITMAP
F0
18
70
18
F0
ENDCHAR
STARTCHAR acute
ENCODING 180
SWIDTH 500 0
DWIDTH 7 0
BBX 3 2 2 9
BITMAP
60
C0
ENDCHAR
STARTCHAR uni00B5
ENCODING 181
SWIDTH 500 0
DWIDTH 7 0
BBX 6 9 0 -2
BITMAP
CC
CC
CC
CC
CC
CC
F8
C0
C0
ENDCHAR
STARTCHAR paragraph
ENCODING 182
SWIDTH 500 0
DWIDTH 7 0
BBX 6 9 0 0
BITMAP
7C
F4
F4
F4
74
34
34
34
34
ENDCHAR
STARTCHAR periodcentered
ENCODING 183
SWIDTH 500 0
DWIDTH 7 0
BBX 3 2 2 4
BITMAP
E0
E0
ENDCHAR
STARTCHAR cedilla
ENCODING 184
SWIDTH 500 0
DWIDTH 7 0
BBX 4 3 0 -2
BITMAP
30
30
E0
ENDCHAR
STARTCHAR uni00B9
ENCODING 185
SWIDTH 500 0
DWIDTH 7 0
BBX 3 5 1 6
BITMAP
60
E0
60
60
60
ENDCHAR
STARTCHAR ordmasculine
ENCODING 186
SWIDTH 500 0
DWIDTH 7 0
BBX 6 7 0 4
BITMAP
78
CC
CC
CC
78
00
FC
ENDCHAR
STARTCHAR guillemotright
ENCODING 187
SWIDTH 500 0
DWIDTH 7 0
BBX 7 5 0 2
BITMAP
D8
6C
36
6C
D8
ENDCHAR
STARTCHAR onequarter
ENCODING 188
SWIDTH 500 0
DWIDTH 7 0
BBX 6 13 0 -2
BITMAP
30
70
30
30
30
00
FC
00
18
38
58
78
18
ENDCHAR
STARTCHAR onehalf
ENCODING 189
SWIDTH 500 0
DWIDTH 7 0
BBX 6 13 0 -2
BITMAP
30
70
30
30
30
00
FC
00
70
18
30
60
78
ENDCHAR
STARTCHAR threequarters
ENCODING 190
SWIDTH 500 0
DWIDTH 7 0
BBX 6 13 0 -2
BITMAP
70
18
30
18
70
00
FC
00
18
38
58
78
18
ENDCHAR
STARTCHAR questiondown
ENCODING 191
SWIDTH 500 0
DWIDTH 7 0
BBX 5 9 1 0
BITMAP
30
30
00
30
30
60
C0
C0
78
ENDCHAR
STARTCHAR Agrave
ENCODING 192
SWIDTH 500 0
DWIDTH 7 0
BBX 6 11 0 0
BITMAP
60
30
78
CC
CC
CC
FC
CC
CC
CC
CC
ENDCHAR
STARTCHAR Aacute
ENCODING 193
SWIDTH 500 0
DWIDTH 7 0
BBX 6 11 0 0
BITMAP
18
30
78
CC
CC
CC
FC
CC
CC
CC
CC
ENDCHAR
STARTCHAR Acircumflex
ENCODING 194
SWIDTH 500 0
DWIDTH 7 0
BBX 6 11 0 0
BITMAP
30
58
00
78
CC
CC
FC
CC
CC
CC
CC
ENDCHAR
STARTCHAR Atilde
ENCODING 195
SWIDTH 500 0
DWIDTH 7 0
BBX 6 11 0 0
BITMAP
64
B4
98
00
78
CC
FC
CC
CC
CC
CC
ENDCHAR
STARTCHAR Adieresis
ENCODING 196
SWIDTH 500 0
DWIDTH 7 0
BBX 6 11 0 0
BITMAP
6C
00
78
CC
CC
CC
FC
CC
CC
CC
CC
ENDCHAR
STARTCHAR Aring
ENCODING 197
SWIDTH 500 0
DWIDTH 7 0
BBX 6 11 0 0
BITMAP
30
58
30
00
78
CC
FC
CC
CC
CC
CC
ENDCHAR
STARTCHAR AE
ENCODING 198
SWIDTH 500 0
DWIDTH 7 0
BBX 7 9 0 0
BITMAP
7E
D8
D8
D8
FE
D8
D8
D8
DE
ENDCHAR
STARTCHAR Ccedilla
ENCODING 199
SWIDTH 500 0
DWIDTH 7 0
BBX 6 11 0 -2
BITMAP
7C
C0
C0
C0
C0
C0
C0
C0
7C
30
E0
ENDCHAR
STARTCHAR Egrave
ENCODING 200
SWIDTH 500 0
DWIDTH 7 0
BBX 6 11 0 0
BITMAP
60
30
FC
C0
C0
C0
F8
C0
C0
C0
FC
ENDCHAR
STARTCHAR Eacute
ENCODING 201
SWIDTH 500 0
DWIDTH 7 0
BBX 6 11 0 0
BITMAP
18
30
FC
C0
C0
C0
F8
C0
C0
C0
FC
ENDCHAR
STARTCHAR Ecircumflex
ENCODING 202
SWIDTH 500 0
DWIDTH 7 0
BBX 6 11 0 0
BITMAP
30
58
00
FC
C0
C0
F8
C0
C0
C0
FC
ENDCHAR
STARTCHAR Edieresis
ENCODING 203
SWIDTH 500 0
DWIDTH 7 0
BBX 6 11 0 0
BITMAP
6C
00
FC
C0
C0
C0
F8
C0
C0
C0
FC
ENDCHAR
STARTCHAR Igrave
ENCODING 204
SWIDTH 500 0
DWIDTH 7 0
BBX 6 11 0 0
BITMAP
60
30
FC
30
30
30
30
30
30
30
FC
ENDCHAR
STARTCHAR Iacute
ENCODING 205
SWIDTH 500 0
DWIDTH 7 0
BBX 6 11 0 0
BITMAP
18
30
FC
30
30
30
30
30
30
30
FC
ENDCHAR
STARTCHAR Icircumflex
ENCODING 206
SWIDTH 500 0
DWIDTH 7 0
BBX 6 11 0 0
BITMAP
30
58
00
FC
30
30
30
30
30
30
FC
ENDCHAR
STARTCHAR Idieresis
ENCODING 207
SWIDTH 500 0
DWIDTH 7 0
BBX 6 11 0 0
BITMAP
6C
00
FC
30
30
30
30
30
30
30
FC
ENDCHAR
STARTCHAR Eth
ENCODING 208
SWIDTH 500 0
DWIDTH 7 0
BBX 7 9 0 0
BITMAP
78
6C
66
66
F6
66
66
6C
78
ENDCHAR
STARTCHAR Ntilde
ENCODING 209
SWIDTH 500 0
DWIDTH 7 0
BBX 6 11 0 0
BITMAP
64
B4
98
00
CC
EC
EC
FC
DC
DC
CC
ENDCHAR
STARTCHAR Ograve
ENCODING 210
SWIDTH 500 0
DWIDTH 7 0
BBX 6 11 0 0
BITMAP
60
30
78
CC
CC
CC
CC
CC
CC
CC
78
ENDCHAR
STARTCHAR Oacute
ENCODING 211
SWIDTH 500 0
DWIDTH 7 0
BBX 6 11 0 0
BITMAP
18
30
78
CC
CC
CC
CC
CC
CC
CC
78
ENDCHAR
STARTCHAR Ocircumflex
ENCODING 212
SWIDTH 500 0
DWIDTH 7 0
BBX 6 11 0 0
BITMAP
30
58
00
78
CC
CC
CC
CC
CC
CC
78
ENDCHAR
STARTCHAR Otilde
ENCODING 213
SWIDTH 500 0
DWIDTH 7 0
BBX 6 11 0 0
BITMAP
64
B4
98
00
78
CC
CC
CC
CC
CC
78
ENDCHAR
STARTCHAR Odieresis
ENCODING 214
SWIDTH 500 0
DWIDTH 7 0
BBX 6 11 0 0
BITMAP
6C
00
78
CC
CC
CC
CC
CC
CC
CC
78
ENDCHAR
STARTCHAR multiply
ENCODING 215
SWIDTH 500 0
DWIDTH 7 0
BBX 6 5 0 2
BITMAP
CC
78
30
78
CC
ENDCHAR
STARTCHAR Oslash
ENCODING 216
SWIDTH 500 0
DWIDTH 7 0
BBX 6 11 0 -1
BITMAP
04
78
CC
DC
DC
FC
EC
EC
CC
78
80
ENDCHAR
STARTCHAR Ugrave
ENCODING 217
SWIDTH 500 0
DWIDTH 7 0
BBX 6 11 0 0
BITMAP
60
30
CC
CC
CC
CC
CC
CC
CC
CC
78
ENDCHAR
STARTCHAR Uacute
ENCODING 218
SWIDTH 500 0
DWIDTH 7 0
BBX 6 11 0 0
BITMAP
18
30
CC
CC
CC
CC
CC
CC
CC
CC
78
ENDCHAR
STARTCHAR Ucircumflex
ENCODING 219
SWIDTH 500 0
DWIDTH 7 0
BBX 6 11 0 0
BITMAP
30
58
00
CC
CC
CC
CC
CC
CC
CC
78
ENDCHAR
STARTCHAR Udieresis
ENCODING 220
SWIDTH 500 0
DWIDTH 7 0
BBX 6 11 0 0
BITMAP
6C
00
CC
CC
CC
CC
CC
CC
CC
CC
78
ENDCHAR
STARTCHAR Yacute
ENCODING 221
SWIDTH 500 0
DWIDTH 7 0
BBX 6 11 0 0
BITMAP
18
30
CC
CC
78
78
30
30
30
30
30
ENDCHAR
STARTCHAR Thorn
ENCODING 222
SWIDTH 500 0
DWIDTH 7 0
BBX 6 9 0 0
BITMAP
C0
C0
F8
CC
CC
CC
F8
C0
C0
ENDCHAR
STARTCHAR germandbls
ENCODING 223
SWIDTH 500 0
DWIDTH 7 0
BBX 6 9 0 0
BITMAP
70
D8
D8
F8
CC
CC
CC
CC
F8
ENDCHAR
STARTCHAR agrave
ENCODING 224
SWIDTH 500 0
DWIDTH 7 0
BBX 6 10 0 0
BITMAP
60
30
00
78
0C
0C
7C
CC
CC
7C
ENDCHAR
STARTCHAR aacute
ENCODING 225
SWIDTH 500 0
DWIDTH 7 0
BBX 6 10 0 0
BITMAP
18
30
00
78
0C
0C
7C
CC
CC
7C
ENDCHAR
STARTCHAR acircumflex
ENCODING 226
SWIDTH 500 0
DWIDTH 7 0
BBX 6 10 0 0
BITMAP
30
58
00
78
0C
0C
7C
CC
CC
7C
ENDCHAR
STARTCHAR atilde
ENCODING 227
SWIDTH 500 0
DWIDTH 7 0
BBX 6 11 0 0
BITMAP
64
B4
98
00
78
0C
0C
7C
CC
CC
7C
ENDCHAR
STARTCHAR adieresis
ENCODING 228
SWIDTH 500 0
DWIDTH 7 0
BBX 6 9 0 0
BITMAP
6C
00
78
0C
0C
7C
CC
CC
7C
ENDCHAR
STARTCHAR aring
ENCODING 229
SWIDTH 500 0
DWIDTH 7 0
BBX 6 11 0 0
BITMAP
30
58
30
00
78
0C
0C
7C
CC
CC
7C
ENDCHAR
STARTCHAR ae
ENCODING 230
SWIDTH 500 0
DWIDTH 7 0
BBX 7 7 0 0
BITMAP
7C
1A
1A
7C
D8
D8
7E
ENDCHAR
STARTCHAR ccedilla
ENCODING 231
SWIDTH 500 0
DWIDTH 7 0
BBX 6 9 0 -2
BITMAP
7C
C0
C0
C0
C0
C0
7C
30
E0
ENDCHAR
STARTCHAR egrave
ENCODING 232
SWIDTH 500 0
DWIDTH 7 0
BBX 6 10 0 0
BITMAP
60
30
00
78
CC
CC
FC
C0
C0
7C
ENDCHAR
STARTCHAR eacute
ENCODING 233
SWIDTH 500 0
DWIDTH 7 0
BBX 6 10 0 0
BITMAP
18
30
00
78
CC
CC
FC
C0
C0
7C
ENDCHAR
STARTCHAR ecircumflex
ENCODING 234
SWIDTH 500 0
DWIDTH 7 0
BBX 6 10 0 0
BITMAP
30
58
00
78
CC
CC
FC
C0
C0
7C
ENDCHAR
STARTCHAR edieresis
ENCODING 235
SWIDTH 500 0
DWIDTH 7 0
BBX 6 9 0 0
BITMAP
6C
00
78
CC
CC
FC
C0
C0
7C
ENDCHAR
STARTCHAR igrave
ENCODING 236
SWIDTH 500 0
DWIDTH 7 0
BBX 3 10 1 0
BITMAP
C0
60
00
E0
60
60
60
60
60
60
ENDCHAR
STARTCHAR iacute
ENCODING 237
SWIDTH 500 0
DWIDTH 7 0
BBX 3 10 1 0
BITMAP
60
C0
00
E0
60
60
60
60
60
60
ENDCHAR
STARTCHAR icircumflex
ENCODING 238
SWIDTH 500 0
DWIDTH 7 0
BBX 4 10 1 0
BITMAP
60
B0
00
E0
60
60
60
60
60
60
ENDCHAR
STARTCHAR idieresis
ENCODING 239
SWIDTH 500 0
DWIDTH 7 0
BBX 5 9 1 0
BITMAP
D8
00
E0
60
60
60
60
60
60
ENDCHAR
STARTCHAR eth
ENCODING 240
SWIDTH 500 0
DWIDTH 7 0
BBX 6 10 0 0
BITMAP
70
1C
38
0C
7C
CC
CC
CC
CC
78
ENDCHAR
STARTCHAR ntilde
ENCODING 241
SWIDTH 500 0
DWIDTH 7 0
BBX 6 11 0 0
BITMAP
64
B4
98
00
F8
CC
CC
CC
CC
CC
CC
ENDCHAR
STARTCHAR ograve
ENCODING 242
SWIDTH 500 0
DWIDTH 7 0
BBX 6 10 0 0
BITMAP
60
30
00
78
CC
CC
CC
CC
CC
78
ENDCHAR
STARTCHAR oacute
ENCODING 243
SWIDTH 500 0
DWIDTH 7 0
BBX 6 10 0 0
BITMAP
18
30
00
78
CC
CC
CC
CC
CC
78
ENDCHAR
STARTCHAR ocircumflex
ENCODING 244
SWIDTH 500 0
DWIDTH 7 0
BBX 6 10 0 0
BITMAP
30
58
00
78
CC
CC
CC
CC
CC
78
ENDCHAR
STARTCHAR otilde
ENCODING 245
SWIDTH 500 0
DWIDTH 7 0
BBX 6 11 0 0
BITMAP
64
B4
98
00
78
CC
CC
CC
CC
CC
78
ENDCHAR
STARTCHAR odieresis
ENCODING 246
SWIDTH 500 0
DWIDTH 7 0
BBX 6 9 0 0
BITMAP
6C
00
78
CC
CC
CC
CC
CC
78
ENDCHAR
STARTCHAR divide
ENCODING 247
SWIDTH 500 0
DWIDTH 7 0
BBX 6 7 0 1
BITMAP
30
30
00
FC
00
30
30
ENDCHAR
STARTCHAR oslash
ENCODING 248
SWIDTH 500 0
DWIDTH 7 0
BBX 6 9 0 -1
BITMAP
04
78
CC
DC
FC
EC
CC
78
80
ENDCHAR
STARTCHAR ugrave
ENCODING 249
SWIDTH 500 0
DWIDTH 7 0
BBX 6 10 0 0
BITMAP
60
30
00
CC
CC
CC
CC
CC
CC
7C
ENDCHAR
STARTCHAR uacute
ENCODING 250
SWIDTH 500 0
DWIDTH 7 0
BBX 6 10 0 0
BITMAP
18
30
00
CC
CC
CC
CC
CC
CC
7C
ENDCHAR
STARTCHAR ucircumflex
ENCODING 251
SWIDTH 500 0
DWIDTH 7 0
BBX 6 10 0 0
BITMAP
30
58
00
CC
CC
CC
CC
CC
CC
7C
ENDCHAR
STARTCHAR udieresis
ENCODING 252
SWIDTH 500 0
DWIDTH 7 0
BBX 6 9 0 0
BITMAP
6C
00
CC
CC
CC
CC
CC
CC
7C
ENDCHAR
STARTCHAR yacute
ENCODING 253
SWIDTH 500 0
DWIDTH 7 0
BBX 6 12 0 -2
BITMAP
18
30
00
CC
CC
CC
CC
CC
CC
7C
0C
78
ENDCHAR
STARTCHAR thorn
ENCODING 254
SWIDTH 500 0
DWIDTH 7 0
BBX 6 11 0 -2
BITMAP
C0
C0
F8
CC
CC
CC
CC
CC
F8
C0
C0
ENDCHAR
STARTCHAR ydieresis
ENCODING 255
SWIDTH 500 0
DWIDTH 7 0
BBX 6 11 0 -2
BITMAP
6C
00
CC
CC
CC
CC
CC
CC
7C
0C
78
ENDCHAR
STARTCHAR Amacron
ENCODING 256
SWIDTH 500 0
DWIDTH 7 0
BBX 6 11 0 0
BITMAP
78
00
78
CC
CC
CC
FC
CC
CC
CC
CC
ENDCHAR
STARTCHAR amacron
ENCODING 257
SWIDTH 500 0
DWIDTH 7 0
BBX 6 9 0 0
BITMAP
78
00
78
0C
0C
7C
CC
CC
7C
ENDCHAR
STARTCHAR Abreve
ENCODING 258
SWIDTH 500 0
DWIDTH 7 0
BBX 6 11 0 0
BITMAP
CC
78
00
78
CC
CC
CC
FC
CC
CC
CC
ENDCHAR
STARTCHAR abreve
ENCODING 259
SWIDTH 500 0
DWIDTH 7 0
BBX 6 10 0 0
BITMAP
CC
78
00
78
0C
0C
7C
CC
CC
7C
ENDCHAR
STARTCHAR Aogonek
ENCODING 260
SWIDTH 500 0
DWIDTH 7 0
BBX 7 11 0 -2
BITMAP
78
CC
CC
CC
FC
CC
CC
CC
CC
08
06
ENDCHAR
STARTCHAR aogonek
ENCODING 261
SWIDTH 500 0
DWIDTH 7 0
BBX 7 9 0 -2
BITMAP
78
0C
0C
7C
CC
CC
7C
08
06
ENDCHAR
STARTCHAR Cacute
ENCODING 262
SWIDTH 500 0
DWIDTH 7 0
BBX 6 11 0 0
BITMAP
18
30
7C
C0
C0
C0
C0
C0
C0
C0
7C
ENDCHAR
STARTCHAR cacute
ENCODING 263
SWIDTH 500 0
DWIDTH 7 0
BBX 6 10 0 0
BITMAP
18
30
00
7C
C0
C0
C0
C0
C0
7C
ENDCHAR
STARTCHAR Ccircumflex
ENCODING 264
SWIDTH 500 0
DWIDTH 7 0
BBX 6 11 0 0
BITMAP
30
58
00
7C
C0
C0
C0
C0
C0
C0
7C
ENDCHAR
STARTCHAR ccircumflex
ENCODING 265
SWIDTH 500 0
DWIDTH 7 0
BBX 6 10 0 0
BITMAP
30
58
00
7C
C0
C0
C0
C0
C0
7C
ENDCHAR
STARTCHAR Cdotaccent
ENCODING 266
SWIDTH 500 0
DWIDTH 7 0
BBX 6 11 0 0
BITMAP
30
00
7C
C0
C0
C0
C0
C0
C0
C0
7C
ENDCHAR
STARTCHAR cdotaccent
ENCODING 267
SWIDTH 500 0
DWIDTH 7 0
BBX 6 9 0 0
BITMAP
30
00
7C
C0
C0
C0
C0
C0
7C
ENDCHAR
STARTCHAR Ccaron
ENCODING 268
SWIDTH 500 0
DWIDTH 7 0
BBX 6 11 0 0
BITMAP
CC
78
00
7C
C0
C0
C0
C0
C0
C0
7C
ENDCHAR
STARTCHAR ccaron
ENCODING 269
SWIDTH 500 0
DWIDTH 7 0
BBX 6 10 0 0
BITMAP
58
30
00
7C
C0
C0
C0
C0
C0
7C
ENDCHAR
STARTCHAR Dcaron
ENCODING 270
SWIDTH 500 0
DWIDTH 7 0
BBX 6 11 0 0
BITMAP
58
30
00
F0
D8
CC
CC
CC
CC
D8
F0
ENDCHAR
STARTCHAR dcaron
ENCODING 271
SWIDTH 500 0
DWIDTH 7 0
BBX 6 11 0 0
BITMAP
58
30
0C
0C
7C
CC
CC
CC
CC
CC
7C
ENDCHAR
STARTCHAR Dcroat
ENCODING 272
SWIDTH 500 0
DWIDTH 7 0
BBX 7 9 0 0
BITMAP
78
6C
66
66
F6
66
66
6C
78
ENDCHAR
STARTCHAR dcroat
ENCODING 273
SWIDTH 500 0
DWIDTH 7 0
BBX 7 9 0 0
BITMAP
0C
1E
0C
7C
CC
CC
CC
CC
7C
ENDCHAR
STARTCHAR Emacron
ENCODING 274
SWIDTH 500 0
DWIDTH 7 0
BBX 6 11 0 0
BITMAP
78
00
FC
C0
C0
C0
F8
C0
C0
C0
FC
ENDCHAR
STARTCHAR emacron
ENCODING 275
SWIDTH 500 0
DWIDTH 7 0
BBX 6 9 0 0
BITMAP
78
00
78
CC
CC
FC
C0
C0
7C
ENDCHAR
STARTCHAR Ebreve
ENCODING 276
SWIDTH 500 0
DWIDTH 7 0
BBX 6 11 0 0
BITMAP
CC
78
00
FC
C0
C0
F8
C0
C0
C0
FC
ENDCHAR
STARTCHAR ebreve
ENCODING 277
SWIDTH 500 0
DWIDTH 7 0
BBX 6 10 0 0
BITMAP
CC
78
00
78
CC
CC
FC
C0
C0
7C
ENDCHAR
STARTCHAR Edotaccent
ENCODING 278
SWIDTH 500 0
DWIDTH 7 0
BBX 6 11 0 0
BITMAP
30
00
FC
C0
C0
C0
F8
C0
C0
C0
FC
ENDCHAR
STARTCHAR edotaccent
ENCODING 279
SWIDTH 500 0
DWIDTH 7 0
BBX 6 9 0 0
BITMAP
30
00
78
CC
CC
FC
C0
C0
7C
ENDCHAR
STARTCHAR Eogonek
ENCODING 280
SWIDTH 500 0
DWIDTH 7 0
BBX 7 11 0 -2
BITMAP
FC
C0
C0
C0
F8
C0
C0
C0
FC
08
06
ENDCHAR
STARTCHAR eogonek
ENCODING 281
SWIDTH 500 0
DWIDTH 7 0
BBX 7 9 0 -2
BITMAP
78
CC
CC
FC
C0
C0
7C
08
06
ENDCHAR
STARTCHAR Ecaron
ENCODING 282
SWIDTH 500 0
DWIDTH 7 0
BBX 6 11 0 0
BITMAP
58
30
00
FC
C0
C0
F8
C0
C0
C0
FC
ENDCHAR
STARTCHAR ecaron
ENCODING 283
SWIDTH 500 0
DWIDTH 7 0
BBX 6 10 0 0
BITMAP
58
30
00
78
CC
CC
FC
C0
C0
7C
ENDCHAR
STARTCHAR Gcircumflex
ENCODING 284
SWIDTH 500 0
DWIDTH 7 0
BBX 6 11 0 0
BITMAP
30
58
00
7C
C0
C0
DC
CC
CC
CC
78
ENDCHAR
STARTCHAR gcircumflex
ENCODING 285
SWIDTH 500 0
DWIDTH 7 0
BBX 6 12 0 -2
BITMAP
30
58
00
7C
CC
CC
CC
CC
CC
7C
0C
78
ENDCHAR
STARTCHAR Gbreve
ENCODING 286
SWIDTH 500 0
DWIDTH 7 0
BBX 6 11 0 0
BITMAP
CC
78
00
7C
C0
C0
DC
CC
CC
CC
78
ENDCHAR
STARTCHAR gbreve
ENCODING 287
SWIDTH 500 0
DWIDTH 7 0
BBX 6 12 0 -2
BITMAP
CC
78
00
7C
CC
CC
CC
CC
CC
7C
0C
78
ENDCHAR
STARTCHAR Gdotaccent
ENCODING 288
SWIDTH 500 0
DWIDTH 7 0
BBX 6 11 0 0
BITMAP
30
00
7C
C0
C0
C0
DC
CC
CC
CC
78
ENDCHAR
STARTCHAR gdotaccent
ENCODING 289
SWIDTH 500 0
DWIDTH 7 0
BBX 6 11 0 -2
BITMAP
30
00
7C
CC
CC
CC
CC
CC
7C
0C
78
ENDCHAR
STARTCHAR Gcommaaccent
ENCODING 290
SWIDTH 500 0
DWIDTH 7 0
BBX 6 11 0 -2
BITMAP
7C
C0
C0
C0
DC
CC
CC
CC
78
30
E0
ENDCHAR
STARTCHAR gcommaaccent
ENCODING 291
SWIDTH 500 0
DWIDTH 7 0
BBX 6 11 0 -2
BITMAP
1C
30
7C
CC
CC
CC
CC
CC
7C
0C
78
ENDCHAR
STARTCHAR Hcircumflex
ENCODING 292
SWIDTH 500 0
DWIDTH 7 0
BBX 6 11 0 0
BITMAP
30
58
00
CC
CC
CC
FC
CC
CC
CC
CC
ENDCHAR
STARTCHAR hcircumflex
ENCODING 293
SWIDTH 500 0
DWIDTH 7 0
BBX 6 11 0 0
BITMAP
30
58
00
C0
C0
F8
CC
CC
CC
CC
CC
ENDCHAR
STARTCHAR Hbar
ENCODING 294
SWIDTH 500 0
DWIDTH 7 0
BBX 7 9 0 0
BITMAP
CC
FE
CC
CC
FC
CC
CC
CC
CC
ENDCHAR
STARTCHAR hbar
ENCODING 295
SWIDTH 500 0
DWIDTH 7 0
BBX 6 9 0 0
BITMAP
60
F8
60
78
6C
6C
6C
6C
6C
ENDCHAR
STARTCHAR Itilde
ENCODING 296
SWIDTH 500 0
DWIDTH 7 0
BBX 6 11 0 0
BITMAP
64
B4
98
00
FC
30
30
30
30
30
FC
ENDCHAR
STARTCHAR itilde
ENCODING 297
SWIDTH 500 0
DWIDTH 7 0
BBX 6 11 0 0
BITMAP
64
B4
98
00
70
30
30
30
30
30
78
ENDCHAR
STARTCHAR Imacron
ENCODING 298
SWIDTH 500 0
DWIDTH 7 0
BBX 6 11 0 0
BITMAP
78
00
FC
30
30
30
30
30
30
30
FC
ENDCHAR
STARTCHAR imacron
ENCODING 299
SWIDTH 500 0
DWIDTH 7 0
BBX 4 9 1 0
BITMAP
F0
00
E0
60
60
60
60
60
F0
ENDCHAR
STARTCHAR Ibreve
ENCODING 300
SWIDTH 500 0
DWIDTH 7 0
BBX 6 11 0 0
BITMAP
CC
78
00
FC
30
30
30
30
30
30
FC
ENDCHAR
STARTCHAR ibreve
ENCODING 301
SWIDTH 500 0
DWIDTH 7 0
BBX 6 10 0 0
BITMAP
CC
78
00
70
30
30
30
30
30
78
ENDCHAR
STARTCHAR Iogonek
ENCODING 302
SWIDTH 500 0
DWIDTH 7 0
BBX 6 11 0 -2
BITMAP
FC
30
30
30
30
30
30
30
FC
10
0C
ENDCHAR
STARTCHAR iogonek
ENCODING 303
SWIDTH 500 0
DWIDTH 7 0
BBX 5 12 1 -2
BITMAP
60
60
00
E0
60
60
60
60
60
F0
20
18
ENDCHAR
STARTCHAR Idotaccent
ENCODING 304
SWIDTH 500 0
DWIDTH 7 0
BBX 6 11 0 0
BITMAP
30
00
FC
30
30
30
30
30
30
30
FC
ENDCHAR
STARTCHAR dotlessi
ENCODING 305
SWIDTH 500 0
DWIDTH 7 0
BBX 4 7 1 0
BITMAP
E0
60
60
60
60
60
F0
ENDCHAR
STARTCHAR IJ
ENCODING 306
SWIDTH 500 0
DWIDTH 7 0
BBX 7 9 0 0
BITMAP
F6
66
66
66
66
66
66
66
FC
ENDCHAR
STARTCHAR ij
ENCODING 307
SWIDTH 500 0
DWIDTH 7 0
BBX 7 12 0 -2
BITMAP
66
66
00
EE
66
66
66
66
66
F6
06
1C
ENDCHAR
STARTCHAR Jcircumflex
ENCODING 308
SWIDTH 500 0
DWIDTH 7 0
BBX 6 11 0 0
BITMAP
18
2C
00
3C
18
18
18
18
18
18
F0
ENDCHAR
STARTCHAR jcircumflex
ENCODING 309
SWIDTH 500 0
DWIDTH 7 0
BBX 5 12 0 -2
BITMAP
30
58
00
70
30
30
30
30
30
30
30
E0
ENDCHAR
STARTCHAR Kcommaaccent
ENCODING 310
SWIDTH 500 0
DWIDTH 7 0
BBX 6 11 0 -2
BITMAP
CC
D8
F0
E0
C0
E0
F0
D8
CC
30
E0
ENDCHAR
STARTCHAR kcommaaccent
ENCODING 311
SWIDTH 500 0
DWIDTH 7 0
BBX 6 11 0 -2
BITMAP
C0
C0
CC
D8
F0
E0
F0
D8
CC
30
E0
ENDCHAR
STARTCHAR kgreenlandic
ENCODING 312
SWIDTH 500 0
DWIDTH 7 0
BBX 6 7 0 0
BITMAP
CC
D8
F0
E0
F0
D8
CC
ENDCHAR
STARTCHAR Lacute
ENCODING 313
SWIDTH 500 0
DWIDTH 7 0
BBX 6 11 0 0
BITMAP
18
30
C0
C0
C0
C0
C0
C0
C0
C0
FC
ENDCHAR
STARTCHAR lacute
ENCODING 314
SWIDTH 500 0
DWIDTH 7 0
BBX 4 11 1 0
BITMAP
30
60
00
E0
60
60
60
60
60
60
30
ENDCHAR
STARTCHAR Lcommaaccent
ENCODING 315
SWIDTH 500 0
DWIDTH 7 0
BBX 6 11 0 -2
BITMAP
C0
C0
C0
C0
C0
C0
C0
C0
FC
30
E0
ENDCHAR
STARTCHAR lcommaaccent
ENCODING 316
SWIDTH 500 0
DWIDTH 7 0
BBX 4 11 0 -2
BITMAP
70
30
30
30
30
30
30
30
30
30
E0
ENDCHAR
STARTCHAR Lcaron
ENCODING 317
SWIDTH 500 0
DWIDTH 7 0
BBX 6 11 0 0
BITMAP
58
30
C0
C0
C0
C0
C0
C0
C0
C0
FC
ENDCHAR
STARTCHAR lcaron
ENCODING 318
SWIDTH 500 0
DWIDTH 7 0
BBX 4 11 1 0
BITMAP
B0
60
00
E0
60
60
60
60
60
60
30
ENDCHAR
STARTCHAR Ldot
ENCODING 319
SWIDTH 500 0
DWIDTH 7 0
BBX 6 9 0 0
BITMAP
C0
C0
C0
D8
D8
C0
C0
C0
FC
ENDCHAR
STARTCHAR ldot
ENCODING 320
SWIDTH 500 0
DWIDTH 7 0
BBX 6 9 0 0
BITMAP
E0
60
60
6C
6C
60
60
60
30
ENDCHAR
STARTCHAR Lslash
ENCODING 321
SWIDTH 500 0
DWIDTH 7 0
BBX 7 9 0 0
BITMAP
60
60
60
70
E0
60
60
60
7E
ENDCHAR
STARTCHAR lslash
ENCODING 322
SWIDTH 500 0
DWIDTH 7 0
BBX 4 9 1 0
BITMAP
E0
60
60
70
E0
60
60
60
30
ENDCHAR
STARTCHAR Nacute
ENCODING 323
SWIDTH 500 0
DWIDTH 7 0
BBX 6 11 0 0
BITMAP
18
30
CC
CC
EC
EC
FC
DC
DC
CC
CC
ENDCHAR
STARTCHAR nacute
ENCODING 324
SWIDTH 500 0
DWIDTH 7 0
BBX 6 10 0 0
BITMAP
18
30
00
F8
CC
CC
CC
CC
CC
CC
ENDCHAR
STARTCHAR Ncommaaccent
ENCODING 325
SWIDTH 500 0
DWIDTH 7 0
BBX 6 11 0 -2
BITMAP
CC
CC
EC
EC
FC
DC
DC
CC
CC
30
E0
ENDCHAR
STARTCHAR ncommaaccent
ENCODING 326
SWIDTH 500 0
DWIDTH 7 0
BBX 6 9 0 -2
BITMAP
F8
CC
CC
CC
CC
CC
CC
30
E0
ENDCHAR
STARTCHAR Ncaron
ENCODING 327
SWIDTH 500 0
DWIDTH 7 0
BBX 6 11 0 0
BITMAP
58
30
CC
CC
EC
EC
FC
DC
DC
CC
CC
ENDCHAR
STARTCHAR ncaron
ENCODING 328
SWIDTH 500 0
DWIDTH 7 0
BBX 6 10 0 0
BITMAP
58
30
00
F8
CC
CC
CC
CC
CC
CC
ENDCHAR
STARTCHAR napostrophe
ENCODING 329
SWIDTH 500 0
DWIDTH 7 0
BBX 6 11 0 0
BITMAP
60
60
C0
00
F8
CC
CC
CC
CC
CC
CC
ENDCHAR
STARTCHAR Eng
ENCODING 330
SWIDTH 500 0
DWIDTH 7 0
BBX 6 11 0 -2
BITMAP
CC
CC
EC
EC
FC
DC
DC
CC
CC
0C
18
ENDCHAR
STARTCHAR eng
ENCODING 331
SWIDTH 500 0
DWIDTH 7 0
BBX 6 9 0 -2
BITMAP
F8
CC
CC
CC
CC
CC
CC
0C
18
ENDCHAR
STARTCHAR Omacron
ENCODING 332
SWIDTH 500 0
DWIDTH 7 0
BBX 6 11 0 0
BITMAP
78
00
78
CC
CC
CC
CC
CC
CC
CC
78
ENDCHAR
STARTCHAR omacron
ENCODING 333
SWIDTH 500 0
DWIDTH 7 0
BBX 6 9 0 0
BITMAP
78
00
78
CC
CC
CC
CC
CC
78
ENDCHAR
STARTCHAR Obreve
ENCODING 334
SWIDTH 500 0
DWIDTH 7 0
BBX 6 11 0 0
BITMAP
CC
78
00
78
CC
CC
CC
CC
CC
CC
78
ENDCHAR
STARTCHAR obreve
ENCODING 335
SWIDTH 500 0
DWIDTH 7 0
BBX 6 10 0 0
BITMAP
CC
78
00
78
CC
CC
CC
CC
CC
78
ENDCHAR
STARTCHAR Ohungarumlaut
ENCODING 336
SWIDTH 500 0
DWIDTH 7 0
BBX 6 11 0 0
BITMAP
6C
D8
00
78
CC
CC
CC
CC
CC
CC
78
ENDCHAR
STARTCHAR ohungarumlaut
ENCODING 337
SWIDTH 500 0
DWIDTH 7 0
BBX 6 10 0 0
BITMAP
6C
D8
00
78
CC
CC
CC
CC
CC
78
ENDCHAR
STARTCHAR OE
ENCODING 338
SWIDTH 500 0
DWIDTH 7 0
BBX 7 9 0 0
BITMAP
7E
D8
D8
D8
DE
D8
D8
D8
7E
ENDCHAR
STARTCHAR oe
ENCODING 339
SWIDTH 500 0
DWIDTH 7 0
BBX 7 7 0 0
BITMAP
7C
DA
DA
DC
D8
D8
7E
ENDCHAR
STARTCHAR Racute
ENCODING 340
SWIDTH 500 0
DWIDTH 7 0
BBX 6 11 0 0
BITMAP
18
30
F8
CC
CC
CC
F8
E0
F0
D8
CC
ENDCHAR
STARTCHAR racute
ENCODING 341
SWIDTH 500 0
DWIDTH 7 0
BBX 6 10 0 0
BITMAP
18
30
00
7C
C0
C0
C0
C0
C0
C0
ENDCHAR
STARTCHAR Rcommaaccent
ENCODING 342
SWIDTH 500 0
DWIDTH 7 0
BBX 6 11 0 -2
BITMAP
F8
CC
CC
CC
F8
E0
F0
D8
CC
30
E0
ENDCHAR
STARTCHAR rcommaaccent
ENCODING 343
SWIDTH 500 0
DWIDTH 7 0
BBX 6 9 0 -2
BITMAP
7C
C0
C0
C0
C0
C0
C0
30
E0
ENDCHAR
STARTCHAR Rcaron
ENCODING 344
SWIDTH 500 0
DWIDTH 7 0
BBX 6 11 0 0
BITMAP
58
30
00
F8
CC
CC
F8
E0
F0
D8
CC
ENDCHAR
STARTCHAR rcaron
ENCODING 345
SWIDTH 500 0
DWIDTH 7 0
BBX 6 10 0 0
BITMAP
58
30
00
7C
C0
C0
C0
C0
C0
C0
ENDCHAR
STARTCHAR Sacute
ENCODING 346
SWIDTH 500 0
DWIDTH 7 0
BBX 6 11 0 0
BITMAP
18
30
7C
C0
C0
C0
78
0C
0C
8C
78
ENDCHAR
STARTCHAR sacute
ENCODING 347
SWIDTH 500 0
DWIDTH 7 0
BBX 6 10 0 0
BITMAP
18
30
00
7C
C0
C0
78
0C
0C
F8
ENDCHAR
STARTCHAR Scircumflex
ENCODING 348
SWIDTH 500 0
DWIDTH 7 0
BBX 6 11 0 0
BITMAP
30
58
00
7C
C0
C0
78
0C
0C
0C
F8
ENDCHAR
STARTCHAR scircumflex
ENCODING 349
SWIDTH 500 0
DWIDTH 7 0
BBX 6 10 0 0
BITMAP
30
58
00
7C
C0
C0
78
0C
0C
F8
ENDCHAR
STARTCHAR Scedilla
ENCODING 350
SWIDTH 500 0
DWIDTH 7 0
BBX 6 11 0 -2
BITMAP
7C
C0
C0
C0
78
0C
0C
0C
F8
30
E0
ENDCHAR
STARTCHAR scedilla
ENCODING 351
SWIDTH 500 0
DWIDTH 7 0
BBX 6 9 0 -2
BITMAP
7C
C0
C0
78
0C
0C
F8
30
E0
ENDCHAR
STARTCHAR Scaron
ENCODING 352
SWIDTH 500 0
DWIDTH 7 0
BBX 6 11 0 0
BITMAP
58
30
00
7C
C0
C0
78
0C
0C
0C
F8
ENDCHAR
STARTCHAR scaron
ENCODING 353
SWIDTH 500 0
DWIDTH 7 0
BBX 6 10 0 0
BITMAP
58
30
00
7C
C0
C0
38
0C
0C
F8
ENDCHAR
STARTCHAR Tcommaaccent
ENCODING 354
SWIDTH 500 0
DWIDTH 7 0
BBX 6 11 0 -2
BITMAP
FC
30
30
30
30
30
30
30
30
30
E0
ENDCHAR
STARTCHAR tcommaaccent
ENCODING 355
SWIDTH 500 0
DWIDTH 7 0
BBX 5 11 1 -2
BITMAP
C0
C0
F8
C0
C0
C0
C0
C0
78
30
E0
ENDCHAR
STARTCHAR Tcaron
ENCODING 356
SWIDTH 500 0
DWIDTH 7 0
BBX 6 11 0 0
BITMAP
58
30
00
FC
30
30
30
30
30
30
30
ENDCHAR
STARTCHAR tcaron
ENCODING 357
SWIDTH 500 0
DWIDTH 7 0
BBX 5 11 1 0
BITMAP
B0
60
00
C0
C0
F8
C0
C0
C0
C0
78
ENDCHAR
STARTCHAR Tbar
ENCODING 358
SWIDTH 500 0
DWIDTH 7 0
BBX 6 9 0 0
BITMAP
FC
30
30
78
30
30
30
30
30
ENDCHAR
STARTCHAR tbar
ENCODING 359
SWIDTH 500 0
DWIDTH 7 0
BBX 6 9 0 0
BITMAP
60
60
7C
60
F0
60
60
60
3C
ENDCHAR
STARTCHAR Utilde
ENCODING 360
SWIDTH 500 0
DWIDTH 7 0
BBX 6 11 0 0
BITMAP
64
B4
98
00
CC
CC
CC
CC
CC
CC
78
ENDCHAR
STARTCHAR utilde
ENCODING 361
SWIDTH 500 0
DWIDTH 7 0
BBX 6 11 0 0
BITMAP
64
B4
98
00
CC
CC
CC
CC
CC
CC
7C
ENDCHAR
STARTCHAR Umacron
ENCODING 362
SWIDTH 500 0
DWIDTH 7 0
BBX 6 11 0 0
BITMAP
78
00
CC
CC
CC
CC
CC
CC
CC
CC
78
ENDCHAR
STARTCHAR umacron
ENCODING 363
SWIDTH 500 0
DWIDTH 7 0
BBX 6 9 0 0
BITMAP
78
00
CC
CC
CC
CC
CC
CC
7C
ENDCHAR
STARTCHAR Ubreve
ENCODING 364
SWIDTH 500 0
DWIDTH 7 0
BBX 6 11 0 0
BITMAP
CC
78
00
CC
CC
CC
CC
CC
CC
CC
78
ENDCHAR
STARTCHAR ubreve
ENCODING 365
SWIDTH 500 0
DWIDTH 7 0
BBX 6 10 0 0
BITMAP
CC
78
00
CC
CC
CC
CC
CC
CC
7C
ENDCHAR
STARTCHAR Uring
ENCODING 366
SWIDTH 500 0
DWIDTH 7 0
BBX 6 11 0 0
BITMAP
30
58
30
CC
CC
CC
CC
CC
CC
CC
78
ENDCHAR
STARTCHAR uring
ENCODING 367
SWIDTH 500 0
DWIDTH 7 0
BBX 6 11 0 0
BITMAP
30
58
30
00
CC
CC
CC
CC
CC
CC
7C
ENDCHAR
STARTCHAR Uhungarumlaut
ENCODING 368
SWIDTH 500 0
DWIDTH 7 0
BBX 6 11 0 0
BITMAP
6C
D8
00
CC
CC
CC
CC
CC
CC
CC
78
ENDCHAR
STARTCHAR uhungarumlaut
ENCODING 369
SWIDTH 500 0
DWIDTH 7 0
BBX 6 10 0 0
BITMAP
6C
D8
00
CC
CC
CC
CC
CC
CC
7C
ENDCHAR
STARTCHAR Uogonek
ENCODING 370
SWIDTH 500 0
DWIDTH 7 0
BBX 6 11 0 -2
BITMAP
CC
CC
CC
CC
CC
CC
CC
CC
78
10
0C
ENDCHAR
STARTCHAR uogonek
ENCODING 371
SWIDTH 500 0
DWIDTH 7 0
BBX 7 9 0 -2
BITMAP
CC
CC
CC
CC
CC
CC
7C
08
06
ENDCHAR
STARTCHAR Wcircumflex
ENCODING 372
SWIDTH 500 0
DWIDTH 7 0
BBX 6 11 0 0
BITMAP
30
58
00
CC
CC
CC
FC
FC
FC
CC
84
ENDCHAR
STARTCHAR wcircumflex
ENCODING 373
SWIDTH 500 0
DWIDTH 7 0
BBX 6 10 0 0
BITMAP
30
58
00
CC
CC
CC
FC
FC
FC
78
ENDCHAR
STARTCHAR Ycircumflex
ENCODING 374
SWIDTH 500 0
DWIDTH 7 0
BBX 6 11 0 0
BITMAP
30
58
00
CC
CC
78
78
30
30
30
30
ENDCHAR
STARTCHAR ycircumflex
ENCODING 375
SWIDTH 500 0
DWIDTH 7 0
BBX 6 12 0 -2
BITMAP
30
58
00
CC
CC
CC
CC
CC
CC
7C
0C
78
ENDCHAR
STARTCHAR Ydieresis
ENCODING 376
SWIDTH 500 0
DWIDTH 7 0
BBX 6 11 0 0
BITMAP
6C
00
CC
CC
78
78
30
30
30
30
30
ENDCHAR
STARTCHAR Zacute
ENCODING 377
SWIDTH 500 0
DWIDTH 7 0
BBX 6 11 0 0
BITMAP
18
30
FC
0C
18
18
30
60
60
C0
FC
ENDCHAR
STARTCHAR zacute
ENCODING 378
SWIDTH 500 0
DWIDTH 7 0
BBX 6 10 0 0
BITMAP
18
30
00
FC
0C
18
30
60
C0
FC
ENDCHAR
STARTCHAR Zdotaccent
ENCODING 379
SWIDTH 500 0
DWIDTH 7 0
BBX 6 11 0 0
BITMAP
30
00
FC
0C
18
18
30
60
60
C0
FC
ENDCHAR
STARTCHAR zdotaccent
ENCODING 380
SWIDTH 500 0
DWIDTH 7 0
BBX 6 9 0 0
BITMAP
30
00
FC
0C
18
30
60
C0
FC
ENDCHAR
STARTCHAR Zcaron
ENCODING 381
SWIDTH 500 0
DWIDTH 7 0
BBX 6 11 0 0
BITMAP
58
30
00
FC
0C
18
30
30
60
C0
FC
ENDCHAR
STARTCHAR zcaron
ENCODING 382
SWIDTH 500 0
DWIDTH 7 0
BBX 6 10 0 0
BITMAP
58
30
00
FC
0C
18
30
60
C0
FC
ENDCHAR
STARTCHAR longs
ENCODING 383
SWIDTH 500 0
DWIDTH 7 0
BBX 4 9 1 0
BITMAP
70
C0
C0
C0
C0
C0
C0
C0
C0
ENDCHAR
STARTCHAR uni0180
ENCODING 384
SWIDTH 500 0
DWIDTH 7 0
BBX 7 9 0 0
BITMAP
60
F0
60
7C
66
66
66
66
7C
ENDCHAR
STARTCHAR uni0181
ENCODING 385
SWIDTH 1000 0
DWIDTH 7 0
BBX 7 9 0 0
BITMAP
7C
B6
36
36
3C
36
36
36
3C
ENDCHAR
STARTCHAR uni0182
ENCODING 386
SWIDTH 1000 0
DWIDTH 7 0
BBX 6 10 0 0
BITMAP
F8
C0
C0
F8
CC
CC
CC
CC
CC
F8
ENDCHAR
STARTCHAR uni0183
ENCODING 387
SWIDTH 1000 0
DWIDTH 7 0
BBX 6 9 0 0
BITMAP
F8
C0
F8
CC
CC
CC
CC
CC
F8
ENDCHAR
STARTCHAR uni0184
ENCODING 388
SWIDTH 500 0
DWIDTH 7 0
BBX 7 9 0 0
BITMAP
60
E0
7C
66
66
66
66
66
7C
ENDCHAR
STARTCHAR uni0185
ENCODING 389
SWIDTH 500 0
DWIDTH 7 0
BBX 7 8 0 0
BITMAP
60
E0
60
7C
66
66
66
7C
ENDCHAR
STARTCHAR uni0186
ENCODING 390
SWIDTH 500 0
DWIDTH 7 0
BBX 6 9 0 0
BITMAP
F8
0C
0C
0C
0C
0C
0C
0C
F8
ENDCHAR
STARTCHAR uni0187
ENCODING 391
SWIDTH 1000 0
DWIDTH 7 0
BBX 7 11 0 0
BITMAP
06
08
7C
C0
C0
C0
C0
C0
C0
C0
7C
ENDCHAR
STARTCHAR uni0188
ENCODING 392
SWIDTH 1000 0
DWIDTH 7 0
BBX 7 9 0 0
BITMAP
06
08
7C
C0
C0
C0
C0
C0
7C
ENDCHAR
STARTCHAR uni0189
ENCODING 393
SWIDTH 500 0
DWIDTH 7 0
BBX 7 9 0 0
BITMAP
78
6C
66
66
F6
66
66
6C
78
ENDCHAR
STARTCHAR uni018A
ENCODING 394
SWIDTH 500 0
DWIDTH 7 0
BBX 7 10 0 0
BITMAP
78
BC
36
36
36
36
36
36
3C
38
ENDCHAR
STARTCHAR uni018B
ENCODING 395
SWIDTH 500 0
DWIDTH 7 0
BBX 6 10 0 0
BITMAP
7C
0C
0C
7C
CC
CC
CC
CC
CC
7C
ENDCHAR
STARTCHAR uni018C
ENCODING 396
SWIDTH 500 0
DWIDTH 7 0
BBX 6 9 0 0
BITMAP
7C
0C
7C
CC
CC
CC
CC
CC
7C
ENDCHAR
STARTCHAR uni018D
ENCODING 397
SWIDTH 500 0
DWIDTH 7 0
BBX 6 9 0 0
BITMAP
78
CC
CC
CC
78
30
18
0C
78
ENDCHAR
STARTCHAR uni018E
ENCODING 398
SWIDTH 500 0
DWIDTH 7 0
BBX 6 9 0 0
BITMAP
FC
0C
0C
0C
7C
0C
0C
0C
FC
ENDCHAR
STARTCHAR uni018F
ENCODING 399
SWIDTH 500 0
DWIDTH 7 0
BBX 6 9 0 0
BITMAP
F8
0C
0C
0C
FC
CC
CC
CC
78
ENDCHAR
STARTCHAR uni0190
ENCODING 400
SWIDTH 500 0
DWIDTH 7 0
BBX 6 9 0 0
BITMAP
7C
C0
C0
C0
78
C0
C0
C0
7C
ENDCHAR
STARTCHAR uni0191
ENCODING 401
SWIDTH 500 0
DWIDTH 7 0
BBX 7 10 0 -1
BITMAP
7E
60
60
60
7C
60
60
60
60
C0
ENDCHAR
STARTCHAR florin
ENCODING 402
SWIDTH 500 0
DWIDTH 7 0
BBX 6 11 0 -2
BITMAP
1C
30
30
78
30
30
30
30
30
30
E0
ENDCHAR
STARTCHAR uni0193
ENCODING 403
SWIDTH 500 0
DWIDTH 7 0
BBX 7 10 0 0
BITMAP
02
7C
C0
C0
C0
DC
CC
CC
CC
78
ENDCHAR
STARTCHAR uni0194
ENCODING 404
SWIDTH 1000 0
DWIDTH 7 0
BBX 6 9 0 0
BITMAP
CC
CC
78
30
78
CC
CC
CC
78
ENDCHAR
STARTCHAR uni0195
ENCODING 405
SWIDTH 500 0
DWIDTH 7 0
BBX 7 9 0 0
BITMAP
C0
C0
E0
F6
D6
D6
D6
DE
CC
ENDCHAR
STARTCHAR uni0196
ENCODING 406
SWIDTH 500 0
DWIDTH 7 0
BBX 6 9 0 0
BITMAP
F0
60
60
60
60
60
60
60
3C
ENDCHAR
STARTCHAR uni0197
ENCODING 407
SWIDTH 500 0
DWIDTH 7 0
BBX 6 9 0 0
BITMAP
FC
30
30
30
78
30
30
30
FC
ENDCHAR
STARTCHAR uni0198
ENCODING 408
SWIDTH 500 0
DWIDTH 7 0
BBX 7 11 0 0
BITMAP
06
08
CC
D8
F0
E0
C0
E0
F0
D8
CC
ENDCHAR
STARTCHAR uni0199
ENCODING 409
SWIDTH 1000 0
DWIDTH 7 0
BBX 7 10 0 0
BITMAP
C0
C6
C8
CC
D8
F0
E0
F0
D8
CC
ENDCHAR
STARTCHAR uni019A
ENCODING 410
SWIDTH 500 0
DWIDTH 7 0
BBX 4 9 1 0
BITMAP
E0
60
60
60
F0
60
60
60
30
ENDCHAR
STARTCHAR uni019B
ENCODING 411
SWIDTH 500 0
DWIDTH 7 0
BBX 6 9 0 0
BITMAP
C0
60
F8
30
30
78
78
CC
CC
ENDCHAR
STARTCHAR uni019C
ENCODING 412
SWIDTH 500 0
DWIDTH 7 0
BBX 6 9 0 0
BITMAP
CC
CC
CC
CC
FC
FC
FC
FC
7C
ENDCHAR
STARTCHAR uni019D
ENCODING 413
SWIDTH 500 0
DWIDTH 7 0
BBX 7 11 0 -2
BITMAP
66
66
76
76
7E
6E
6E
66
66
20
C0
ENDCHAR
STARTCHAR uni019E
ENCODING 414
SWIDTH 500 0
DWIDTH 7 0
BBX 6 9 0 -2
BITMAP
F8
CC
CC
CC
CC
CC
CC
0C
0C
ENDCHAR
STARTCHAR uni019F
ENCODING 415
SWIDTH 500 0
DWIDTH 7 0
BBX 6 9 0 0
BITMAP
78
CC
CC
CC
FC
CC
CC
CC
78
ENDCHAR
STARTCHAR Ohorn
ENCODING 416
SWIDTH 500 0
DWIDTH 7 0
BBX 7 10 0 0
BITMAP
02
7A
CC
CC
CC
CC
CC
CC
CC
78
ENDCHAR
STARTCHAR ohorn
ENCODING 417
SWIDTH 500 0
DWIDTH 7 0
BBX 7 8 0 0
BITMAP
02
7A
CC
CC
CC
CC
CC
78
ENDCHAR
STARTCHAR uni01A2
ENCODING 418
SWIDTH 500 0
DWIDTH 7 0
BBX 7 9 0 0
BITMAP
6C
FE
DA
DA
DA
DA
DA
DA
72
ENDCHAR
STARTCHAR uni01A3
ENCODING 419
SWIDTH 500 0
DWIDTH 7 0
BBX 7 9 0 -2
BITMAP
6C
FE
DA
DA
DA
DA
72
02
02
ENDCHAR
STARTCHAR uni01A4
ENCODING 420
SWIDTH 500 0
DWIDTH 7 0
BBX 7 11 0 0
BITMAP
C0
20
7C
66
66
66
7C
60
60
60
60
ENDCHAR
STARTCHAR uni01A5
ENCODING 421
SWIDTH 500 0
DWIDTH 7 0
BBX 7 11 0 -2
BITMAP
C0
20
7C
66
66
66
66
66
7C
60
60
ENDCHAR
STARTCHAR uni01A6
ENCODING 422
SWIDTH 500 0
DWIDTH 7 0
BBX 6 10 0 -1
BITMAP
C0
F8
CC
CC
CC
F8
E0
F0
D8
0C
ENDCHAR
STARTCHAR uni01A7
ENCODING 423
SWIDTH 500 0
DWIDTH 7 0
BBX 6 9 0 0
BITMAP
F8
0C
0C
0C
78
C0
C0
C0
7C
ENDCHAR
STARTCHAR uni01A8
ENCODING 424
SWIDTH 500 0
DWIDTH 7 0
BBX 6 7 0 0
BITMAP
F8
0C
0C
78
C0
C0
7C
ENDCHAR
STARTCHAR uni01A9
ENCODING 425
SWIDTH 500 0
DWIDTH 7 0
BBX 6 9 0 0
BITMAP
FC
C0
60
30
18
30
60
C0
FC
ENDCHAR
STARTCHAR uni01AA
ENCODING 426
SWIDTH 538 0
DWIDTH 7 0
BBX 6 11 0 -2
BITMAP
70
D8
D8
78
18
18
18
18
18
18
0C
ENDCHAR
STARTCHAR uni01AB
ENCODING 427
SWIDTH 1000 0
DWIDTH 7 0
BBX 5 11 1 -2
BITMAP
C0
C0
F8
C0
C0
C0
C0
C0
78
18
30
ENDCHAR
STARTCHAR uni01AC
ENCODING 428
SWIDTH 500 0
DWIDTH 7 0
BBX 7 9 0 0
BITMAP
7E
D8
18
18
18
18
18
18
18
ENDCHAR
STARTCHAR uni01AD
ENCODING 429
SWIDTH 500 0
DWIDTH 7 0
BBX 5 10 1 0
BITMAP
60
C0
C0
F8
C0
C0
C0
C0
C0
78
ENDCHAR
STARTCHAR uni01AE
ENCODING 430
SWIDTH 500 0
DWIDTH 7 0
BBX 6 10 0 -1
BITMAP
FC
30
30
30
30
30
30
30
30
1C
ENDCHAR
STARTCHAR Uhorn
ENCODING 431
SWIDTH 1000 0
DWIDTH 7 0
BBX 7 10 0 0
BITMAP
06
CC
CC
CC
CC
CC
CC
CC
CC
78
ENDCHAR
STARTCHAR uhorn
ENCODING 432
SWIDTH 500 0
DWIDTH 7 0
BBX 7 8 0 0
BITMAP
06
CC
CC
CC
CC
CC
CC
7C
ENDCHAR
STARTCHAR uni01B1
ENCODING 433
SWIDTH 500 0
DWIDTH 7 0
BBX 6 9 0 0
BITMAP
CC
48
CC
CC
CC
CC
CC
CC
78
ENDCHAR
STARTCHAR uni01B2
ENCODING 434
SWIDTH 500 0
DWIDTH 7 0
BBX 7 10 0 0
BITMAP
06
CC
CC
CC
78
78
78
30
30
30
ENDCHAR
STARTCHAR uni01B3
ENCODING 435
SWIDTH 1000 0
DWIDTH 7 0
BBX 7 10 0 0
BITMAP
06
CC
CC
78
78
30
30
30
30
30
ENDCHAR
STARTCHAR uni01B4
ENCODING 436
SWIDTH 1000 0
DWIDTH 7 0
BBX 7 11 0 -2
BITMAP
06
08
CC
CC
CC
CC
CC
CC
7C
0C
78
ENDCHAR
STARTCHAR uni01B5
ENCODING 437
SWIDTH 500 0
DWIDTH 7 0
BBX 6 9 0 0
BITMAP
FC
0C
18
18
FC
60
60
C0
FC
ENDCHAR
STARTCHAR uni01B6
ENCODING 438
SWIDTH 500 0
DWIDTH 7 0
BBX 6 7 0 0
BITMAP
FC
0C
18
FC
60
C0
FC
ENDCHAR
STARTCHAR uni01B7
ENCODING 439
SWIDTH 500 0
DWIDTH 7 0
BBX 6 9 0 0
BITMAP
FC
0C
18
30
78
0C
0C
0C
F8
ENDCHAR
STARTCHAR uni01B8
ENCODING 440
SWIDTH 500 0
DWIDTH 7 0
BBX 6 9 0 0
BITMAP
FC
C0
60
30
78
C0
C0
C0
7C
ENDCHAR
STARTCHAR uni01B9
ENCODING 441
SWIDTH 500 0
DWIDTH 7 0
BBX 6 9 0 -2
BITMAP
FC
C0
60
30
78
C0
C0
C0
7C
ENDCHAR
STARTCHAR uni01BA
ENCODING 442
SWIDTH 500 0
DWIDTH 7 0
BBX 7 9 0 -2
BITMAP
7E
06
06
1C
06
06
7C
80
60
ENDCHAR
STARTCHAR uni01BB
ENCODING 443
SWIDTH 500 0
DWIDTH 7 0
BBX 6 9 0 0
BITMAP
F8
0C
0C
18
FC
60
C0
C0
FC
ENDCHAR
STARTCHAR uni01BC
ENCODING 444
SWIDTH 500 0
DWIDTH 7 0
BBX 7 9 0 0
BITMAP
FE
60
60
7C
06
06
06
06
7C
ENDCHAR
STARTCHAR uni01BD
ENCODING 445
SWIDTH 500 0
DWIDTH 7 0
BBX 7 7 0 0
BITMAP
FE
60
60
7C
06
06
7C
ENDCHAR
STARTCHAR uni01BE
ENCODING 446
SWIDTH 500 0
DWIDTH 7 0
BBX 6 9 0 0
BITMAP
C0
F8
C0
60
38
0C
0C
0C
F8
ENDCHAR
STARTCHAR uni01BF
ENCODING 447
SWIDTH 500 0
DWIDTH 7 0
BBX 6 9 0 -2
BITMAP
F8
CC
CC
CC
D8
F0
C0
C0
C0
ENDCHAR
STARTCHAR uni01C0
ENCODING 448
SWIDTH 500 0
DWIDTH 7 0
BBX 2 9 2 0
BITMAP
C0
C0
C0
C0
C0
C0
C0
C0
C0
ENDCHAR
STARTCHAR uni01C1
ENCODING 449
SWIDTH 500 0
DWIDTH 7 0
BBX 5 9 1 0
BITMAP
D8
D8
D8
D8
D8
D8
D8
D8
D8
ENDCHAR
STARTCHAR uni01C2
ENCODING 450
SWIDTH 500 0
DWIDTH 7 0
BBX 6 9 0 0
BITMAP
30
30
30
FC
30
FC
30
30
30
ENDCHAR
STARTCHAR uni01C3
ENCODING 451
SWIDTH 500 0
DWIDTH 7 0
BBX 2 9 2 0
BITMAP
C0
C0
C0
C0
C0
C0
00
C0
C0
ENDCHAR
STARTCHAR uni01C4
ENCODING 452
SWIDTH 500 0
DWIDTH 7 0
BBX 7 11 0 0
BITMAP
0A
04
EE
D6
D6
D6
DC
DC
DC
DC
EE
ENDCHAR
STARTCHAR uni01C5
ENCODING 453
SWIDTH 500 0
DWIDTH 7 0
BBX 7 10 0 0
BITMAP
0A
E4
D0
DE
D6
D6
DE
DC
DC
EE
ENDCHAR
STARTCHAR uni01C6
ENCODING 454
SWIDTH 500 0
DWIDTH 7 0
BBX 7 10 0 0
BITMAP
0A
14
10
7E
D6
D6
DE
DC
DC
7E
ENDCHAR
STARTCHAR uni01C7
ENCODING 455
SWIDTH 500 0
DWIDTH 7 0
BBX 6 9 0 0
BITMAP
DC
CC
CC
CC
CC
CC
CC
CC
F8
ENDCHAR
STARTCHAR uni01C8
ENCODING 456
SWIDTH 1000 0
DWIDTH 7 0
BBX 6 12 0 -2
BITMAP
0C
CC
C0
DC
CC
CC
CC
CC
CC
FC
0C
38
ENDCHAR
STARTCHAR uni01C9
ENCODING 457
SWIDTH 500 0
DWIDTH 7 0
BBX 6 12 0 -2
BITMAP
0C
EC
60
7C
6C
6C
6C
6C
6C
3C
0C
38
ENDCHAR
STARTCHAR uni01CA
ENCODING 458
SWIDTH 500 0
DWIDTH 7 0
BBX 7 9 0 0
BITMAP
E6
F6
D6
D6
D6
D6
D6
D6
DC
ENDCHAR
STARTCHAR uni01CB
ENCODING 459
SWIDTH 500 0
DWIDTH 7 0
BBX 7 12 0 -2
BITMAP
06
E6
F0
D6
D6
D6
D6
D6
D6
D6
06
1C
ENDCHAR
STARTCHAR uni01CC
ENCODING 460
SWIDTH 500 0
DWIDTH 7 0
BBX 7 12 0 -2
BITMAP
06
06
00
EE
D6
D6
D6
D6
D6
D6
06
1C
ENDCHAR
STARTCHAR uni01CD
ENCODING 461
SWIDTH 500 0
DWIDTH 7 0
BBX 6 11 0 0
BITMAP
58
30
00
78
CC
CC
FC
CC
CC
CC
CC
ENDCHAR
STARTCHAR uni01CE
ENCODING 462
SWIDTH 500 0
DWIDTH 7 0
BBX 6 10 0 0
BITMAP
58
30
00
78
0C
0C
7C
CC
CC
7C
ENDCHAR
STARTCHAR uni01CF
ENCODING 463
SWIDTH 500 0
DWIDTH 7 0
BBX 6 11 0 0
BITMAP
58
30
00
FC
30
30
30
30
30
30
FC
ENDCHAR
STARTCHAR uni01D0
ENCODING 464
SWIDTH 500 0
DWIDTH 7 0
BBX 4 10 1 0
BITMAP
B0
60
00
E0
60
60
60
60
60
60
ENDCHAR
STARTCHAR uni01D1
ENCODING 465
SWIDTH 500 0
DWIDTH 7 0
BBX 6 11 0 0
BITMAP
58
30
00
78
CC
CC
CC
CC
CC
CC
78
ENDCHAR
STARTCHAR uni01D2
ENCODING 466
SWIDTH 500 0
DWIDTH 7 0
BBX 6 10 0 0
BITMAP
58
30
00
78
CC
CC
CC
CC
CC
78
ENDCHAR
STARTCHAR uni01D3
ENCODING 467
SWIDTH 500 0
DWIDTH 7 0
BBX 6 11 0 0
BITMAP
58
30
00
CC
CC
CC
CC
CC
CC
CC
78
ENDCHAR
STARTCHAR uni01D4
ENCODING 468
SWIDTH 500 0
DWIDTH 7 0
BBX 6 10 0 0
BITMAP
58
30
00
CC
CC
CC
CC
CC
CC
7C
ENDCHAR
STARTCHAR uni01D5
ENCODING 469
SWIDTH 500 0
DWIDTH 7 0
BBX 6 11 0 0
BITMAP
78
00
6C
00
CC
CC
CC
CC
CC
CC
78
ENDCHAR
STARTCHAR uni01D6
ENCODING 470
SWIDTH 500 0
DWIDTH 7 0
BBX 6 11 0 0
BITMAP
78
00
6C
00
CC
CC
CC
CC
CC
CC
7C
ENDCHAR
STARTCHAR uni01D7
ENCODING 471
SWIDTH 538 0
DWIDTH 7 0
BBX 6 11 0 0
BITMAP
18
30
00
6C
00
CC
CC
CC
CC
CC
78
ENDCHAR
STARTCHAR uni01D8
ENCODING 472
SWIDTH 538 0
DWIDTH 7 0
BBX 6 11 0 0
BITMAP
18
30
00
6C
00
CC
CC
CC
CC
CC
7C
ENDCHAR
STARTCHAR uni01D9
ENCODING 473
SWIDTH 538 0
DWIDTH 7 0
BBX 6 11 0 0
BITMAP
58
30
00
6C
00
CC
CC
CC
CC
CC
78
ENDCHAR
STARTCHAR uni01DA
ENCODING 474
SWIDTH 538 0
DWIDTH 7 0
BBX 6 11 0 0
BITMAP
58
30
00
6C
00
CC
CC
CC
CC
CC
7C
ENDCHAR
STARTCHAR uni01DB
ENCODING 475
SWIDTH 538 0
DWIDTH 7 0
BBX 6 11 0 0
BITMAP
60
30
00
6C
00
CC
CC
CC
CC
CC
78
ENDCHAR
STARTCHAR uni01DC
ENCODING 476
SWIDTH 538 0
DWIDTH 7 0
BBX 6 11 0 0
BITMAP
60
30
00
6C
00
CC
CC
CC
CC
CC
7C
ENDCHAR
STARTCHAR uni01DD
ENCODING 477
SWIDTH 500 0
DWIDTH 7 0
BBX 6 7 0 0
BITMAP
F8
0C
0C
FC
CC
CC
78
ENDCHAR
STARTCHAR uni01DE
ENCODING 478
SWIDTH 500 0
DWIDTH 7 0
BBX 6 11 0 0
BITMAP
78
00
6C
00
78
CC
CC
FC
CC
CC
CC
ENDCHAR
STARTCHAR uni01DF
ENCODING 479
SWIDTH 500 0
DWIDTH 7 0
BBX 6 11 0 0
BITMAP
78
00
6C
00
78
0C
0C
7C
CC
CC
7C
ENDCHAR
STARTCHAR uni01E0
ENCODING 480
SWIDTH 500 0
DWIDTH 7 0
BBX 6 11 0 0
BITMAP
78
00
30
00
78
CC
CC
FC
CC
CC
CC
ENDCHAR
STARTCHAR uni01E1
ENCODING 481
SWIDTH 500 0
DWIDTH 7 0
BBX 6 11 0 0
BITMAP
78
00
30
00
78
0C
0C
7C
CC
CC
7C
ENDCHAR
STARTCHAR uni01E2
ENCODING 482
SWIDTH 1000 0
DWIDTH 7 0
BBX 7 11 0 0
BITMAP
3C
00
7E
D8
D8
FE
D8
D8
D8
D8
DE
ENDCHAR
STARTCHAR uni01E3
ENCODING 483
SWIDTH 500 0
DWIDTH 7 0
BBX 7 9 0 0
BITMAP
3C
00
7C
1A
1A
7C
D8
D8
7E
ENDCHAR
STARTCHAR uni01E4
ENCODING 484
SWIDTH 500 0
DWIDTH 7 0
BBX 7 9 0 0
BITMAP
7C
C0
C0
C0
DC
CC
DE
CC
78
ENDCHAR
STARTCHAR uni01E5
ENCODING 485
SWIDTH 500 0
DWIDTH 7 0
BBX 7 9 0 -2
BITMAP
7C
CC
CC
DE
CC
CC
7C
0C
78
ENDCHAR
STARTCHAR Gcaron
ENCODING 486
SWIDTH 500 0
DWIDTH 7 0
BBX 6 11 0 0
BITMAP
58
30
00
7C
C0
C0
DC
CC
CC
CC
78
ENDCHAR
STARTCHAR gcaron
ENCODING 487
SWIDTH 500 0
DWIDTH 7 0
BBX 6 12 0 -2
BITMAP
58
30
00
7C
CC
CC
CC
CC
CC
7C
0C
78
ENDCHAR
STARTCHAR uni01E8
ENCODING 488
SWIDTH 500 0
DWIDTH 7 0
BBX 6 11 0 0
BITMAP
58
30
CC
D8
F0
E0
C0
E0
F0
D8
CC
ENDCHAR
STARTCHAR uni01E9
ENCODING 489
SWIDTH 500 0
DWIDTH 7 0
BBX 6 11 0 0
BITMAP
58
30
C0
C0
CC
D8
F0
E0
F0
D8
CC
ENDCHAR
STARTCHAR uni01EA
ENCODING 490
SWIDTH 500 0
DWIDTH 7 0
BBX 6 11 0 -2
BITMAP
78
CC
CC
CC
CC
CC
CC
CC
78
30
1C
ENDCHAR
STARTCHAR uni01EB
ENCODING 491
SWIDTH 500 0
DWIDTH 7 0
BBX 6 9 0 -2
BITMAP
78
CC
CC
CC
CC
CC
78
30
1C
ENDCHAR
STARTCHAR uni01EC
ENCODING 492
SWIDTH 500 0
DWIDTH 7 0
BBX 6 13 0 -2
BITMAP
78
00
78
CC
CC
CC
CC
CC
CC
CC
78
30
1C
ENDCHAR
STARTCHAR uni01ED
ENCODING 493
SWIDTH 500 0
DWIDTH 7 0
BBX 6 11 0 -2
BITMAP
78
00
78
CC
CC
CC
CC
CC
78
30
1C
ENDCHAR
STARTCHAR uni01EE
ENCODING 494
SWIDTH 1000 0
DWIDTH 7 0
BBX 6 11 0 0
BITMAP
58
30
00
FC
0C
18
38
0C
0C
0C
F8
ENDCHAR
STARTCHAR uni01EF
ENCODING 495
SWIDTH 500 0
DWIDTH 7 0
BBX 6 12 0 -2
BITMAP
58
30
00
FC
0C
18
30
78
0C
0C
0C
F8
ENDCHAR
STARTCHAR uni01F0
ENCODING 496
SWIDTH 500 0
DWIDTH 7 0
BBX 5 12 0 -2
BITMAP
58
30
00
70
30
30
30
30
30
30
30
E0
ENDCHAR
STARTCHAR uni01F1
ENCODING 497
SWIDTH 500 0
DWIDTH 7 0
BBX 7 9 0 0
BITMAP
EE
D6
D6
D6
DE
DC
DC
DC
EE
ENDCHAR
STARTCHAR uni01F2
ENCODING 498
SWIDTH 500 0
DWIDTH 7 0
BBX 7 9 0 0
BITMAP
E0
D0
DE
D6
D6
DE
DC
DC
EE
ENDCHAR
STARTCHAR uni01F3
ENCODING 499
SWIDTH 500 0
DWIDTH 7 0
BBX 7 9 0 0
BITMAP
10
10
7E
D6
D6
DE
DC
DC
7E
ENDCHAR
STARTCHAR uni01F4
ENCODING 500
SWIDTH 1000 0
DWIDTH 7 0
BBX 6 11 0 0
BITMAP
18
30
7C
C0
C0
C0
DC
CC
CC
CC
78
ENDCHAR
STARTCHAR uni01F5
ENCODING 501
SWIDTH 500 0
DWIDTH 7 0
BBX 6 12 0 -2
BITMAP
18
30
00
7C
CC
CC
CC
CC
CC
7C
0C
78
ENDCHAR
STARTCHAR uni01F6
ENCODING 502
SWIDTH 500 0
DWIDTH 7 0
BBX 7 9 0 0
BITMAP
D8
D8
DA
DA
FA
DA
DA
DA
CC
ENDCHAR
STARTCHAR uni01F7
ENCODING 503
SWIDTH 500 0
DWIDTH 7 0
BBX 6 11 0 -2
BITMAP
F8
CC
CC
CC
CC
D8
F0
E0
C0
C0
C0
ENDCHAR
STARTCHAR uni01F8
ENCODING 504
SWIDTH 500 0
DWIDTH 7 0
BBX 6 11 0 0
BITMAP
60
30
CC
CC
EC
EC
FC
DC
DC
CC
CC
ENDCHAR
STARTCHAR uni01F9
ENCODING 505
SWIDTH 500 0
DWIDTH 7 0
BBX 6 10 0 0
BITMAP
60
30
00
F8
CC
CC
CC
CC
CC
CC
ENDCHAR
STARTCHAR Aringacute
ENCODING 506
SWIDTH 538 0
DWIDTH 7 0
BBX 7 11 0 0
BITMAP
60
B6
6C
00
78
CC
CC
FC
CC
CC
CC
ENDCHAR
STARTCHAR aringacute
ENCODING 507
SWIDTH 538 0
DWIDTH 7 0
BBX 7 11 0 0
BITMAP
60
B6
6C
00
78
0C
7C
CC
CC
CC
7C
ENDCHAR
STARTCHAR AEacute
ENCODING 508
SWIDTH 500 0
DWIDTH 7 0
BBX 7 11 0 0
BITMAP
18
30
00
7E
D8
D8
FE
D8
D8
D8
DE
ENDCHAR
STARTCHAR aeacute
ENCODING 509
SWIDTH 500 0
DWIDTH 7 0
BBX 7 10 0 0
BITMAP
0C
18
00
7C
1A
1A
7E
D8
D8
7E
ENDCHAR
STARTCHAR Oslashacute
ENCODING 510
SWIDTH 500 0
DWIDTH 7 0
BBX 6 12 0 -1
BITMAP
18
30
78
CC
DC
DC
FC
EC
EC
CC
78
80
ENDCHAR
STARTCHAR oslashacute
ENCODING 511
SWIDTH 500 0
DWIDTH 7 0
BBX 6 11 0 -1
BITMAP
18
30
04
78
CC
DC
FC
EC
CC
78
80
ENDCHAR
STARTCHAR uni0200
ENCODING 512
SWIDTH 500 0
DWIDTH 7 0
BBX 6 11 0 0
BITMAP
D8
6C
00
78
CC
CC
FC
CC
CC
CC
CC
ENDCHAR
STARTCHAR uni0201
ENCODING 513
SWIDTH 500 0
DWIDTH 7 0
BBX 6 10 0 0
BITMAP
D8
6C
00
78
0C
7C
CC
CC
CC
7C
ENDCHAR
STARTCHAR uni0202
ENCODING 514
SWIDTH 500 0
DWIDTH 7 0
BBX 6 11 0 0
BITMAP
78
CC
00
78
CC
CC
FC
CC
CC
CC
CC
ENDCHAR
STARTCHAR uni0203
ENCODING 515
SWIDTH 500 0
DWIDTH 7 0
BBX 6 10 0 0
BITMAP
78
CC
00
78
0C
7C
CC
CC
CC
7C
ENDCHAR
STARTCHAR uni0204
ENCODING 516
SWIDTH 500 0
DWIDTH 7 0
BBX 6 11 0 0
BITMAP
D8
6C
00
FC
C0
C0
F8
C0
C0
C0
FC
ENDCHAR
STARTCHAR uni0205
ENCODING 517
SWIDTH 500 0
DWIDTH 7 0
BBX 6 10 0 0
BITMAP
D8
6C
00
78
CC
CC
FC
C0
C0
7C
ENDCHAR
STARTCHAR uni0206
ENCODING 518
SWIDTH 500 0
DWIDTH 7 0
BBX 6 11 0 0
BITMAP
78
CC
00
FC
C0
C0
F8
C0
C0
C0
FC
ENDCHAR
STARTCHAR uni0207
ENCODING 519
SWIDTH 500 0
DWIDTH 7 0
BBX 6 10 0 0
BITMAP
78
CC
00
78
CC
CC
FC
C0
C0
7C
ENDCHAR
STARTCHAR uni0208
ENCODING 520
SWIDTH 500 0
DWIDTH 7 0
BBX 6 11 0 0
BITMAP
D8
6C
00
FC
30
30
30
30
30
30
FC
ENDCHAR
STARTCHAR uni0209
ENCODING 521
SWIDTH 500 0
DWIDTH 7 0
BBX 6 10 0 0
BITMAP
D8
6C
00
70
30
30
30
30
30
30
ENDCHAR
STARTCHAR uni020A
ENCODING 522
SWIDTH 500 0
DWIDTH 7 0
BBX 6 11 0 0
BITMAP
78
CC
00
FC
30
30
30
30
30
30
FC
ENDCHAR
STARTCHAR uni020B
ENCODING 523
SWIDTH 500 0
DWIDTH 7 0
BBX 6 10 0 0
BITMAP
78
CC
00
70
30
30
30
30
30
30
ENDCHAR
STARTCHAR uni020C
ENCODING 524
SWIDTH 500 0
DWIDTH 7 0
BBX 6 11 0 0
BITMAP
D8
6C
00
78
CC
CC
CC
CC
CC
CC
78
ENDCHAR
STARTCHAR uni020D
ENCODING 525
SWIDTH 500 0
DWIDTH 7 0
BBX 6 10 0 0
BITMAP
D8
6C
00
78
CC
CC
CC
CC
CC
78
ENDCHAR
STARTCHAR uni020E
ENCODING 526
SWIDTH 500 0
DWIDTH 7 0
BBX 6 11 0 0
BITMAP
78
CC
00
78
CC
CC
CC
CC
CC
CC
78
ENDCHAR
STARTCHAR uni020F
ENCODING 527
SWIDTH 500 0
DWIDTH 7 0
BBX 6 10 0 0
BITMAP
78
CC
00
78
CC
CC
CC
CC
CC
78
ENDCHAR
STARTCHAR uni0210
ENCODING 528
SWIDTH 500 0
DWIDTH 7 0
BBX 6 11 0 0
BITMAP
D8
6C
00
F8
CC
CC
F8
E0
F0
D8
CC
ENDCHAR
STARTCHAR uni0211
ENCODING 529
SWIDTH 1000 0
DWIDTH 7 0
BBX 6 10 0 0
BITMAP
D8
6C
00
7C
C0
C0
C0
C0
C0
C0
ENDCHAR
STARTCHAR uni0212
ENCODING 530
SWIDTH 500 0
DWIDTH 7 0
BBX 6 11 0 0
BITMAP
78
CC
00
F8
CC
CC
F8
E0
F0
D8
CC
ENDCHAR
STARTCHAR uni0213
ENCODING 531
SWIDTH 500 0
DWIDTH 7 0
BBX 6 10 0 0
BITMAP
78
CC
00
7C
C0
C0
C0
C0
C0
C0
ENDCHAR
STARTCHAR uni0214
ENCODING 532
SWIDTH 500 0
DWIDTH 7 0
BBX 6 11 0 0
BITMAP
D8
6C
00
CC
CC
CC
CC
CC
CC
CC
78
ENDCHAR
STARTCHAR uni0215
ENCODING 533
SWIDTH 500 0
DWIDTH 7 0
BBX 6 10 0 0
BITMAP
D8
6C
00
CC
CC
CC
CC
CC
CC
7C
ENDCHAR
STARTCHAR uni0216
ENCODING 534
SWIDTH 500 0
DWIDTH 7 0
BBX 6 11 0 0
BITMAP
78
CC
00
CC
CC
CC
CC
CC
CC
CC
78
ENDCHAR
STARTCHAR uni0217
ENCODING 535
SWIDTH 500 0
DWIDTH 7 0
BBX 6 10 0 0
BITMAP
78
CC
00
CC
CC
CC
CC
CC
CC
7C
ENDCHAR
STARTCHAR Scommaaccent
ENCODING 536
SWIDTH 500 0
DWIDTH 7 0
BBX 6 11 0 -2
BITMAP
7C
C0
C0
C0
78
0C
0C
0C
F8
30
60
ENDCHAR
STARTCHAR scommaaccent
ENCODING 537
SWIDTH 500 0
DWIDTH 7 0
BBX 6 9 0 -2
BITMAP
7C
C0
C0
78
0C
0C
F8
30
60
ENDCHAR
STARTCHAR uni021A
ENCODING 538
SWIDTH 500 0
DWIDTH 7 0
BBX 6 11 0 -2
BITMAP
FC
30
30
30
30
30
30
30
30
30
60
ENDCHAR
STARTCHAR uni021B
ENCODING 539
SWIDTH 500 0
DWIDTH 7 0
BBX 5 11 1 -2
BITMAP
C0
C0
F0
C0
C0
C0
C0
C0
78
60
C0
ENDCHAR
STARTCHAR uni021C
ENCODING 540
SWIDTH 500 0
DWIDTH 7 0
BBX 6 10 0 -1
BITMAP
F8
0C
0C
0C
38
0C
0C
0C
38
E0
ENDCHAR
STARTCHAR uni021D
ENCODING 541
SWIDTH 500 0
DWIDTH 7 0
BBX 6 9 0 -2
BITMAP
78
0C
0C
38
0C
0C
0C
38
E0
ENDCHAR
STARTCHAR uni021E
ENCODING 542
SWIDTH 500 0
DWIDTH 7 0
BBX 6 11 0 0
BITMAP
58
30
00
CC
CC
CC
FC
CC
CC
CC
CC
ENDCHAR
STARTCHAR uni021F
ENCODING 543
SWIDTH 1000 0
DWIDTH 7 0
BBX 6 11 0 0
BITMAP
58
30
C0
C0
F8
CC
CC
CC
CC
CC
CC
ENDCHAR
STARTCHAR uni0220
ENCODING 544
SWIDTH 500 0
DWIDTH 7 0
BBX 6 11 0 -2
BITMAP
F8
CC
CC
CC
CC
CC
CC
CC
CC
0C
0C
ENDCHAR
STARTCHAR uni0221
ENCODING 545
SWIDTH 500 0
DWIDTH 7 0
BBX 7 11 0 -2
BITMAP
10
10
70
D0
D0
D0
DC
DA
7C
18
18
ENDCHAR
STARTCHAR uni0222
ENCODING 546
SWIDTH 583 0
DWIDTH 7 0
BBX 6 9 0 0
BITMAP
CC
CC
CC
78
CC
CC
CC
CC
78
ENDCHAR
STARTCHAR uni0223
ENCODING 547
SWIDTH 583 0
DWIDTH 7 0
BBX 6 7 0 0
BITMAP
CC
CC
78
CC
CC
CC
78
ENDCHAR
STARTCHAR uni0224
ENCODING 548
SWIDTH 500 0
DWIDTH 7 0
BBX 6 11 0 -2
BITMAP
FC
0C
18
18
30
60
60
C0
FC
0C
18
ENDCHAR
STARTCHAR uni0225
ENCODING 549
SWIDTH 500 0
DWIDTH 7 0
BBX 6 9 0 -2
BITMAP
FC
0C
18
30
60
C0
FC
0C
18
ENDCHAR
STARTCHAR uni0226
ENCODING 550
SWIDTH 500 0
DWIDTH 7 0
BBX 6 11 0 0
BITMAP
30
00
78
CC
CC
CC
FC
CC
CC
CC
CC
ENDCHAR
STARTCHAR uni0227
ENCODING 551
SWIDTH 500 0
DWIDTH 7 0
BBX 6 9 0 0
BITMAP
30
00
78
0C
7C
CC
CC
CC
7C
ENDCHAR
STARTCHAR uni0228
ENCODING 552
SWIDTH 500 0
DWIDTH 7 0
BBX 6 11 0 -2
BITMAP
FC
C0
C0
C0
F8
C0
C0
C0
FC
30
E0
ENDCHAR
STARTCHAR uni0229
ENCODING 553
SWIDTH 500 0
DWIDTH 7 0
BBX 6 9 0 -2
BITMAP
78
CC
CC
FC
C0
C0
7C
30
E0
ENDCHAR
STARTCHAR uni022A
ENCODING 554
SWIDTH 500 0
DWIDTH 7 0
BBX 6 11 0 0
BITMAP
78
00
6C
00
78
CC
CC
CC
CC
CC
78
ENDCHAR
STARTCHAR uni022B
ENCODING 555
SWIDTH 500 0
DWIDTH 7 0
BBX 6 10 0 0
BITMAP
78
00
6C
00
78
CC
CC
CC
CC
78
ENDCHAR
STARTCHAR uni022C
ENCODING 556
SWIDTH 538 0
DWIDTH 7 0
BBX 6 11 0 0
BITMAP
78
00
74
D8
78
CC
CC
CC
CC
CC
78
ENDCHAR
STARTCHAR uni022D
ENCODING 557
SWIDTH 538 0
DWIDTH 7 0
BBX 6 11 0 0
BITMAP
78
00
74
D8
00
78
CC
CC
CC
CC
78
ENDCHAR
STARTCHAR uni022E
ENCODING 558
SWIDTH 500 0
DWIDTH 7 0
BBX 6 11 0 0
BITMAP
30
00
78
CC
CC
CC
CC
CC
CC
CC
78
ENDCHAR
STARTCHAR uni022F
ENCODING 559
SWIDTH 500 0
DWIDTH 7 0
BBX 6 9 0 0
BITMAP
30
00
78
CC
CC
CC
CC
CC
78
ENDCHAR
STARTCHAR uni0230
ENCODING 560
SWIDTH 500 0
DWIDTH 7 0
BBX 6 11 0 0
BITMAP
78
00
30
00
78
CC
CC
CC
CC
CC
78
ENDCHAR
STARTCHAR uni0231
ENCODING 561
SWIDTH 500 0
DWIDTH 7 0
BBX 6 10 0 0
BITMAP
78
00
30
00
78
CC
CC
CC
CC
78
ENDCHAR
STARTCHAR uni0232
ENCODING 562
SWIDTH 500 0
DWIDTH 7 0
BBX 6 11 0 0
BITMAP
78
00
CC
CC
78
78
30
30
30
30
30
ENDCHAR
STARTCHAR uni0233
ENCODING 563
SWIDTH 500 0
DWIDTH 7 0
BBX 6 11 0 -2
BITMAP
78
00
CC
CC
CC
CC
CC
CC
7C
0C
78
ENDCHAR
STARTCHAR uni0234
ENCODING 564
SWIDTH 500 0
DWIDTH 7 0
BBX 6 11 0 -2
BITMAP
E0
60
60
60
60
60
78
74
38
30
30
ENDCHAR
STARTCHAR uni0235
ENCODING 565
SWIDTH 500 0
DWIDTH 7 0
BBX 7 11 0 -2
BITMAP
E0
D0
D0
D0
D0
D0
DC
DA
DC
18
18
ENDCHAR
STARTCHAR uni0236
ENCODING 566
SWIDTH 500 0
DWIDTH 7 0
BBX 6 11 0 -2
BITMAP
C0
C0
F0
C0
C0
C0
C8
F4
78
30
30
ENDCHAR
STARTCHAR uni0237
ENCODING 567
SWIDTH 500 0
DWIDTH 7 0
BBX 4 9 0 -2
BITMAP
70
30
30
30
30
30
30
30
E0
ENDCHAR
STARTCHAR uni0238
ENCODING 568
SWIDTH 500 0
DWIDTH 7 0
BBX 6 9 0 0
BITMAP
30
30
78
B4
B4
B4
B4
B4
78
ENDCHAR
STARTCHAR uni0239
ENCODING 569
SWIDTH 500 0
DWIDTH 7 0
BBX 6 9 0 -2
BITMAP
78
B4
B4
B4
B4
B4
78
30
30
ENDCHAR
STARTCHAR uni023A
ENCODING 570
SWIDTH 500 0
DWIDTH 7 0
BBX 6 11 0 -1
BITMAP
04
78
CC
DC
DC
FC
EC
EC
CC
CC
80
ENDCHAR
STARTCHAR uni023B
ENCODING 571
SWIDTH 500 0
DWIDTH 7 0
BBX 6 11 0 -1
BITMAP
08
7C
C8
C8
D0
D0
D0
D0
E0
7C
20
ENDCHAR
STARTCHAR uni023C
ENCODING 572
SWIDTH 500 0
DWIDTH 7 0
BBX 6 9 0 -1
BITMAP
08
7C
C8
D0
D0
D0
E0
7C
20
ENDCHAR
STARTCHAR uni023D
ENCODING 573
SWIDTH 500 0
DWIDTH 7 0
BBX 7 9 0 0
BITMAP
60
60
60
F0
60
60
60
60
7E
ENDCHAR
STARTCHAR uni023E
ENCODING 574
SWIDTH 500 0
DWIDTH 7 0
BBX 6 9 0 0
BITMAP
FC
30
30
34
38
30
30
70
B0
ENDCHAR
STARTCHAR uni023F
ENCODING 575
SWIDTH 500 0
DWIDTH 7 0
BBX 6 9 0 -2
BITMAP
7C
C0
C0
78
0C
0C
F8
60
38
ENDCHAR
STARTCHAR uni0240
ENCODING 576
SWIDTH 500 0
DWIDTH 7 0
BBX 6 9 0 -2
BITMAP
FC
0C
18
30
60
C0
C0
60
38
ENDCHAR
STARTCHAR uni0241
ENCODING 577
SWIDTH 500 0
DWIDTH 7 0
BBX 5 9 1 0
BITMAP
F0
18
18
30
60
60
60
60
60
ENDCHAR
STARTCHAR uni0242
ENCODING 578
SWIDTH 500 0
DWIDTH 7 0
BBX 5 7 1 0
BITMAP
F0
18
18
30
60
60
60
ENDCHAR
STARTCHAR uni0243
ENCODING 579
SWIDTH 500 0
DWIDTH 7 0
BBX 7 9 0 0
BITMAP
7C
66
66
66
7C
66
F6
66
7C
ENDCHAR
STARTCHAR uni0244
ENCODING 580
SWIDTH 500 0
DWIDTH 7 0
BBX 7 9 0 0
BITMAP
CC
CC
CC
FE
CC
CC
CC
CC
78
ENDCHAR
STARTCHAR uni0245
ENCODING 581
SWIDTH 500 0
DWIDTH 7 0
BBX 6 9 0 0
BITMAP
30
30
30
78
78
78
CC
CC
CC
ENDCHAR
STARTCHAR uni0246
ENCODING 582
SWIDTH 500 0
DWIDTH 7 0
BBX 6 11 0 -1
BITMAP
08
FC
C8
C8
D0
F8
D0
D0
E0
FC
20
ENDCHAR
STARTCHAR uni0247
ENCODING 583
SWIDTH 500 0
DWIDTH 7 0
BBX 6 9 0 -1
BITMAP
08
78
CC
DC
FC
D0
E0
7C
20
ENDCHAR
STARTCHAR uni0248
ENCODING 584
SWIDTH 500 0
DWIDTH 7 0
BBX 6 9 0 0
BITMAP
3C
18
18
3C
18
18
18
18
F0
ENDCHAR
STARTCHAR uni0249
ENCODING 585
SWIDTH 1000 0
DWIDTH 7 0
BBX 5 12 0 -2
BITMAP
30
30
00
70
30
30
78
30
30
30
30
E0
ENDCHAR
STARTCHAR uni024A
ENCODING 586
SWIDTH 500 0
DWIDTH 7 0
BBX 7 11 0 -2
BITMAP
7C
CC
CC
CC
CC
CC
7C
0C
0C
0C
06
ENDCHAR
STARTCHAR uni024B
ENCODING 587
SWIDTH 1000 0
DWIDTH 7 0
BBX 7 9 0 -2
BITMAP
7C
CC
CC
CC
CC
7C
0C
0C
06
ENDCHAR
STARTCHAR uni024C
ENCODING 588
SWIDTH 1000 0
DWIDTH 7 0
BBX 7 9 0 0
BITMAP
7C
66
66
66
FC
70
78
6C
66
ENDCHAR
STARTCHAR uni024D
ENCODING 589
SWIDTH 1000 0
DWIDTH 7 0
BBX 7 7 0 0
BITMAP
3E
60
60
F8
60
60
60
ENDCHAR
STARTCHAR uni024E
ENCODING 590
SWIDTH 500 0
DWIDTH 7 0
BBX 6 9 0 0
BITMAP
CC
CC
78
78
30
FC
30
30
30
ENDCHAR
STARTCHAR uni024F
ENCODING 591
SWIDTH 500 0
DWIDTH 7 0
BBX 7 9 0 -2
BITMAP
CC
CC
CC
FE
CC
CC
7C
0C
78
ENDCHAR
STARTCHAR uni0250
ENCODING 592
SWIDTH 500 0
DWIDTH 7 0
BBX 6 7 0 0
BITMAP
F8
CC
CC
F8
C0
C0
78
ENDCHAR
STARTCHAR uni0251
ENCODING 593
SWIDTH 500 0
DWIDTH 7 0
BBX 6 7 0 0
BITMAP
74
DC
CC
CC
CC
DC
74
ENDCHAR
STARTCHAR uni0252
ENCODING 594
SWIDTH 500 0
DWIDTH 7 0
BBX 6 7 0 0
BITMAP
B8
EC
CC
CC
CC
EC
B8
ENDCHAR
STARTCHAR uni0253
ENCODING 595
SWIDTH 1000 0
DWIDTH 7 0
BBX 6 11 0 0
BITMAP
70
C0
C0
C0
F8
CC
CC
CC
CC
CC
F8
ENDCHAR
STARTCHAR uni0254
ENCODING 596
SWIDTH 500 0
DWIDTH 7 0
BBX 6 7 0 0
BITMAP
F8
0C
0C
0C
0C
0C
F8
ENDCHAR
STARTCHAR uni0255
ENCODING 597
SWIDTH 500 0
DWIDTH 7 0
BBX 6 9 0 -2
BITMAP
7C
C0
C0
C0
D8
F4
78
30
30
ENDCHAR
STARTCHAR uni0256
ENCODING 598
SWIDTH 1000 0
DWIDTH 7 0
BBX 7 11 0 -2
BITMAP
0C
0C
7C
CC
CC
CC
CC
CC
7C
0C
06
ENDCHAR
STARTCHAR uni0257
ENCODING 599
SWIDTH 1000 0
DWIDTH 7 0
BBX 7 11 0 0
BITMAP
06
0C
0C
0C
7C
CC
CC
CC
CC
CC
7C
ENDCHAR
STARTCHAR uni0258
ENCODING 600
SWIDTH 500 0
DWIDTH 7 0
BBX 6 7 0 0
BITMAP
78
CC
CC
FC
0C
0C
F8
ENDCHAR
STARTCHAR uni0259
ENCODING 601
SWIDTH 500 0
DWIDTH 7 0
BBX 6 7 0 0
BITMAP
F8
0C
0C
FC
CC
CC
78
ENDCHAR
STARTCHAR uni025A
ENCODING 602
SWIDTH 500 0
DWIDTH 7 0
BBX 7 7 0 0
BITMAP
F4
1A
38
6C
CC
CC
78
ENDCHAR
STARTCHAR uni025B
ENCODING 603
SWIDTH 500 0
DWIDTH 7 0
BBX 6 7 0 0
BITMAP
7C
C0
C0
78
C0
C0
7C
ENDCHAR
STARTCHAR uni025C
ENCODING 604
SWIDTH 500 0
DWIDTH 7 0
BBX 6 7 0 0
BITMAP
F8
0C
0C
78
0C
0C
F8
ENDCHAR
STARTCHAR uni025D
ENCODING 605
SWIDTH 500 0
DWIDTH 7 0
BBX 7 7 0 0
BITMAP
F4
1A
18
70
18
18
F0
ENDCHAR
STARTCHAR uni025E
ENCODING 606
SWIDTH 500 0
DWIDTH 7 0
BBX 6 7 0 0
BITMAP
78
CC
CC
D8
CC
CC
78
ENDCHAR
STARTCHAR uni025F
ENCODING 607
SWIDTH 1000 0
DWIDTH 7 0
BBX 5 9 0 -2
BITMAP
70
30
30
78
30
30
30
30
E0
ENDCHAR
STARTCHAR uni0260
ENCODING 608
SWIDTH 1000 0
DWIDTH 7 0
BBX 7 10 0 -2
BITMAP
06
7C
CC
CC
CC
CC
CC
7C
0C
78
ENDCHAR
STARTCHAR uni0261
ENCODING 609
SWIDTH 500 0
DWIDTH 7 0
BBX 6 9 0 -2
BITMAP
7C
CC
CC
CC
CC
CC
7C
0C
78
ENDCHAR
STARTCHAR uni0262
ENCODING 610
SWIDTH 500 0
DWIDTH 7 0
BBX 6 7 0 0
BITMAP
7C
C0
C0
DC
CC
CC
78
ENDCHAR
STARTCHAR uni0263
ENCODING 611
SWIDTH 500 0
DWIDTH 7 0
BBX 6 7 0 0
BITMAP
CC
78
30
78
CC
CC
78
ENDCHAR
STARTCHAR uni0264
ENCODING 612
SWIDTH 500 0
DWIDTH 7 0
BBX 5 6 1 1
BITMAP
D8
70
70
D8
D8
70
ENDCHAR
STARTCHAR uni0265
ENCODING 613
SWIDTH 500 0
DWIDTH 7 0
BBX 6 9 0 -2
BITMAP
CC
CC
CC
CC
CC
CC
7C
0C
0C
ENDCHAR
STARTCHAR uni0266
ENCODING 614
SWIDTH 1000 0
DWIDTH 7 0
BBX 6 11 0 0
BITMAP
70
C0
C0
C0
F8
CC
CC
CC
CC
CC
CC
ENDCHAR
STARTCHAR uni0267
ENCODING 615
SWIDTH 1000 0
DWIDTH 7 0
BBX 6 13 0 -2
BITMAP
70
C0
C0
C0
F8
CC
CC
CC
CC
CC
CC
0C
38
ENDCHAR
STARTCHAR uni0268
ENCODING 616
SWIDTH 1000 0
DWIDTH 7 0
BBX 4 10 1 0
BITMAP
60
60
00
E0
60
60
F0
60
60
60
ENDCHAR
STARTCHAR uni0269
ENCODING 617
SWIDTH 1000 0
DWIDTH 7 0
BBX 5 7 1 0
BITMAP
E0
60
60
60
60
60
38
ENDCHAR
STARTCHAR uni026A
ENCODING 618
SWIDTH 1000 0
DWIDTH 7 0
BBX 6 7 0 0
BITMAP
FC
30
30
30
30
30
FC
ENDCHAR
STARTCHAR uni026B
ENCODING 619
SWIDTH 500 0
DWIDTH 7 0
BBX 6 9 0 0
BITMAP
70
30
30
74
B4
B8
30
30
18
ENDCHAR
STARTCHAR uni026C
ENCODING 620
SWIDTH 500 0
DWIDTH 7 0
BBX 6 9 0 0
BITMAP
70
30
30
70
B0
7C
30
30
18
ENDCHAR
STARTCHAR uni026D
ENCODING 621
SWIDTH 1000 0
DWIDTH 7 0
BBX 5 11 1 -2
BITMAP
E0
60
60
60
60
60
60
60
60
60
38
ENDCHAR
STARTCHAR uni026E
ENCODING 622
SWIDTH 500 0
DWIDTH 7 0
BBX 7 11 0 -2
BITMAP
E0
60
7E
66
6C
78
6C
66
36
06
3C
ENDCHAR
STARTCHAR uni026F
ENCODING 623
SWIDTH 500 0
DWIDTH 7 0
BBX 6 7 0 0
BITMAP
CC
CC
CC
FC
FC
FC
7C
ENDCHAR
STARTCHAR uni0270
ENCODING 624
SWIDTH 500 0
DWIDTH 7 0
BBX 6 9 0 -2
BITMAP
CC
CC
CC
FC
FC
FC
7C
0C
0C
ENDCHAR
STARTCHAR uni0271
ENCODING 625
SWIDTH 500 0
DWIDTH 7 0
BBX 6 9 0 -2
BITMAP
F8
FC
FC
FC
CC
CC
CC
0C
38
ENDCHAR
STARTCHAR uni0272
ENCODING 626
SWIDTH 500 0
DWIDTH 7 0
BBX 7 9 0 -2
BITMAP
7C
66
66
66
66
66
66
60
C0
ENDCHAR
STARTCHAR uni0273
ENCODING 627
SWIDTH 1000 0
DWIDTH 7 0
BBX 7 9 0 -2
BITMAP
F8
CC
CC
CC
CC
CC
CC
0C
06
ENDCHAR
STARTCHAR uni0274
ENCODING 628
SWIDTH 500 0
DWIDTH 7 0
BBX 6 7 0 0
BITMAP
CC
CC
EC
FC
DC
CC
CC
ENDCHAR
STARTCHAR uni0275
ENCODING 629
SWIDTH 500 0
DWIDTH 7 0
BBX 6 7 0 0
BITMAP
78
CC
CC
FC
CC
CC
78
ENDCHAR
STARTCHAR uni0276
ENCODING 630
SWIDTH 1000 0
DWIDTH 7 0
BBX 7 7 0 0
BITMAP
7E
D8
D8
DE
D8
D8
7E
ENDCHAR
STARTCHAR uni0277
ENCODING 631
SWIDTH 500 0
DWIDTH 7 0
BBX 6 7 0 0
BITMAP
78
84
B4
B4
B4
FC
78
ENDCHAR
STARTCHAR uni0278
ENCODING 632
SWIDTH 500 0
DWIDTH 7 0
BBX 7 11 0 -2
BITMAP
38
10
7C
D6
D6
D6
D6
D6
7C
10
38
ENDCHAR
STARTCHAR uni0279
ENCODING 633
SWIDTH 500 0
DWIDTH 7 0
BBX 6 7 0 0
BITMAP
0C
0C
0C
0C
1C
3C
EC
ENDCHAR
STARTCHAR uni027A
ENCODING 634
SWIDTH 1000 0
DWIDTH 7 0
BBX 6 9 0 0
BITMAP
0C
0C
0C
0C
0C
0C
1C
3C
EC
ENDCHAR
STARTCHAR uni027B
ENCODING 635
SWIDTH 1000 0
DWIDTH 7 0
BBX 7 9 0 -2
BITMAP
0C
0C
0C
0C
1C
3C
EC
0C
06
ENDCHAR
STARTCHAR uni027C
ENCODING 636
SWIDTH 1000 0
DWIDTH 7 0
BBX 6 9 0 -2
BITMAP
DC
F0
E0
C0
C0
C0
C0
C0
C0
ENDCHAR
STARTCHAR uni027D
ENCODING 637
SWIDTH 1000 0
DWIDTH 7 0
BBX 6 9 0 -2
BITMAP
DC
F0
E0
C0
C0
C0
C0
C0
70
ENDCHAR
STARTCHAR uni027E
ENCODING 638
SWIDTH 500 0
DWIDTH 7 0
BBX 6 7 0 0
BITMAP
1C
30
30
30
30
30
FC
ENDCHAR
STARTCHAR uni027F
ENCODING 639
SWIDTH 500 0
DWIDTH 7 0
BBX 6 7 0 0
BITMAP
E0
30
30
30
30
30
FC
ENDCHAR
STARTCHAR uni0280
ENCODING 640
SWIDTH 500 0
DWIDTH 7 0
BBX 6 7 0 0
BITMAP
F8
CC
CC
F8
F0
D8
CC
ENDCHAR
STARTCHAR uni0281
ENCODING 641
SWIDTH 500 0
DWIDTH 7 0
BBX 6 7 0 0
BITMAP
CC
D8
F0
F8
CC
CC
F8
ENDCHAR
STARTCHAR uni0282
ENCODING 642
SWIDTH 1000 0
DWIDTH 7 0
BBX 6 9 0 -2
BITMAP
7C
C0
C0
78
0C
0C
F8
C0
70
ENDCHAR
STARTCHAR uni0283
ENCODING 643
SWIDTH 500 0
DWIDTH 7 0
BBX 6 11 0 -2
BITMAP
1C
30
30
30
30
30
30
30
30
30
E0
ENDCHAR
STARTCHAR uni0284
ENCODING 644
SWIDTH 500 0
DWIDTH 7 0
BBX 6 11 0 -2
BITMAP
1C
30
F0
30
30
FC
30
30
30
30
E0
ENDCHAR
STARTCHAR uni0285
ENCODING 645
SWIDTH 538 0
DWIDTH 7 0
BBX 6 9 0 0
BITMAP
E0
30
30
30
30
30
30
30
1C
ENDCHAR
STARTCHAR uni0286
ENCODING 646
SWIDTH 500 0
DWIDTH 7 0
BBX 6 11 0 -2
BITMAP
1C
30
30
30
30
30
30
30
7C
B0
60
ENDCHAR
STARTCHAR uni0287
ENCODING 647
SWIDTH 500 0
DWIDTH 7 0
BBX 5 9 0 -2
BITMAP
F0
18
18
18
18
18
F8
18
18
ENDCHAR
STARTCHAR uni0288
ENCODING 648
SWIDTH 538 0
DWIDTH 7 0
BBX 5 11 1 -2
BITMAP
C0
C0
F8
C0
C0
C0
C0
C0
C0
C0
78
ENDCHAR
STARTCHAR uni0289
ENCODING 649
SWIDTH 500 0
DWIDTH 7 0
BBX 7 7 0 0
BITMAP
CC
CC
CC
FE
CC
CC
7C
ENDCHAR
STARTCHAR uni028A
ENCODING 650
SWIDTH 500 0
DWIDTH 7 0
BBX 6 7 0 0
BITMAP
CC
48
CC
CC
CC
CC
78
ENDCHAR
STARTCHAR uni028B
ENCODING 651
SWIDTH 500 0
DWIDTH 7 0
BBX 7 8 0 0
BITMAP
06
CC
CC
CC
78
78
30
30
ENDCHAR
STARTCHAR uni028C
ENCODING 652
SWIDTH 500 0
DWIDTH 7 0
BBX 6 7 0 0
BITMAP
30
30
78
78
CC
CC
CC
ENDCHAR
STARTCHAR uni028D
ENCODING 653
SWIDTH 500 0
DWIDTH 7 0
BBX 6 7 0 0
BITMAP
78
FC
FC
FC
CC
CC
CC
ENDCHAR
STARTCHAR uni028E
ENCODING 654
SWIDTH 500 0
DWIDTH 7 0
BBX 6 9 0 -2
BITMAP
78
C0
F8
CC
CC
CC
CC
CC
CC
ENDCHAR
STARTCHAR uni028F
ENCODING 655
SWIDTH 500 0
DWIDTH 7 0
BBX 6 7 0 0
BITMAP
CC
CC
78
30
30
30
30
ENDCHAR
STARTCHAR uni0290
ENCODING 656
SWIDTH 1000 0
DWIDTH 7 0
BBX 7 9 0 -2
BITMAP
FC
0C
18
30
60
C0
FC
18
0E
ENDCHAR
STARTCHAR uni0291
ENCODING 657
SWIDTH 500 0
DWIDTH 7 0
BBX 7 9 0 -2
BITMAP
FC
0C
18
30
6C
DA
FC
18
18
ENDCHAR
STARTCHAR uni0292
ENCODING 658
SWIDTH 500 0
DWIDTH 7 0
BBX 6 9 0 -2
BITMAP
FC
0C
18
30
78
0C
0C
0C
F8
ENDCHAR
STARTCHAR uni0293
ENCODING 659
SWIDTH 500 0
DWIDTH 7 0
BBX 7 9 0 -2
BITMAP
FC
0C
18
30
78
0C
7C
CC
7A
ENDCHAR
STARTCHAR uni0294
ENCODING 660
SWIDTH 500 0
DWIDTH 7 0
BBX 6 9 0 0
BITMAP
F8
0C
0C
18
30
30
30
30
30
ENDCHAR
STARTCHAR uni0295
ENCODING 661
SWIDTH 500 0
DWIDTH 7 0
BBX 6 9 0 0
BITMAP
7C
C0
C0
60
30
30
30
30
30
ENDCHAR
STARTCHAR uni0296
ENCODING 662
SWIDTH 500 0
DWIDTH 7 0
BBX 6 9 0 0
BITMAP
30
30
30
30
30
18
0C
0C
F8
ENDCHAR
STARTCHAR uni0297
ENCODING 663
SWIDTH 500 0
DWIDTH 7 0
BBX 6 9 0 0
BITMAP
7C
C0
C0
C0
C0
C0
C0
C0
7C
ENDCHAR
STARTCHAR uni0298
ENCODING 664
SWIDTH 500 0
DWIDTH 7 0
BBX 7 7 0 0
BITMAP
7C
C6
C6
D6
C6
C6
7C
ENDCHAR
STARTCHAR uni0299
ENCODING 665
SWIDTH 500 0
DWIDTH 7 0
BBX 6 7 0 0
BITMAP
F8
CC
CC
F8
CC
CC
F8
ENDCHAR
STARTCHAR uni029A
ENCODING 666
SWIDTH 500 0
DWIDTH 7 0
BBX 6 7 0 0
BITMAP
78
CC
CC
6C
CC
CC
78
ENDCHAR
STARTCHAR uni029B
ENCODING 667
SWIDTH 1000 0
DWIDTH 7 0
BBX 6 9 0 0
BITMAP
0C
10
7C
C0
C0
DC
CC
CC
78
ENDCHAR
STARTCHAR uni029C
ENCODING 668
SWIDTH 500 0
DWIDTH 7 0
BBX 6 7 0 0
BITMAP
CC
CC
CC
FC
CC
CC
CC
ENDCHAR
STARTCHAR uni029D
ENCODING 669
SWIDTH 1000 0
DWIDTH 7 0
BBX 5 12 0 -2
BITMAP
30
30
00
70
30
30
30
30
30
78
B0
60
ENDCHAR
STARTCHAR uni029E
ENCODING 670
SWIDTH 500 0
DWIDTH 7 0
BBX 6 9 0 0
BITMAP
CC
6C
3C
1C
3C
6C
CC
0C
0C
ENDCHAR
STARTCHAR uni029F
ENCODING 671
SWIDTH 500 0
DWIDTH 7 0
BBX 6 7 0 0
BITMAP
C0
C0
C0
C0
C0
C0
FC
ENDCHAR
STARTCHAR uni02A0
ENCODING 672
SWIDTH 1000 0
DWIDTH 7 0
BBX 7 11 0 -2
BITMAP
06
0C
7C
CC
CC
CC
CC
CC
7C
0C
0C
ENDCHAR
STARTCHAR uni02A1
ENCODING 673
SWIDTH 500 0
DWIDTH 7 0
BBX 6 9 0 0
BITMAP
F8
0C
0C
18
30
30
78
30
30
ENDCHAR
STARTCHAR uni02A2
ENCODING 674
SWIDTH 500 0
DWIDTH 7 0
BBX 6 9 0 0
BITMAP
7C
C0
C0
60
30
30
78
30
30
ENDCHAR
STARTCHAR uni02A3
ENCODING 675
SWIDTH 500 0
DWIDTH 7 0
BBX 7 9 0 0
BITMAP
10
10
7E
D6
D6
DE
DC
DC
7E
ENDCHAR
STARTCHAR uni02A4
ENCODING 676
SWIDTH 1000 0
DWIDTH 7 0
BBX 7 11 0 -2
BITMAP
10
10
7E
D6
D6
DC
D6
D6
76
06
1C
ENDCHAR
STARTCHAR uni02A5
ENCODING 677
SWIDTH 1000 0
DWIDTH 7 0
BBX 7 10 0 -1
BITMAP
10
10
7E
D6
D6
DC
DC
DA
7E
08
ENDCHAR
STARTCHAR uni02A6
ENCODING 678
SWIDTH 500 0
DWIDTH 7 0
BBX 7 9 0 0
BITMAP
C0
C0
FE
D8
D8
CC
C6
C6
7C
ENDCHAR
STARTCHAR uni02A7
ENCODING 679
SWIDTH 1000 0
DWIDTH 7 0
BBX 7 11 0 -2
BITMAP
C6
CC
FC
CC
CC
CC
CC
CC
7C
0C
18
ENDCHAR
STARTCHAR uni02A8
ENCODING 680
SWIDTH 500 0
DWIDTH 7 0
BBX 7 10 0 -1
BITMAP
C0
C0
F6
CC
D8
D8
DC
DA
7C
08
ENDCHAR
STARTCHAR uni02A9
ENCODING 681
SWIDTH 500 0
DWIDTH 7 0
BBX 7 11 0 -2
BITMAP
70
C0
DC
FA
DA
DA
DA
DA
DA
02
04
ENDCHAR
STARTCHAR uni02AA
ENCODING 682
SWIDTH 500 0
DWIDTH 7 0
BBX 7 9 0 0
BITMAP
E0
60
6E
78
78
6C
66
66
3C
ENDCHAR
STARTCHAR uni02AB
ENCODING 683
SWIDTH 500 0
DWIDTH 7 0
BBX 7 9 0 0
BITMAP
E0
60
7E
66
6C
6C
6C
78
3E
ENDCHAR
STARTCHAR uni02AC
ENCODING 684
SWIDTH 500 0
DWIDTH 7 0
BBX 6 11 0 0
BITMAP
CC
CC
FC
FC
CC
00
CC
CC
FC
FC
CC
ENDCHAR
STARTCHAR uni02AD
ENCODING 685
SWIDTH 500 0
DWIDTH 7 0
BBX 6 11 0 0
BITMAP
FC
CC
CC
CC
CC
00
FC
CC
CC
CC
CC
ENDCHAR
STARTCHAR uni02AE
ENCODING 686
SWIDTH 538 0
DWIDTH 7 0
BBX 6 10 0 0
BITMAP
C0
6C
6C
6C
6C
6C
6C
3C
0C
0C
ENDCHAR
STARTCHAR uni02AF
ENCODING 687
SWIDTH 538 0
DWIDTH 7 0
BBX 7 12 0 -2
BITMAP
C0
6C
6C
6C
6C
6C
6C
3C
0C
0C
0C
06
ENDCHAR
STARTCHAR uni02BB
ENCODING 699
SWIDTH 500 0
DWIDTH 7 0
BBX 3 3 2 8
BITMAP
60
C0
C0
ENDCHAR
STARTCHAR afii57929
ENCODING 700
SWIDTH 500 0
DWIDTH 7 0
BBX 2 3 2 8
BITMAP
C0
C0
C0
ENDCHAR
STARTCHAR afii64937
ENCODING 701
SWIDTH 500 0
DWIDTH 7 0
BBX 3 3 2 8
BITMAP
C0
C0
60
ENDCHAR
STARTCHAR circumflex
ENCODING 710
SWIDTH 500 0
DWIDTH 7 0
BBX 4 2 1 9
BITMAP
60
B0
ENDCHAR
STARTCHAR caron
ENCODING 711
SWIDTH 500 0
DWIDTH 7 0
BBX 4 2 1 9
BITMAP
B0
60
ENDCHAR
STARTCHAR breve
ENCODING 728
SWIDTH 500 0
DWIDTH 7 0
BBX 6 2 0 9
BITMAP
CC
78
ENDCHAR
STARTCHAR dotaccent
ENCODING 729
SWIDTH 500 0
DWIDTH 7 0
BBX 2 1 2 10
BITMAP
C0
ENDCHAR
STARTCHAR ring
ENCODING 730
SWIDTH 500 0
DWIDTH 7 0
BBX 4 3 1 8
BITMAP
60
B0
60
ENDCHAR
STARTCHAR ogonek
ENCODING 731
SWIDTH 500 0
DWIDTH 7 0
BBX 3 3 2 -2
BITMAP
40
80
60
ENDCHAR
STARTCHAR tilde
ENCODING 732
SWIDTH 500 0
DWIDTH 7 0
BBX 6 3 0 8
BITMAP
64
B4
98
ENDCHAR
STARTCHAR hungarumlaut
ENCODING 733
SWIDTH 500 0
DWIDTH 7 0
BBX 6 2 0 9
BITMAP
6C
D8
ENDCHAR
STARTCHAR gravecomb
ENCODING 768
SWIDTH 500 0
DWIDTH 7 0
BBX 3 2 1 9
BITMAP
C0
60
ENDCHAR
STARTCHAR acutecomb
ENCODING 769
SWIDTH 500 0
DWIDTH 7 0
BBX 3 2 2 9
BITMAP
60
C0
ENDCHAR
STARTCHAR uni0302
ENCODING 770
SWIDTH 500 0
DWIDTH 7 0
BBX 4 2 1 9
BITMAP
60
B0
ENDCHAR
STARTCHAR tildecomb
ENCODING 771
SWIDTH 500 0
DWIDTH 7 0
BBX 6 3 0 8
BITMAP
64
B4
98
ENDCHAR
STARTCHAR uni0306
ENCODING 774
SWIDTH 500 0
DWIDTH 7 0
BBX 6 2 0 9
BITMAP
CC
78
ENDCHAR
STARTCHAR uni0307
ENCODING 775
SWIDTH 500 0
DWIDTH 7 0
BBX 2 1 2 10
BITMAP
C0
ENDCHAR
STARTCHAR uni0308
ENCODING 776
SWIDTH 500 0
DWIDTH 7 0
BBX 5 1 1 10
BITMAP
D8
ENDCHAR
STARTCHAR uni030C
ENCODING 780
SWIDTH 500 0
DWIDTH 7 0
BBX 4 2 1 9
BITMAP
B0
60
ENDCHAR
STARTCHAR uni0329
ENCODING 809
SWIDTH 500 0
DWIDTH 7 0
BBX 1 2 2 -2
BITMAP
80
80
ENDCHAR
STARTCHAR uni035F
ENCODING 863
SWIDTH 0 0
DWIDTH 7 0
BBX 1 1 0 0
BITMAP
00
ENDCHAR
STARTCHAR uni0370
ENCODING 880
SWIDTH 500 0
DWIDTH 7 0
BBX 6 9 0 0
BITMAP
C0
C0
C0
C0
FC
C0
C0
C0
C0
ENDCHAR
STARTCHAR uni0371
ENCODING 881
SWIDTH 500 0
DWIDTH 7 0
BBX 6 7 0 0
BITMAP
C0
C0
C0
FC
C0
C0
C0
ENDCHAR
STARTCHAR uni0372
ENCODING 882
SWIDTH 500 0
DWIDTH 7 0
BBX 6 9 0 0
BITMAP
FC
B4
B4
B4
30
30
30
30
30
ENDCHAR
STARTCHAR uni0373
ENCODING 883
SWIDTH 500 0
DWIDTH 7 0
BBX 6 7 0 0
BITMAP
FC
B4
B4
30
30
30
30
ENDCHAR
STARTCHAR uni0374
ENCODING 884
SWIDTH 538 0
DWIDTH 7 0
BBX 3 3 1 8
BITMAP
60
60
C0
ENDCHAR
STARTCHAR uni0375
ENCODING 885
SWIDTH 538 0
DWIDTH 7 0
BBX 3 3 1 -2
BITMAP
60
60
C0
ENDCHAR
STARTCHAR uni0376
ENCODING 886
SWIDTH 500 0
DWIDTH 7 0
BBX 6 9 0 0
BITMAP
CC
CC
DC
DC
FC
EC
EC
CC
CC
ENDCHAR
STARTCHAR uni0377
ENCODING 887
SWIDTH 500 0
DWIDTH 7 0
BBX 6 7 0 0
BITMAP
CC
DC
DC
FC
EC
EC
CC
ENDCHAR
STARTCHAR uni037B
ENCODING 891
SWIDTH 538 0
DWIDTH 7 0
BBX 6 7 0 0
BITMAP
F8
0C
0C
0C
0C
0C
F8
ENDCHAR
STARTCHAR uni037C
ENCODING 892
SWIDTH 538 0
DWIDTH 7 0
BBX 6 7 0 0
BITMAP
7C
C0
C0
D8
C0
C0
7C
ENDCHAR
STARTCHAR uni037D
ENCODING 893
SWIDTH 538 0
DWIDTH 7 0
BBX 6 7 0 0
BITMAP
F8
0C
0C
6C
0C
0C
F8
ENDCHAR
STARTCHAR uni037E
ENCODING 894
SWIDTH 538 0
DWIDTH 7 0
BBX 3 8 1 -2
BITMAP
60
60
00
00
60
60
60
C0
ENDCHAR
STARTCHAR tonos
ENCODING 900
SWIDTH 500 0
DWIDTH 7 0
BBX 3 2 2 9
BITMAP
60
C0
ENDCHAR
STARTCHAR dieresistonos
ENCODING 901
SWIDTH 500 0
DWIDTH 7 0
BBX 6 3 0 8
BITMAP
D8
30
6C
ENDCHAR
STARTCHAR Alphatonos
ENCODING 902
SWIDTH 500 0
DWIDTH 7 0
BBX 6 11 0 0
BITMAP
60
C0
38
6C
6C
6C
7C
6C
6C
6C
6C
ENDCHAR
STARTCHAR anoteleia
ENCODING 903
SWIDTH 500 0
DWIDTH 7 0
BBX 2 2 2 4
BITMAP
C0
C0
ENDCHAR
STARTCHAR Epsilontonos
ENCODING 904
SWIDTH 500 0
DWIDTH 7 0
BBX 6 11 0 0
BITMAP
60
C0
7C
60
60
60
78
60
60
60
7C
ENDCHAR
STARTCHAR Etatonos
ENCODING 905
SWIDTH 500 0
DWIDTH 7 0
BBX 6 11 0 0
BITMAP
60
C0
6C
6C
6C
6C
7C
6C
6C
6C
6C
ENDCHAR
STARTCHAR Iotatonos
ENCODING 906
SWIDTH 500 0
DWIDTH 7 0
BBX 6 11 0 0
BITMAP
60
C0
00
FC
30
30
30
30
30
30
FC
ENDCHAR
STARTCHAR Omicrontonos
ENCODING 908
SWIDTH 500 0
DWIDTH 7 0
BBX 6 11 0 0
BITMAP
60
C0
38
6C
6C
6C
6C
6C
6C
6C
38
ENDCHAR
STARTCHAR Upsilontonos
ENCODING 910
SWIDTH 500 0
DWIDTH 7 0
BBX 6 11 0 0
BITMAP
60
C0
00
CC
CC
78
78
30
30
30
30
ENDCHAR
STARTCHAR Omegatonos
ENCODING 911
SWIDTH 500 0
DWIDTH 7 0
BBX 6 11 0 0
BITMAP
60
C0
00
78
CC
CC
CC
CC
CC
48
CC
ENDCHAR
STARTCHAR iotadieresistonos
ENCODING 912
SWIDTH 500 0
DWIDTH 7 0
BBX 6 11 0 0
BITMAP
D8
30
6C
00
70
30
30
30
30
30
1C
ENDCHAR
STARTCHAR Alpha
ENCODING 913
SWIDTH 500 0
DWIDTH 7 0
BBX 6 9 0 0
BITMAP
78
CC
CC
CC
FC
CC
CC
CC
CC
ENDCHAR
STARTCHAR Beta
ENCODING 914
SWIDTH 500 0
DWIDTH 7 0
BBX 6 9 0 0
BITMAP
F8
CC
CC
CC
F8
CC
CC
CC
F8
ENDCHAR
STARTCHAR Gamma
ENCODING 915
SWIDTH 500 0
DWIDTH 7 0
BBX 6 9 0 0
BITMAP
FC
C0
C0
C0
C0
C0
C0
C0
C0
ENDCHAR
STARTCHAR Delta
ENCODING 916
SWIDTH 500 0
DWIDTH 7 0
BBX 6 9 0 0
BITMAP
30
30
30
78
78
78
CC
CC
FC
ENDCHAR
STARTCHAR Epsilon
ENCODING 917
SWIDTH 500 0
DWIDTH 7 0
BBX 6 9 0 0
BITMAP
FC
C0
C0
C0
F8
C0
C0
C0
FC
ENDCHAR
STARTCHAR Zeta
ENCODING 918
SWIDTH 500 0
DWIDTH 7 0
BBX 6 9 0 0
BITMAP
FC
0C
18
18
30
60
60
C0
FC
ENDCHAR
STARTCHAR Eta
ENCODING 919
SWIDTH 500 0
DWIDTH 7 0
BBX 6 9 0 0
BITMAP
CC
CC
CC
CC
FC
CC
CC
CC
CC
ENDCHAR
STARTCHAR Theta
ENCODING 920
SWIDTH 500 0
DWIDTH 7 0
BBX 6 9 0 0
BITMAP
78
CC
CC
CC
FC
CC
CC
CC
78
ENDCHAR
STARTCHAR Iota
ENCODING 921
SWIDTH 500 0
DWIDTH 7 0
BBX 6 9 0 0
BITMAP
FC
30
30
30
30
30
30
30
FC
ENDCHAR
STARTCHAR Kappa
ENCODING 922
SWIDTH 500 0
DWIDTH 7 0
BBX 6 9 0 0
BITMAP
CC
D8
F0
E0
C0
E0
F0
D8
CC
ENDCHAR
STARTCHAR Lambda
ENCODING 923
SWIDTH 500 0
DWIDTH 7 0
BBX 6 9 0 0
BITMAP
30
30
30
78
78
78
CC
CC
CC
ENDCHAR
STARTCHAR Mu
ENCODING 924
SWIDTH 500 0
DWIDTH 7 0
BBX 6 9 0 0
BITMAP
84
CC
FC
FC
FC
CC
CC
CC
CC
ENDCHAR
STARTCHAR Nu
ENCODING 925
SWIDTH 500 0
DWIDTH 7 0
BBX 6 9 0 0
BITMAP
CC
CC
EC
EC
FC
DC
DC
CC
CC
ENDCHAR
STARTCHAR Xi
ENCODING 926
SWIDTH 500 0
DWIDTH 7 0
BBX 6 9 0 0
BITMAP
FC
00
00
00
78
00
00
00
FC
ENDCHAR
STARTCHAR Omicron
ENCODING 927
SWIDTH 500 0
DWIDTH 7 0
BBX 6 9 0 0
BITMAP
78
CC
CC
CC
CC
CC
CC
CC
78
ENDCHAR
STARTCHAR Pi
ENCODING 928
SWIDTH 500 0
DWIDTH 7 0
BBX 6 9 0 0
BITMAP
FC
CC
CC
CC
CC
CC
CC
CC
CC
ENDCHAR
STARTCHAR Rho
ENCODING 929
SWIDTH 500 0
DWIDTH 7 0
BBX 6 9 0 0
BITMAP
F8
CC
CC
CC
F8
C0
C0
C0
C0
ENDCHAR
STARTCHAR Sigma
ENCODING 931
SWIDTH 500 0
DWIDTH 7 0
BBX 6 9 0 0
BITMAP
FC
C0
60
30
18
30
60
C0
FC
ENDCHAR
STARTCHAR Tau
ENCODING 932
SWIDTH 500 0
DWIDTH 7 0
BBX 6 9 0 0
BITMAP
FC
30
30
30
30
30
30
30
30
ENDCHAR
STARTCHAR Upsilon
ENCODING 933
SWIDTH 500 0
DWIDTH 7 0
BBX 6 9 0 0
BITMAP
CC
CC
78
78
30
30
30
30
30
ENDCHAR
STARTCHAR Phi
ENCODING 934
SWIDTH 500 0
DWIDTH 7 0
BBX 6 9 0 0
BITMAP
30
78
B4
B4
B4
B4
B4
78
30
ENDCHAR
STARTCHAR Chi
ENCODING 935
SWIDTH 500 0
DWIDTH 7 0
BBX 6 9 0 0
BITMAP
CC
CC
78
30
30
30
78
CC
CC
ENDCHAR
STARTCHAR Psi
ENCODING 936
SWIDTH 500 0
DWIDTH 7 0
BBX 6 9 0 0
BITMAP
B4
B4
B4
B4
B4
FC
78
30
30
ENDCHAR
STARTCHAR Omega
ENCODING 937
SWIDTH 500 0
DWIDTH 7 0
BBX 6 9 0 0
BITMAP
78
CC
CC
CC
CC
CC
CC
48
CC
ENDCHAR
STARTCHAR Iotadieresis
ENCODING 938
SWIDTH 500 0
DWIDTH 7 0
BBX 6 11 0 0
BITMAP
6C
00
FC
30
30
30
30
30
30
30
FC
ENDCHAR
STARTCHAR Upsilondieresis
ENCODING 939
SWIDTH 500 0
DWIDTH 7 0
BBX 6 11 0 0
BITMAP
6C
00
CC
CC
78
78
30
30
30
30
30
ENDCHAR
STARTCHAR alphatonos
ENCODING 940
SWIDTH 500 0
DWIDTH 7 0
BBX 6 10 0 0
BITMAP
18
30
00
6C
DC
CC
CC
CC
DC
6C
ENDCHAR
STARTCHAR epsilontonos
ENCODING 941
SWIDTH 500 0
DWIDTH 7 0
BBX 6 10 0 0
BITMAP
18
30
00
7C
C0
C0
78
C0
C0
7C
ENDCHAR
STARTCHAR etatonos
ENCODING 942
SWIDTH 500 0
DWIDTH 7 0
BBX 6 12 0 -2
BITMAP
18
30
00
F8
CC
CC
CC
CC
CC
CC
0C
0C
ENDCHAR
STARTCHAR iotatonos
ENCODING 943
SWIDTH 500 0
DWIDTH 7 0
BBX 5 10 1 0
BITMAP
C0
60
00
E0
60
60
60
60
60
38
ENDCHAR
STARTCHAR upsilondieresistonos
ENCODING 944
SWIDTH 500 0
DWIDTH 7 0
BBX 6 11 0 0
BITMAP
D8
30
6C
00
CC
CC
CC
CC
CC
CC
78
ENDCHAR
STARTCHAR alpha
ENCODING 945
SWIDTH 500 0
DWIDTH 7 0
BBX 6 7 0 0
BITMAP
6C
DC
CC
CC
CC
DC
6C
ENDCHAR
STARTCHAR beta
ENCODING 946
SWIDTH 500 0
DWIDTH 7 0
BBX 6 11 0 -2
BITMAP
70
D8
D8
F0
D8
CC
CC
CC
F8
C0
C0
ENDCHAR
STARTCHAR gamma
ENCODING 947
SWIDTH 500 0
DWIDTH 7 0
BBX 6 9 0 -2
BITMAP
CC
CC
CC
78
78
30
30
60
60
ENDCHAR
STARTCHAR delta
ENCODING 948
SWIDTH 500 0
DWIDTH 7 0
BBX 6 9 0 0
BITMAP
78
CC
C0
70
D8
CC
CC
CC
78
ENDCHAR
STARTCHAR epsilon
ENCODING 949
SWIDTH 500 0
DWIDTH 7 0
BBX 6 7 0 0
BITMAP
7C
C0
C0
78
C0
C0
7C
ENDCHAR
STARTCHAR zeta
ENCODING 950
SWIDTH 500 0
DWIDTH 7 0
BBX 6 11 0 -2
BITMAP
FC
18
30
60
C0
C0
C0
C0
78
0C
18
ENDCHAR
STARTCHAR eta
ENCODING 951
SWIDTH 500 0
DWIDTH 7 0
BBX 6 9 0 -2
BITMAP
F8
CC
CC
CC
CC
CC
CC
0C
0C
ENDCHAR
STARTCHAR theta
ENCODING 952
SWIDTH 500 0
DWIDTH 7 0
BBX 6 9 0 0
BITMAP
78
CC
CC
CC
FC
CC
CC
CC
78
ENDCHAR
STARTCHAR iota
ENCODING 953
SWIDTH 500 0
DWIDTH 7 0
BBX 5 7 1 0
BITMAP
E0
60
60
60
60
60
38
ENDCHAR
STARTCHAR kappa
ENCODING 954
SWIDTH 500 0
DWIDTH 7 0
BBX 6 7 0 0
BITMAP
CC
D8
F0
E0
F0
D8
CC
ENDCHAR
STARTCHAR lambda
ENCODING 955
SWIDTH 500 0
DWIDTH 7 0
BBX 6 9 0 0
BITMAP
60
60
30
30
78
78
CC
CC
CC
ENDCHAR
STARTCHAR mu
ENCODING 956
SWIDTH 500 0
DWIDTH 7 0
BBX 6 9 0 -2
BITMAP
CC
CC
CC
CC
CC
CC
F8
C0
C0
ENDCHAR
STARTCHAR nu
ENCODING 957
SWIDTH 500 0
DWIDTH 7 0
BBX 6 7 0 0
BITMAP
CC
CC
CC
78
78
30
30
ENDCHAR
STARTCHAR xi
ENCODING 958
SWIDTH 500 0
DWIDTH 7 0
BBX 6 11 0 -2
BITMAP
7C
C0
C0
C0
78
C0
C0
C0
78
0C
38
ENDCHAR
STARTCHAR omicron
ENCODING 959
SWIDTH 500 0
DWIDTH 7 0
BBX 6 7 0 0
BITMAP
78
CC
CC
CC
CC
CC
78
ENDCHAR
STARTCHAR pi
ENCODING 960
SWIDTH 500 0
DWIDTH 7 0
BBX 6 7 0 0
BITMAP
FC
CC
CC
CC
CC
CC
CC
ENDCHAR
STARTCHAR rho
ENCODING 961
SWIDTH 500 0
DWIDTH 7 0
BBX 6 9 0 -2
BITMAP
78
CC
CC
CC
CC
CC
F8
C0
C0
ENDCHAR
STARTCHAR sigma1
ENCODING 962
SWIDTH 500 0
DWIDTH 7 0
BBX 6 9 0 -2
BITMAP
7C
C0
C0
C0
C0
C0
78
0C
38
ENDCHAR
STARTCHAR sigma
ENCODING 963
SWIDTH 500 0
DWIDTH 7 0
BBX 7 7 0 0
BITMAP
7E
CC
CC
CC
CC
CC
78
ENDCHAR
STARTCHAR tau
ENCODING 964
SWIDTH 500 0
DWIDTH 7 0
BBX 6 7 0 0
BITMAP
FC
30
30
30
30
30
1C
ENDCHAR
STARTCHAR upsilon
ENCODING 965
SWIDTH 500 0
DWIDTH 7 0
BBX 6 7 0 0
BITMAP
CC
CC
CC
CC
CC
CC
78
ENDCHAR
STARTCHAR phi
ENCODING 966
SWIDTH 500 0
DWIDTH 7 0
BBX 6 9 0 -2
BITMAP
78
B4
B4
B4
B4
B4
78
30
30
ENDCHAR
STARTCHAR chi
ENCODING 967
SWIDTH 500 0
DWIDTH 7 0
BBX 6 7 0 0
BITMAP
CC
CC
78
30
78
CC
CC
ENDCHAR
STARTCHAR psi
ENCODING 968
SWIDTH 500 0
DWIDTH 7 0
BBX 6 9 0 -2
BITMAP
B4
B4
B4
B4
B4
B4
78
30
30
ENDCHAR
STARTCHAR omega
ENCODING 969
SWIDTH 500 0
DWIDTH 7 0
BBX 6 7 0 0
BITMAP
84
84
B4
B4
B4
B4
78
ENDCHAR
STARTCHAR iotadieresis
ENCODING 970
SWIDTH 500 0
DWIDTH 7 0
BBX 5 9 1 0
BITMAP
D8
00
E0
60
60
60
60
60
38
ENDCHAR
STARTCHAR upsilondieresis
ENCODING 971
SWIDTH 500 0
DWIDTH 7 0
BBX 6 9 0 0
BITMAP
6C
00
CC
CC
CC
CC
CC
CC
78
ENDCHAR
STARTCHAR omicrontonos
ENCODING 972
SWIDTH 500 0
DWIDTH 7 0
BBX 6 10 0 0
BITMAP
18
30
00
78
CC
CC
CC
CC
CC
78
ENDCHAR
STARTCHAR upsilontonos
ENCODING 973
SWIDTH 500 0
DWIDTH 7 0
BBX 6 10 0 0
BITMAP
18
30
00
CC
CC
CC
CC
CC
CC
78
ENDCHAR
STARTCHAR omegatonos
ENCODING 974
SWIDTH 500 0
DWIDTH 7 0
BBX 6 10 0 0
BITMAP
18
30
00
84
84
B4
B4
B4
B4
78
ENDCHAR
STARTCHAR uni03CF
ENCODING 975
SWIDTH 500 0
DWIDTH 7 0
BBX 6 11 0 -2
BITMAP
CC
D8
F0
E0
C0
E0
F0
D8
CC
04
08
ENDCHAR
STARTCHAR uni03D0
ENCODING 976
SWIDTH 500 0
DWIDTH 7 0
BBX 6 9 0 0
BITMAP
78
CC
CC
CC
F8
CC
CC
CC
78
ENDCHAR
STARTCHAR theta1
ENCODING 977
SWIDTH 500 0
DWIDTH 7 0
BBX 6 9 0 0
BITMAP
78
CC
CC
6C
3C
0C
CC
CC
78
ENDCHAR
STARTCHAR Upsilon1
ENCODING 978
SWIDTH 538 0
DWIDTH 7 0
BBX 6 9 0 0
BITMAP
CC
CC
78
78
30
30
30
30
30
ENDCHAR
STARTCHAR uni03D3
ENCODING 979
SWIDTH 538 0
DWIDTH 7 0
BBX 6 11 0 0
BITMAP
60
C0
00
CC
CC
78
78
30
30
30
30
ENDCHAR
STARTCHAR uni03D4
ENCODING 980
SWIDTH 538 0
DWIDTH 7 0
BBX 6 11 0 0
BITMAP
28
00
CC
CC
78
78
30
30
30
30
30
ENDCHAR
STARTCHAR phi1
ENCODING 981
SWIDTH 500 0
DWIDTH 7 0
BBX 6 9 0 0
BITMAP
30
30
78
B4
B4
B4
78
30
30
ENDCHAR
STARTCHAR omega1
ENCODING 982
SWIDTH 500 0
DWIDTH 7 0
BBX 6 7 0 0
BITMAP
FC
84
B4
B4
B4
B4
78
ENDCHAR
STARTCHAR uni03D7
ENCODING 983
SWIDTH 538 0
DWIDTH 7 0
BBX 6 9 0 -2
BITMAP
CC
D8
F0
E0
F0
D8
CC
0C
18
ENDCHAR
STARTCHAR uni03D8
ENCODING 984
SWIDTH 538 0
DWIDTH 7 0
BBX 6 11 0 -2
BITMAP
78
CC
CC
CC
CC
CC
CC
CC
78
30
30
ENDCHAR
STARTCHAR uni03D9
ENCODING 985
SWIDTH 538 0
DWIDTH 7 0
BBX 6 9 0 -2
BITMAP
78
CC
CC
CC
CC
CC
78
30
30
ENDCHAR
STARTCHAR uni03DA
ENCODING 986
SWIDTH 538 0
DWIDTH 7 0
BBX 6 11 0 -2
BITMAP
7C
C0
C0
C0
C0
C0
C0
C0
78
0C
38
ENDCHAR
STARTCHAR uni03DB
ENCODING 987
SWIDTH 538 0
DWIDTH 7 0
BBX 6 9 0 -2
BITMAP
7C
C0
C0
C0
C0
C0
78
0C
38
ENDCHAR
STARTCHAR uni03DC
ENCODING 988
SWIDTH 538 0
DWIDTH 7 0
BBX 6 9 0 0
BITMAP
FC
C0
C0
C0
F8
C0
C0
C0
C0
ENDCHAR
STARTCHAR uni03DD
ENCODING 989
SWIDTH 538 0
DWIDTH 7 0
BBX 6 11 0 -2
BITMAP
1C
30
30
30
3C
30
30
30
30
30
E0
ENDCHAR
STARTCHAR uni03DE
ENCODING 990
SWIDTH 538 0
DWIDTH 7 0
BBX 6 9 0 0
BITMAP
C0
60
6C
7C
FC
F8
D8
18
0C
ENDCHAR
STARTCHAR uni03DF
ENCODING 991
SWIDTH 538 0
DWIDTH 7 0
BBX 6 9 0 0
BITMAP
60
60
C0
C0
FC
0C
0C
18
18
ENDCHAR
STARTCHAR uni03E0
ENCODING 992
SWIDTH 538 0
DWIDTH 7 0
BBX 6 11 0 -2
BITMAP
F8
6C
6C
0C
3C
6C
6C
6C
6C
0C
18
ENDCHAR
STARTCHAR uni03E1
ENCODING 993
SWIDTH 538 0
DWIDTH 7 0
BBX 6 9 0 -2
BITMAP
E0
30
18
38
6C
DC
3C
0C
0C
ENDCHAR
STARTCHAR uni03E2
ENCODING 994
SWIDTH 538 0
DWIDTH 7 0
BBX 6 11 0 -2
BITMAP
84
84
B4
B4
B4
B4
B4
B4
7C
0C
38
ENDCHAR
STARTCHAR uni03E3
ENCODING 995
SWIDTH 538 0
DWIDTH 7 0
BBX 6 9 0 -2
BITMAP
84
84
B4
B4
B4
B4
7C
0C
38
ENDCHAR
STARTCHAR uni03E4
ENCODING 996
SWIDTH 538 0
DWIDTH 7 0
BBX 6 11 0 -2
BITMAP
CC
CC
CC
CC
CC
CC
CC
CC
7C
0C
0C
ENDCHAR
STARTCHAR uni03E5
ENCODING 997
SWIDTH 538 0
DWIDTH 7 0
BBX 6 9 0 -2
BITMAP
CC
CC
CC
CC
CC
CC
7C
0C
0C
ENDCHAR
STARTCHAR uni03E6
ENCODING 998
SWIDTH 538 0
DWIDTH 7 0
BBX 6 9 0 0
BITMAP
C0
C0
F8
CC
CC
CC
CC
CC
CC
ENDCHAR
STARTCHAR uni03E7
ENCODING 999
SWIDTH 538 0
DWIDTH 7 0
BBX 6 7 0 0
BITMAP
70
D8
D8
7C
18
18
F0
ENDCHAR
STARTCHAR uni03E8
ENCODING 1000
SWIDTH 538 0
DWIDTH 7 0
BBX 6 11 0 -2
BITMAP
F8
0C
0C
0C
18
30
60
C0
C0
60
3C
ENDCHAR
STARTCHAR uni03E9
ENCODING 1001
SWIDTH 538 0
DWIDTH 7 0
BBX 6 9 0 -2
BITMAP
F8
0C
0C
18
30
60
C0
60
3C
ENDCHAR
STARTCHAR uni03EA
ENCODING 1002
SWIDTH 538 0
DWIDTH 7 0
BBX 6 9 0 0
BITMAP
CC
CC
CC
78
30
78
CC
CC
FC
ENDCHAR
STARTCHAR uni03EB
ENCODING 1003
SWIDTH 538 0
DWIDTH 7 0
BBX 6 7 0 0
BITMAP
CC
CC
78
30
78
CC
FC
ENDCHAR
STARTCHAR uni03EC
ENCODING 1004
SWIDTH 538 0
DWIDTH 7 0
BBX 6 9 0 0
BITMAP
7C
C0
C0
F8
CC
CC
CC
CC
78
ENDCHAR
STARTCHAR uni03ED
ENCODING 1005
SWIDTH 538 0
DWIDTH 7 0
BBX 5 9 1 0
BITMAP
78
C0
C0
F0
D8
D8
D8
D8
70
ENDCHAR
STARTCHAR uni03EE
ENCODING 1006
SWIDTH 538 0
DWIDTH 7 0
BBX 6 11 0 -2
BITMAP
30
30
FC
B4
30
30
30
30
30
30
30
ENDCHAR
STARTCHAR uni03EF
ENCODING 1007
SWIDTH 538 0
DWIDTH 7 0
BBX 6 11 0 -2
BITMAP
30
30
FC
B4
30
30
30
30
30
30
30
ENDCHAR
STARTCHAR uni03F0
ENCODING 1008
SWIDTH 538 0
DWIDTH 7 0
BBX 6 7 0 0
BITMAP
CC
D8
F0
E0
F0
D8
CC
ENDCHAR
STARTCHAR uni03F1
ENCODING 1009
SWIDTH 500 0
DWIDTH 7 0
BBX 6 9 0 -2
BITMAP
78
CC
CC
CC
CC
CC
F8
C0
7C
ENDCHAR
STARTCHAR uni03F2
ENCODING 1010
SWIDTH 500 0
DWIDTH 7 0
BBX 6 7 0 0
BITMAP
7C
C0
C0
C0
C0
C0
7C
ENDCHAR
STARTCHAR uni03F3
ENCODING 1011
SWIDTH 500 0
DWIDTH 7 0
BBX 4 12 1 -2
BITMAP
30
30
00
70
30
30
30
30
30
30
30
E0
ENDCHAR
STARTCHAR uni03F4
ENCODING 1012
SWIDTH 500 0
DWIDTH 7 0
BBX 6 9 0 0
BITMAP
78
CC
CC
CC
FC
CC
CC
CC
78
ENDCHAR
STARTCHAR uni03F5
ENCODING 1013
SWIDTH 1000 0
DWIDTH 7 0
BBX 6 7 0 0
BITMAP
7C
C0
C0
FC
C0
C0
7C
ENDCHAR
STARTCHAR uni03F6
ENCODING 1014
SWIDTH 500 0
DWIDTH 7 0
BBX 6 7 0 0
BITMAP
F8
0C
0C
FC
0C
0C
F8
ENDCHAR
STARTCHAR uni03F7
ENCODING 1015
SWIDTH 500 0
DWIDTH 7 0
BBX 6 9 0 0
BITMAP
C0
C0
F8
CC
CC
CC
F8
C0
C0
ENDCHAR
STARTCHAR uni03F8
ENCODING 1016
SWIDTH 500 0
DWIDTH 7 0
BBX 6 9 0 -2
BITMAP
C0
C0
F8
CC
CC
CC
F8
C0
C0
ENDCHAR
STARTCHAR uni03F9
ENCODING 1017
SWIDTH 500 0
DWIDTH 7 0
BBX 6 9 0 0
BITMAP
7C
C0
C0
C0
C0
C0
C0
C0
7C
ENDCHAR
STARTCHAR uni03FA
ENCODING 1018
SWIDTH 500 0
DWIDTH 7 0
BBX 6 9 0 0
BITMAP
84
CC
FC
FC
FC
CC
CC
CC
CC
ENDCHAR
STARTCHAR uni03FB
ENCODING 1019
SWIDTH 1000 0
DWIDTH 7 0
BBX 6 9 0 -2
BITMAP
84
CC
FC
FC
FC
CC
CC
C0
C0
ENDCHAR
STARTCHAR uni03FC
ENCODING 1020
SWIDTH 500 0
DWIDTH 7 0
BBX 6 9 0 -2
BITMAP
38
6C
6C
6C
6C
78
60
F0
60
ENDCHAR
STARTCHAR uni03FD
ENCODING 1021
SWIDTH 500 0
DWIDTH 7 0
BBX 6 9 0 0
BITMAP
F8
0C
0C
0C
0C
0C
0C
0C
F8
ENDCHAR
STARTCHAR uni03FE
ENCODING 1022
SWIDTH 500 0
DWIDTH 7 0
BBX 6 9 0 0
BITMAP
7C
C0
C0
C0
D8
D8
C0
C0
7C
ENDCHAR
STARTCHAR uni03FF
ENCODING 1023
SWIDTH 500 0
DWIDTH 7 0
BBX 6 9 0 0
BITMAP
F8
0C
0C
0C
6C
6C
0C
0C
F8
ENDCHAR
STARTCHAR uni0400
ENCODING 1024
SWIDTH 500 0
DWIDTH 7 0
BBX 6 11 0 0
BITMAP
60
30
FC
C0
C0
C0
F8
C0
C0
C0
FC
ENDCHAR
STARTCHAR afii10023
ENCODING 1025
SWIDTH 500 0
DWIDTH 7 0
BBX 6 11 0 0
BITMAP
6C
00
FC
C0
C0
C0
F8
C0
C0
C0
FC
ENDCHAR
STARTCHAR afii10051
ENCODING 1026
SWIDTH 500 0
DWIDTH 7 0
BBX 6 11 0 -2
BITMAP
F0
60
60
78
6C
6C
6C
6C
6C
0C
18
ENDCHAR
STARTCHAR afii10052
ENCODING 1027
SWIDTH 500 0
DWIDTH 7 0
BBX 6 11 0 0
BITMAP
18
30
FC
C0
C0
C0
C0
C0
C0
C0
C0
ENDCHAR
STARTCHAR afii10053
ENCODING 1028
SWIDTH 500 0
DWIDTH 7 0
BBX 6 9 0 0
BITMAP
7C
C0
C0
C0
F8
C0
C0
C0
7C
ENDCHAR
STARTCHAR afii10054
ENCODING 1029
SWIDTH 500 0
DWIDTH 7 0
BBX 6 9 0 0
BITMAP
7C
C0
C0
C0
78
0C
0C
0C
F8
ENDCHAR
STARTCHAR afii10055
ENCODING 1030
SWIDTH 500 0
DWIDTH 7 0
BBX 6 9 0 0
BITMAP
FC
30
30
30
30
30
30
30
FC
ENDCHAR
STARTCHAR afii10056
ENCODING 1031
SWIDTH 500 0
DWIDTH 7 0
BBX 6 11 0 0
BITMAP
6C
00
FC
30
30
30
30
30
30
30
FC
ENDCHAR
STARTCHAR afii10057
ENCODING 1032
SWIDTH 500 0
DWIDTH 7 0
BBX 6 9 0 0
BITMAP
3C
18
18
18
18
18
18
18
F0
ENDCHAR
STARTCHAR afii10058
ENCODING 1033
SWIDTH 500 0
DWIDTH 7 0
BBX 7 9 0 0
BITMAP
78
68
68
68
6C
6A
6A
6A
CC
ENDCHAR
STARTCHAR afii10059
ENCODING 1034
SWIDTH 500 0
DWIDTH 7 0
BBX 7 9 0 0
BITMAP
D8
D8
D8
D8
FC
DA
DA
DA
DC
ENDCHAR
STARTCHAR afii10060
ENCODING 1035
SWIDTH 500 0
DWIDTH 7 0
BBX 6 9 0 0
BITMAP
F0
60
60
78
6C
6C
6C
6C
6C
ENDCHAR
STARTCHAR afii10061
ENCODING 1036
SWIDTH 500 0
DWIDTH 7 0
BBX 6 11 0 0
BITMAP
18
30
CC
D8
F0
E0
C0
E0
F0
D8
CC
ENDCHAR
STARTCHAR uni040D
ENCODING 1037
SWIDTH 500 0
DWIDTH 7 0
BBX 6 11 0 0
BITMAP
60
30
CC
CC
DC
DC
FC
EC
EC
CC
CC
ENDCHAR
STARTCHAR afii10062
ENCODING 1038
SWIDTH 500 0
DWIDTH 7 0
BBX 6 11 0 0
BITMAP
CC
78
00
CC
CC
CC
CC
CC
7C
0C
78
ENDCHAR
STARTCHAR afii10145
ENCODING 1039
SWIDTH 500 0
DWIDTH 7 0
BBX 6 11 0 -2
BITMAP
CC
CC
CC
CC
CC
CC
CC
CC
FC
30
30
ENDCHAR
STARTCHAR afii10017
ENCODING 1040
SWIDTH 500 0
DWIDTH 7 0
BBX 6 9 0 0
BITMAP
78
CC
CC
CC
FC
CC
CC
CC
CC
ENDCHAR
STARTCHAR afii10018
ENCODING 1041
SWIDTH 500 0
DWIDTH 7 0
BBX 6 9 0 0
BITMAP
F8
C0
C0
C0
F8
CC
CC
CC
F8
ENDCHAR
STARTCHAR afii10019
ENCODING 1042
SWIDTH 500 0
DWIDTH 7 0
BBX 6 9 0 0
BITMAP
F8
CC
CC
CC
F8
CC
CC
CC
F8
ENDCHAR
STARTCHAR afii10020
ENCODING 1043
SWIDTH 500 0
DWIDTH 7 0
BBX 6 9 0 0
BITMAP
FC
C0
C0
C0
C0
C0
C0
C0
C0
ENDCHAR
STARTCHAR afii10021
ENCODING 1044
SWIDTH 500 0
DWIDTH 7 0
BBX 7 11 0 -2
BITMAP
3C
2C
2C
2C
2C
6C
6C
CC
FE
C6
C6
ENDCHAR
STARTCHAR afii10022
ENCODING 1045
SWIDTH 500 0
DWIDTH 7 0
BBX 6 9 0 0
BITMAP
FC
C0
C0
C0
F8
C0
C0
C0
FC
ENDCHAR
STARTCHAR afii10024
ENCODING 1046
SWIDTH 500 0
DWIDTH 7 0
BBX 6 9 0 0
BITMAP
B4
B4
B4
B4
78
B4
B4
B4
B4
ENDCHAR
STARTCHAR afii10025
ENCODING 1047
SWIDTH 500 0
DWIDTH 7 0
BBX 6 9 0 0
BITMAP
F8
0C
0C
0C
78
0C
0C
0C
F8
ENDCHAR
STARTCHAR afii10026
ENCODING 1048
SWIDTH 500 0
DWIDTH 7 0
BBX 6 9 0 0
BITMAP
CC
CC
DC
DC
FC
EC
EC
CC
CC
ENDCHAR
STARTCHAR afii10027
ENCODING 1049
SWIDTH 500 0
DWIDTH 7 0
BBX 6 11 0 0
BITMAP
CC
78
00
CC
CC
DC
DC
FC
EC
EC
CC
ENDCHAR
STARTCHAR afii10028
ENCODING 1050
SWIDTH 500 0
DWIDTH 7 0
BBX 6 9 0 0
BITMAP
CC
D8
F0
E0
C0
E0
F0
D8
CC
ENDCHAR
STARTCHAR afii10029
ENCODING 1051
SWIDTH 500 0
DWIDTH 7 0
BBX 6 9 0 0
BITMAP
7C
6C
6C
6C
6C
6C
6C
6C
CC
ENDCHAR
STARTCHAR afii10030
ENCODING 1052
SWIDTH 500 0
DWIDTH 7 0
BBX 6 9 0 0
BITMAP
84
CC
FC
FC
FC
CC
CC
CC
CC
ENDCHAR
STARTCHAR afii10031
ENCODING 1053
SWIDTH 500 0
DWIDTH 7 0
BBX 6 9 0 0
BITMAP
CC
CC
CC
CC
FC
CC
CC
CC
CC
ENDCHAR
STARTCHAR afii10032
ENCODING 1054
SWIDTH 500 0
DWIDTH 7 0
BBX 6 9 0 0
BITMAP
78
CC
CC
CC
CC
CC
CC
CC
78
ENDCHAR
STARTCHAR afii10033
ENCODING 1055
SWIDTH 500 0
DWIDTH 7 0
BBX 6 9 0 0
BITMAP
FC
CC
CC
CC
CC
CC
CC
CC
CC
ENDCHAR
STARTCHAR afii10034
ENCODING 1056
SWIDTH 500 0
DWIDTH 7 0
BBX 6 9 0 0
BITMAP
F8
CC
CC
CC
F8
C0
C0
C0
C0
ENDCHAR
STARTCHAR afii10035
ENCODING 1057
SWIDTH 500 0
DWIDTH 7 0
BBX 6 9 0 0
BITMAP
7C
C0
C0
C0
C0
C0
C0
C0
7C
ENDCHAR
STARTCHAR afii10036
ENCODING 1058
SWIDTH 500 0
DWIDTH 7 0
BBX 6 9 0 0
BITMAP
FC
30
30
30
30
30
30
30
30
ENDCHAR
STARTCHAR afii10037
ENCODING 1059
SWIDTH 500 0
DWIDTH 7 0
BBX 6 9 0 0
BITMAP
CC
CC
CC
CC
CC
CC
7C
0C
78
ENDCHAR
STARTCHAR afii10038
ENCODING 1060
SWIDTH 500 0
DWIDTH 7 0
BBX 6 11 0 -1
BITMAP
30
78
FC
B4
B4
B4
B4
B4
FC
78
30
ENDCHAR
STARTCHAR afii10039
ENCODING 1061
SWIDTH 500 0
DWIDTH 7 0
BBX 6 9 0 0
BITMAP
CC
CC
CC
78
30
78
CC
CC
CC
ENDCHAR
STARTCHAR afii10040
ENCODING 1062
SWIDTH 500 0
DWIDTH 7 0
BBX 7 11 0 -2
BITMAP
CC
CC
CC
CC
CC
CC
CC
CC
FE
06
06
ENDCHAR
STARTCHAR afii10041
ENCODING 1063
SWIDTH 500 0
DWIDTH 7 0
BBX 6 9 0 0
BITMAP
CC
CC
CC
CC
7C
0C
0C
0C
0C
ENDCHAR
STARTCHAR afii10042
ENCODING 1064
SWIDTH 500 0
DWIDTH 7 0
BBX 6 9 0 0
BITMAP
D4
D4
D4
D4
D4
D4
D4
D4
FC
ENDCHAR
STARTCHAR afii10043
ENCODING 1065
SWIDTH 500 0
DWIDTH 7 0
BBX 7 11 0 -2
BITMAP
D4
D4
D4
D4
D4
D4
D4
D4
FE
06
06
ENDCHAR
STARTCHAR afii10044
ENCODING 1066
SWIDTH 500 0
DWIDTH 7 0
BBX 6 9 0 0
BITMAP
E0
60
78
6C
6C
6C
6C
6C
78
ENDCHAR
STARTCHAR afii10045
ENCODING 1067
SWIDTH 500 0
DWIDTH 7 0
BBX 6 9 0 0
BITMAP
DC
CC
EC
DC
DC
DC
DC
DC
EC
ENDCHAR
STARTCHAR afii10046
ENCODING 1068
SWIDTH 500 0
DWIDTH 7 0
BBX 6 9 0 0
BITMAP
C0
C0
F8
CC
CC
CC
CC
CC
F8
ENDCHAR
STARTCHAR afii10047
ENCODING 1069
SWIDTH 500 0
DWIDTH 7 0
BBX 6 9 0 0
BITMAP
F8
0C
0C
0C
7C
0C
0C
0C
F8
ENDCHAR
STARTCHAR afii10048
ENCODING 1070
SWIDTH 500 0
DWIDTH 7 0
BBX 7 9 0 0
BITMAP
9C
B6
B6
B6
F6
B6
B6
B6
9C
ENDCHAR
STARTCHAR afii10049
ENCODING 1071
SWIDTH 500 0
DWIDTH 7 0
BBX 6 9 0 0
BITMAP
7C
CC
CC
CC
7C
1C
3C
6C
CC
ENDCHAR
STARTCHAR afii10065
ENCODING 1072
SWIDTH 500 0
DWIDTH 7 0
BBX 6 7 0 0
BITMAP
78
0C
0C
7C
CC
CC
7C
ENDCHAR
STARTCHAR afii10066
ENCODING 1073
SWIDTH 500 0
DWIDTH 7 0
BBX 6 9 0 0
BITMAP
78
C0
F8
CC
CC
CC
CC
CC
78
ENDCHAR
STARTCHAR afii10067
ENCODING 1074
SWIDTH 500 0
DWIDTH 7 0
BBX 6 7 0 0
BITMAP
F8
CC
CC
F8
CC
CC
F8
ENDCHAR
STARTCHAR afii10068
ENCODING 1075
SWIDTH 500 0
DWIDTH 7 0
BBX 6 7 0 0
BITMAP
FC
C0
C0
C0
C0
C0
C0
ENDCHAR
STARTCHAR afii10069
ENCODING 1076
SWIDTH 500 0
DWIDTH 7 0
BBX 7 9 0 -2
BITMAP
3C
2C
2C
2C
6C
6C
FE
C6
C6
ENDCHAR
STARTCHAR afii10070
ENCODING 1077
SWIDTH 500 0
DWIDTH 7 0
BBX 6 7 0 0
BITMAP
78
CC
CC
FC
C0
C0
7C
ENDCHAR
STARTCHAR afii10072
ENCODING 1078
SWIDTH 500 0
DWIDTH 7 0
BBX 6 7 0 0
BITMAP
B4
B4
B4
78
B4
B4
B4
ENDCHAR
STARTCHAR afii10073
ENCODING 1079
SWIDTH 500 0
DWIDTH 7 0
BBX 6 7 0 0
BITMAP
F8
0C
0C
78
0C
0C
F8
ENDCHAR
STARTCHAR afii10074
ENCODING 1080
SWIDTH 500 0
DWIDTH 7 0
BBX 6 7 0 0
BITMAP
CC
CC
DC
FC
EC
CC
CC
ENDCHAR
STARTCHAR afii10075
ENCODING 1081
SWIDTH 500 0
DWIDTH 7 0
BBX 6 10 0 0
BITMAP
CC
78
00
CC
CC
DC
FC
EC
CC
CC
ENDCHAR
STARTCHAR afii10076
ENCODING 1082
SWIDTH 500 0
DWIDTH 7 0
BBX 6 7 0 0
BITMAP
CC
D8
F0
E0
F0
D8
CC
ENDCHAR
STARTCHAR afii10077
ENCODING 1083
SWIDTH 500 0
DWIDTH 7 0
BBX 6 7 0 0
BITMAP
7C
6C
6C
6C
6C
6C
CC
ENDCHAR
STARTCHAR afii10078
ENCODING 1084
SWIDTH 500 0
DWIDTH 7 0
BBX 6 7 0 0
BITMAP
84
CC
FC
FC
CC
CC
CC
ENDCHAR
STARTCHAR afii10079
ENCODING 1085
SWIDTH 500 0
DWIDTH 7 0
BBX 6 7 0 0
BITMAP
CC
CC
CC
FC
CC
CC
CC
ENDCHAR
STARTCHAR afii10080
ENCODING 1086
SWIDTH 500 0
DWIDTH 7 0
BBX 6 7 0 0
BITMAP
78
CC
CC
CC
CC
CC
78
ENDCHAR
STARTCHAR afii10081
ENCODING 1087
SWIDTH 500 0
DWIDTH 7 0
BBX 6 7 0 0
BITMAP
FC
CC
CC
CC
CC
CC
CC
ENDCHAR
STARTCHAR afii10082
ENCODING 1088
SWIDTH 500 0
DWIDTH 7 0
BBX 6 9 0 -2
BITMAP
F8
CC
CC
CC
CC
CC
F8
C0
C0
ENDCHAR
STARTCHAR afii10083
ENCODING 1089
SWIDTH 500 0
DWIDTH 7 0
BBX 6 7 0 0
BITMAP
7C
C0
C0
C0
C0
C0
7C
ENDCHAR
STARTCHAR afii10084
ENCODING 1090
SWIDTH 500 0
DWIDTH 7 0
BBX 6 7 0 0
BITMAP
FC
30
30
30
30
30
30
ENDCHAR
STARTCHAR afii10085
ENCODING 1091
SWIDTH 500 0
DWIDTH 7 0
BBX 6 9 0 -2
BITMAP
CC
CC
CC
CC
CC
CC
7C
0C
78
ENDCHAR
STARTCHAR afii10086
ENCODING 1092
SWIDTH 500 0
DWIDTH 7 0
BBX 6 9 0 -1
BITMAP
30
78
B4
B4
B4
B4
B4
78
30
ENDCHAR
STARTCHAR afii10087
ENCODING 1093
SWIDTH 500 0
DWIDTH 7 0
BBX 6 7 0 0
BITMAP
CC
CC
78
30
78
CC
CC
ENDCHAR
STARTCHAR afii10088
ENCODING 1094
SWIDTH 500 0
DWIDTH 7 0
BBX 7 9 0 -2
BITMAP
CC
CC
CC
CC
CC
CC
FE
06
06
ENDCHAR
STARTCHAR afii10089
ENCODING 1095
SWIDTH 500 0
DWIDTH 7 0
BBX 6 7 0 0
BITMAP
CC
CC
CC
7C
0C
0C
0C
ENDCHAR
STARTCHAR afii10090
ENCODING 1096
SWIDTH 500 0
DWIDTH 7 0
BBX 6 7 0 0
BITMAP
D4
D4
D4
D4
D4
D4
FC
ENDCHAR
STARTCHAR afii10091
ENCODING 1097
SWIDTH 500 0
DWIDTH 7 0
BBX 7 8 0 -2
BITMAP
D4
D4
D4
D4
D4
FE
06
06
ENDCHAR
STARTCHAR afii10092
ENCODING 1098
SWIDTH 500 0
DWIDTH 7 0
BBX 6 7 0 0
BITMAP
E0
60
78
6C
6C
6C
78
ENDCHAR
STARTCHAR afii10093
ENCODING 1099
SWIDTH 500 0
DWIDTH 7 0
BBX 6 7 0 0
BITMAP
DC
CC
EC
DC
DC
DC
EC
ENDCHAR
STARTCHAR afii10094
ENCODING 1100
SWIDTH 500 0
DWIDTH 7 0
BBX 6 7 0 0
BITMAP
C0
C0
F8
CC
CC
CC
F8
ENDCHAR
STARTCHAR afii10095
ENCODING 1101
SWIDTH 500 0
DWIDTH 7 0
BBX 6 7 0 0
BITMAP
F8
0C
0C
7C
0C
0C
F8
ENDCHAR
STARTCHAR afii10096
ENCODING 1102
SWIDTH 500 0
DWIDTH 7 0
BBX 7 7 0 0
BITMAP
9C
B6
B6
F6
B6
B6
9C
ENDCHAR
STARTCHAR afii10097
ENCODING 1103
SWIDTH 500 0
DWIDTH 7 0
BBX 6 7 0 0
BITMAP
7C
CC
CC
7C
3C
6C
CC
ENDCHAR
STARTCHAR uni0450
ENCODING 1104
SWIDTH 500 0
DWIDTH 7 0
BBX 6 10 0 0
BITMAP
60
30
00
78
CC
CC
FC
C0
C0
7C
ENDCHAR
STARTCHAR afii10071
ENCODING 1105
SWIDTH 500 0
DWIDTH 7 0
BBX 6 9 0 0
BITMAP
6C
00
78
CC
CC
FC
C0
C0
7C
ENDCHAR
STARTCHAR afii10099
ENCODING 1106
SWIDTH 500 0
DWIDTH 7 0
BBX 6 11 0 -2
BITMAP
60
F8
60
78
6C
6C
6C
6C
6C
0C
18
ENDCHAR
STARTCHAR afii10100
ENCODING 1107
SWIDTH 500 0
DWIDTH 7 0
BBX 6 10 0 0
BITMAP
18
30
00
FC
C0
C0
C0
C0
C0
C0
ENDCHAR
STARTCHAR afii10101
ENCODING 1108
SWIDTH 500 0
DWIDTH 7 0
BBX 6 7 0 0
BITMAP
7C
C0
C0
F8
C0
C0
7C
ENDCHAR
STARTCHAR afii10102
ENCODING 1109
SWIDTH 500 0
DWIDTH 7 0
BBX 6 7 0 0
BITMAP
7C
C0
C0
78
0C
0C
F8
ENDCHAR
STARTCHAR afii10103
ENCODING 1110
SWIDTH 500 0
DWIDTH 7 0
BBX 3 10 1 0
BITMAP
60
60
00
E0
60
60
60
60
60
60
ENDCHAR
STARTCHAR afii10104
ENCODING 1111
SWIDTH 500 0
DWIDTH 7 0
BBX 5 9 0 0
BITMAP
D8
00
70
30
30
30
30
30
30
ENDCHAR
STARTCHAR afii10105
ENCODING 1112
SWIDTH 500 0
DWIDTH 7 0
BBX 4 12 0 -2
BITMAP
30
30
00
70
30
30
30
30
30
30
30
E0
ENDCHAR
STARTCHAR afii10106
ENCODING 1113
SWIDTH 500 0
DWIDTH 7 0
BBX 7 7 0 0
BITMAP
78
68
6C
6A
6A
6A
CC
ENDCHAR
STARTCHAR afii10107
ENCODING 1114
SWIDTH 500 0
DWIDTH 7 0
BBX 7 7 0 0
BITMAP
D8
D8
FC
DA
DA
DA
DC
ENDCHAR
STARTCHAR afii10108
ENCODING 1115
SWIDTH 500 0
DWIDTH 7 0
BBX 6 9 0 0
BITMAP
60
F8
60
78
6C
6C
6C
6C
6C
ENDCHAR
STARTCHAR afii10109
ENCODING 1116
SWIDTH 500 0
DWIDTH 7 0
BBX 6 10 0 0
BITMAP
18
30
00
CC
D8
F0
E0
F0
D8
CC
ENDCHAR
STARTCHAR uni045D
ENCODING 1117
SWIDTH 500 0
DWIDTH 7 0
BBX 6 10 0 0
BITMAP
60
30
00
CC
CC
DC
FC
EC
CC
CC
ENDCHAR
STARTCHAR afii10110
ENCODING 1118
SWIDTH 500 0
DWIDTH 7 0
BBX 6 12 0 -2
BITMAP
CC
78
00
CC
CC
CC
CC
CC
CC
7C
0C
78
ENDCHAR
STARTCHAR afii10193
ENCODING 1119
SWIDTH 500 0
DWIDTH 7 0
BBX 6 9 0 -2
BITMAP
CC
CC
CC
CC
CC
CC
FC
30
30
ENDCHAR
STARTCHAR uni0460
ENCODING 1120
SWIDTH 1000 0
DWIDTH 7 0
BBX 6 9 0 0
BITMAP
84
84
B4
B4
B4
B4
B4
B4
78
ENDCHAR
STARTCHAR uni0461
ENCODING 1121
SWIDTH 538 0
DWIDTH 7 0
BBX 6 7 0 0
BITMAP
84
84
B4
B4
B4
B4
78
ENDCHAR
STARTCHAR afii10146
ENCODING 1122
SWIDTH 538 0
DWIDTH 7 0
BBX 6 9 0 0
BITMAP
60
F8
60
78
6C
6C
6C
6C
78
ENDCHAR
STARTCHAR afii10194
ENCODING 1123
SWIDTH 538 0
DWIDTH 7 0
BBX 6 9 0 0
BITMAP
60
60
60
F8
60
78
6C
6C
78
ENDCHAR
STARTCHAR uni0464
ENCODING 1124
SWIDTH 538 0
DWIDTH 7 0
BBX 6 9 0 0
BITMAP
9C
B0
B0
B0
FC
B0
B0
B0
9C
ENDCHAR
STARTCHAR uni0465
ENCODING 1125
SWIDTH 538 0
DWIDTH 7 0
BBX 6 7 0 0
BITMAP
9C
B0
B0
FC
B0
B0
9C
ENDCHAR
STARTCHAR uni0466
ENCODING 1126
SWIDTH 538 0
DWIDTH 7 0
BBX 7 9 0 0
BITMAP
38
38
6C
6C
C6
FE
D6
D6
D6
ENDCHAR
STARTCHAR uni0467
ENCODING 1127
SWIDTH 538 0
DWIDTH 7 0
BBX 7 7 0 0
BITMAP
38
6C
C6
FE
D6
D6
D6
ENDCHAR
STARTCHAR uni0468
ENCODING 1128
SWIDTH 538 0
DWIDTH 7 0
BBX 7 9 0 0
BITMAP
88
88
9C
9C
F6
BE
AA
AA
AA
ENDCHAR
STARTCHAR uni0469
ENCODING 1129
SWIDTH 538 0
DWIDTH 7 0
BBX 7 7 0 0
BITMAP
88
9C
B6
FE
AA
AA
AA
ENDCHAR
STARTCHAR uni046A
ENCODING 1130
SWIDTH 538 0
DWIDTH 7 0
BBX 7 9 0 0
BITMAP
FE
C6
6C
38
10
7C
D6
D6
D6
ENDCHAR
STARTCHAR uni046B
ENCODING 1131
SWIDTH 538 0
DWIDTH 7 0
BBX 7 7 0 0
BITMAP
7C
6C
38
10
7C
D6
D6
ENDCHAR
STARTCHAR uni046C
ENCODING 1132
SWIDTH 538 0
DWIDTH 7 0
BBX 7 9 0 0
BITMAP
BE
B6
9C
9C
E8
9C
AA
AA
AA
ENDCHAR
STARTCHAR uni046D
ENCODING 1133
SWIDTH 538 0
DWIDTH 7 0
BBX 7 7 0 0
BITMAP
BE
B6
9C
E8
9C
AA
AA
ENDCHAR
STARTCHAR uni046E
ENCODING 1134
SWIDTH 538 0
DWIDTH 7 0
BBX 5 13 1 -2
BITMAP
50
20
00
F0
18
18
70
18
18
18
70
C0
70
ENDCHAR
STARTCHAR uni046F
ENCODING 1135
SWIDTH 538 0
DWIDTH 7 0
BBX 5 12 1 -2
BITMAP
50
20
00
F0
18
18
70
18
18
70
C0
70
ENDCHAR
STARTCHAR uni0470
ENCODING 1136
SWIDTH 500 0
DWIDTH 7 0
BBX 6 9 0 0
BITMAP
B4
B4
B4
B4
B4
B4
78
30
30
ENDCHAR
STARTCHAR uni0471
ENCODING 1137
SWIDTH 500 0
DWIDTH 7 0
BBX 6 9 0 -2
BITMAP
30
B4
B4
B4
B4
B4
78
30
30
ENDCHAR
STARTCHAR afii10147
ENCODING 1138
SWIDTH 500 0
DWIDTH 7 0
BBX 6 9 0 0
BITMAP
78
CC
CC
CC
FC
CC
CC
CC
78
ENDCHAR
STARTCHAR afii10195
ENCODING 1139
SWIDTH 500 0
DWIDTH 7 0
BBX 6 7 0 0
BITMAP
78
CC
CC
FC
CC
CC
78
ENDCHAR
STARTCHAR afii10148
ENCODING 1140
SWIDTH 538 0
DWIDTH 7 0
BBX 7 9 0 0
BITMAP
C6
CC
CC
78
78
78
30
30
30
ENDCHAR
STARTCHAR afii10196
ENCODING 1141
SWIDTH 538 0
DWIDTH 7 0
BBX 7 7 0 0
BITMAP
C6
CC
CC
78
78
30
30
ENDCHAR
STARTCHAR uni0476
ENCODING 1142
SWIDTH 538 0
DWIDTH 7 0
BBX 7 11 0 0
BITMAP
D8
6C
00
C6
CC
78
78
78
30
30
30
ENDCHAR
STARTCHAR uni0477
ENCODING 1143
SWIDTH 538 0
DWIDTH 7 0
BBX 7 10 0 0
BITMAP
D8
6C
00
C6
CC
CC
78
78
30
30
ENDCHAR
STARTCHAR uni0478
ENCODING 1144
SWIDTH 538 0
DWIDTH 7 0
BBX 7 11 0 -2
BITMAP
40
E0
B6
B6
B6
B6
B6
F6
5E
06
3C
ENDCHAR
STARTCHAR uni0479
ENCODING 1145
SWIDTH 538 0
DWIDTH 7 0
BBX 7 9 0 -2
BITMAP
56
F6
B6
B6
B6
F6
5E
06
3C
ENDCHAR
STARTCHAR uni047A
ENCODING 1146
SWIDTH 538 0
DWIDTH 7 0
BBX 6 11 0 -1
BITMAP
30
78
B4
84
84
84
84
84
B4
78
30
ENDCHAR
STARTCHAR uni047B
ENCODING 1147
SWIDTH 538 0
DWIDTH 7 0
BBX 6 9 0 -1
BITMAP
30
78
B4
84
84
84
B4
78
30
ENDCHAR
STARTCHAR uni047C
ENCODING 1148
SWIDTH 538 0
DWIDTH 7 0
BBX 6 11 0 0
BITMAP
78
CC
00
B4
84
B4
B4
B4
B4
B4
78
ENDCHAR
STARTCHAR uni047D
ENCODING 1149
SWIDTH 538 0
DWIDTH 7 0
BBX 6 10 0 0
BITMAP
78
CC
00
B4
84
B4
B4
B4
B4
78
ENDCHAR
STARTCHAR uni047E
ENCODING 1150
SWIDTH 538 0
DWIDTH 7 0
BBX 6 11 0 0
BITMAP
78
30
B4
84
84
B4
B4
B4
B4
B4
78
ENDCHAR
STARTCHAR uni047F
ENCODING 1151
SWIDTH 538 0
DWIDTH 7 0
BBX 6 10 0 0
BITMAP
78
30
30
84
84
84
B4
B4
B4
78
ENDCHAR
STARTCHAR uni0480
ENCODING 1152
SWIDTH 538 0
DWIDTH 7 0
BBX 6 11 0 -2
BITMAP
7C
C0
C0
C0
C0
C0
C0
C0
7C
0C
0C
ENDCHAR
STARTCHAR uni0481
ENCODING 1153
SWIDTH 538 0
DWIDTH 7 0
BBX 6 9 0 -2
BITMAP
7C
C0
C0
C0
C0
C0
7C
0C
0C
ENDCHAR
STARTCHAR uni0482
ENCODING 1154
SWIDTH 538 0
DWIDTH 7 0
BBX 5 6 1 0
BITMAP
18
70
38
E0
70
C0
ENDCHAR
STARTCHAR uni0483
ENCODING 1155
SWIDTH 0 0
DWIDTH 7 0
BBX 1 1 0 0
BITMAP
00
ENDCHAR
STARTCHAR uni0484
ENCODING 1156
SWIDTH 0 0
DWIDTH 7 0
BBX 1 1 0 0
BITMAP
00
ENDCHAR
STARTCHAR uni0485
ENCODING 1157
SWIDTH 0 0
DWIDTH 7 0
BBX 1 1 0 0
BITMAP
00
ENDCHAR
STARTCHAR uni0486
ENCODING 1158
SWIDTH 0 0
DWIDTH 7 0
BBX 1 1 0 0
BITMAP
00
ENDCHAR
STARTCHAR uni0487
ENCODING 1159
SWIDTH 0 0
DWIDTH 7 0
BBX 1 1 0 0
BITMAP
00
ENDCHAR
STARTCHAR uni048A
ENCODING 1162
SWIDTH 500 0
DWIDTH 7 0
BBX 7 13 0 -2
BITMAP
CC
78
00
CC
CC
DC
DC
FC
EC
EC
CC
02
04
ENDCHAR
STARTCHAR uni048B
ENCODING 1163
SWIDTH 500 0
DWIDTH 7 0
BBX 7 12 0 -2
BITMAP
CC
78
00
CC
DC
DC
FC
EC
EC
CC
02
04
ENDCHAR
STARTCHAR uni048C
ENCODING 1164
SWIDTH 538 0
DWIDTH 7 0
BBX 6 9 0 0
BITMAP
60
F0
60
78
6C
6C
6C
6C
78
ENDCHAR
STARTCHAR uni048D
ENCODING 1165
SWIDTH 538 0
DWIDTH 7 0
BBX 6 7 0 0
BITMAP
60
F0
60
78
6C
6C
78
ENDCHAR
STARTCHAR uni048E
ENCODING 1166
SWIDTH 500 0
DWIDTH 7 0
BBX 6 9 0 0
BITMAP
F8
CC
CC
DC
F8
C8
C0
C0
C0
ENDCHAR
STARTCHAR uni048F
ENCODING 1167
SWIDTH 500 0
DWIDTH 7 0
BBX 6 9 0 -2
BITMAP
F8
CC
CC
CC
CC
DC
F8
C8
C0
ENDCHAR
STARTCHAR afii10050
ENCODING 1168
SWIDTH 500 0
DWIDTH 7 0
BBX 6 11 0 0
BITMAP
04
04
FC
C0
C0
C0
C0
C0
C0
C0
C0
ENDCHAR
STARTCHAR afii10098
ENCODING 1169
SWIDTH 500 0
DWIDTH 7 0
BBX 6 9 0 0
BITMAP
04
04
FC
C0
C0
C0
C0
C0
C0
ENDCHAR
STARTCHAR uni0492
ENCODING 1170
SWIDTH 500 0
DWIDTH 7 0
BBX 6 9 0 0
BITMAP
7C
60
60
60
F8
60
60
60
60
ENDCHAR
STARTCHAR uni0493
ENCODING 1171
SWIDTH 500 0
DWIDTH 7 0
BBX 6 7 0 0
BITMAP
7C
60
60
F8
60
60
60
ENDCHAR
STARTCHAR uni0494
ENCODING 1172
SWIDTH 500 0
DWIDTH 7 0
BBX 6 11 0 -2
BITMAP
FC
C0
C0
C0
F8
CC
CC
CC
CC
0C
18
ENDCHAR
STARTCHAR uni0495
ENCODING 1173
SWIDTH 500 0
DWIDTH 7 0
BBX 6 9 0 -2
BITMAP
FC
C0
C0
F8
CC
CC
CC
0C
18
ENDCHAR
STARTCHAR uni0496
ENCODING 1174
SWIDTH 500 0
DWIDTH 7 0
BBX 7 11 0 -2
BITMAP
B4
B4
B4
B4
78
B4
B4
B4
B6
02
02
ENDCHAR
STARTCHAR uni0497
ENCODING 1175
SWIDTH 500 0
DWIDTH 7 0
BBX 7 9 0 -2
BITMAP
B4
B4
B4
78
B4
B4
B6
02
02
ENDCHAR
STARTCHAR uni0498
ENCODING 1176
SWIDTH 500 0
DWIDTH 7 0
BBX 6 11 0 -2
BITMAP
F8
0C
0C
0C
78
0C
0C
0C
F8
10
10
ENDCHAR
STARTCHAR uni0499
ENCODING 1177
SWIDTH 500 0
DWIDTH 7 0
BBX 6 9 0 -2
BITMAP
F8
0C
0C
78
0C
0C
F8
10
10
ENDCHAR
STARTCHAR uni049A
ENCODING 1178
SWIDTH 500 0
DWIDTH 7 0
BBX 6 11 0 -2
BITMAP
CC
D8
F0
E0
C0
E0
F0
D8
CC
04
04
ENDCHAR
STARTCHAR uni049B
ENCODING 1179
SWIDTH 500 0
DWIDTH 7 0
BBX 6 9 0 -2
BITMAP
CC
D8
F0
E0
F0
D8
CC
04
04
ENDCHAR
STARTCHAR uni049C
ENCODING 1180
SWIDTH 500 0
DWIDTH 7 0
BBX 7 9 0 0
BITMAP
C6
D6
D6
DC
F8
DC
D6
D6
C6
ENDCHAR
STARTCHAR uni049D
ENCODING 1181
SWIDTH 500 0
DWIDTH 7 0
BBX 7 7 0 0
BITMAP
C6
D6
DC
F8
DC
D6
C6
ENDCHAR
STARTCHAR uni049E
ENCODING 1182
SWIDTH 538 0
DWIDTH 7 0
BBX 7 9 0 0
BITMAP
66
F6
6C
78
70
78
6C
66
66
ENDCHAR
STARTCHAR uni049F
ENCODING 1183
SWIDTH 538 0
DWIDTH 7 0
BBX 7 7 0 0
BITMAP
66
F6
6C
78
6C
66
66
ENDCHAR
STARTCHAR uni04A0
ENCODING 1184
SWIDTH 500 0
DWIDTH 7 0
BBX 7 9 0 0
BITMAP
E6
66
6C
78
70
78
6C
66
66
ENDCHAR
STARTCHAR uni04A1
ENCODING 1185
SWIDTH 500 0
DWIDTH 7 0
BBX 7 7 0 0
BITMAP
E6
66
6C
78
6C
66
66
ENDCHAR
STARTCHAR uni04A2
ENCODING 1186
SWIDTH 500 0
DWIDTH 7 0
BBX 7 11 0 -2
BITMAP
CC
CC
CC
CC
FC
CC
CC
CC
CE
02
02
ENDCHAR
STARTCHAR uni04A3
ENCODING 1187
SWIDTH 500 0
DWIDTH 7 0
BBX 7 9 0 -2
BITMAP
CC
CC
CC
FC
CC
CC
CE
02
02
ENDCHAR
STARTCHAR uni04A4
ENCODING 1188
SWIDTH 500 0
DWIDTH 7 0
BBX 7 9 0 0
BITMAP
CE
CC
CC
CC
FC
CC
CC
CC
CC
ENDCHAR
STARTCHAR uni04A5
ENCODING 1189
SWIDTH 500 0
DWIDTH 7 0
BBX 7 7 0 0
BITMAP
CE
CC
CC
FC
CC
CC
DC
ENDCHAR
STARTCHAR uni04A6
ENCODING 1190
SWIDTH 538 0
DWIDTH 7 0
BBX 7 11 0 -2
BITMAP
F0
D0
D0
D0
DC
D6
D6
D6
D6
06
0C
ENDCHAR
STARTCHAR uni04A7
ENCODING 1191
SWIDTH 538 0
DWIDTH 7 0
BBX 7 9 0 -2
BITMAP
F0
D0
DC
D6
D6
D6
D6
06
0C
ENDCHAR
STARTCHAR uni04A8
ENCODING 1192
SWIDTH 538 0
DWIDTH 7 0
BBX 6 11 0 -2
BITMAP
38
60
D8
B4
B4
B4
B4
B4
78
30
18
ENDCHAR
STARTCHAR uni04A9
ENCODING 1193
SWIDTH 538 0
DWIDTH 7 0
BBX 6 9 0 -2
BITMAP
38
60
D8
B4
B4
B4
78
30
18
ENDCHAR
STARTCHAR uni04AA
ENCODING 1194
SWIDTH 500 0
DWIDTH 7 0
BBX 6 11 0 -2
BITMAP
7C
C0
C0
C0
C0
C0
C0
C0
7C
10
10
ENDCHAR
STARTCHAR uni04AB
ENCODING 1195
SWIDTH 500 0
DWIDTH 7 0
BBX 6 9 0 -2
BITMAP
7C
C0
C0
C0
C0
C0
7C
10
10
ENDCHAR
STARTCHAR uni04AC
ENCODING 1196
SWIDTH 1000 0
DWIDTH 7 0
BBX 6 11 0 -2
BITMAP
FC
30
30
30
30
30
30
30
38
08
08
ENDCHAR
STARTCHAR uni04AD
ENCODING 1197
SWIDTH 1000 0
DWIDTH 7 0
BBX 6 9 0 -2
BITMAP
FC
30
30
30
30
30
38
08
08
ENDCHAR
STARTCHAR uni04AE
ENCODING 1198
SWIDTH 500 0
DWIDTH 7 0
BBX 6 9 0 0
BITMAP
CC
CC
78
78
30
30
30
30
30
ENDCHAR
STARTCHAR uni04AF
ENCODING 1199
SWIDTH 500 0
DWIDTH 7 0
BBX 6 9 0 -2
BITMAP
CC
CC
78
78
78
30
30
30
30
ENDCHAR
STARTCHAR uni04B0
ENCODING 1200
SWIDTH 500 0
DWIDTH 7 0
BBX 6 9 0 0
BITMAP
CC
CC
78
78
30
78
30
30
30
ENDCHAR
STARTCHAR uni04B1
ENCODING 1201
SWIDTH 500 0
DWIDTH 7 0
BBX 6 9 0 -2
BITMAP
CC
CC
CC
78
78
30
78
30
30
ENDCHAR
STARTCHAR uni04B2
ENCODING 1202
SWIDTH 500 0
DWIDTH 7 0
BBX 7 11 0 -2
BITMAP
CC
CC
CC
78
30
78
CC
CC
CE
02
02
ENDCHAR
STARTCHAR uni04B3
ENCODING 1203
SWIDTH 500 0
DWIDTH 7 0
BBX 7 9 0 -2
BITMAP
CC
CC
78
30
78
CC
CE
02
02
ENDCHAR
STARTCHAR uni04B4
ENCODING 1204
SWIDTH 538 0
DWIDTH 7 0
BBX 7 11 0 -2
BITMAP
F0
6C
6C
6C
6C
6C
6C
6C
7E
02
02
ENDCHAR
STARTCHAR uni04B5
ENCODING 1205
SWIDTH 538 0
DWIDTH 7 0
BBX 7 9 0 -2
BITMAP
F0
6C
6C
6C
6C
6C
7E
02
02
ENDCHAR
STARTCHAR uni04B6
ENCODING 1206
SWIDTH 500 0
DWIDTH 7 0
BBX 7 11 0 -2
BITMAP
CC
CC
CC
CC
7C
0C
0C
0C
0E
02
02
ENDCHAR
STARTCHAR uni04B7
ENCODING 1207
SWIDTH 500 0
DWIDTH 7 0
BBX 7 9 0 -2
BITMAP
CC
CC
CC
7C
0C
0C
0E
02
02
ENDCHAR
STARTCHAR uni04B8
ENCODING 1208
SWIDTH 500 0
DWIDTH 7 0
BBX 7 9 0 0
BITMAP
C6
C6
C6
D6
7E
16
06
06
06
ENDCHAR
STARTCHAR uni04B9
ENCODING 1209
SWIDTH 500 0
DWIDTH 7 0
BBX 7 7 0 0
BITMAP
C6
C6
D6
7E
16
06
06
ENDCHAR
STARTCHAR uni04BA
ENCODING 1210
SWIDTH 500 0
DWIDTH 7 0
BBX 6 9 0 0
BITMAP
C0
C0
C0
C0
F8
CC
CC
CC
CC
ENDCHAR
STARTCHAR uni04BB
ENCODING 1211
SWIDTH 500 0
DWIDTH 7 0
BBX 6 9 0 0
BITMAP
C0
C0
F8
CC
CC
CC
CC
CC
CC
ENDCHAR
STARTCHAR uni04BC
ENCODING 1212
SWIDTH 538 0
DWIDTH 7 0
BBX 6 9 0 0
BITMAP
38
6C
6C
EC
7C
60
60
60
3C
ENDCHAR
STARTCHAR uni04BD
ENCODING 1213
SWIDTH 538 0
DWIDTH 7 0
BBX 6 7 0 0
BITMAP
38
6C
EC
7C
60
60
3C
ENDCHAR
STARTCHAR uni04BE
ENCODING 1214
SWIDTH 538 0
DWIDTH 7 0
BBX 6 11 0 -2
BITMAP
38
6C
6C
EC
7C
60
60
60
3C
10
10
ENDCHAR
STARTCHAR uni04BF
ENCODING 1215
SWIDTH 538 0
DWIDTH 7 0
BBX 6 9 0 -2
BITMAP
38
6C
EC
7C
60
60
3C
10
10
ENDCHAR
STARTCHAR uni04C0
ENCODING 1216
SWIDTH 538 0
DWIDTH 7 0
BBX 6 9 0 0
BITMAP
FC
30
30
30
30
30
30
30
FC
ENDCHAR
STARTCHAR uni04C1
ENCODING 1217
SWIDTH 538 0
DWIDTH 7 0
BBX 6 11 0 0
BITMAP
CC
78
00
B4
B4
B4
78
B4
B4
B4
B4
ENDCHAR
STARTCHAR uni04C2
ENCODING 1218
SWIDTH 538 0
DWIDTH 7 0
BBX 6 10 0 0
BITMAP
44
38
00
B4
B4
B4
78
B4
B4
B4
ENDCHAR
STARTCHAR uni04C3
ENCODING 1219
SWIDTH 538 0
DWIDTH 7 0
BBX 6 11 0 -2
BITMAP
CC
D8
F0
E0
C0
E0
F0
D8
CC
04
18
ENDCHAR
STARTCHAR uni04C4
ENCODING 1220
SWIDTH 538 0
DWIDTH 7 0
BBX 6 9 0 -2
BITMAP
CC
D8
F0
E0
F0
D8
CC
04
18
ENDCHAR
STARTCHAR uni04C5
ENCODING 1221
SWIDTH 538 0
DWIDTH 7 0
BBX 7 11 0 -2
BITMAP
7C
6C
6C
6C
6C
6C
6C
6C
CC
02
04
ENDCHAR
STARTCHAR uni04C6
ENCODING 1222
SWIDTH 538 0
DWIDTH 7 0
BBX 7 9 0 -2
BITMAP
7C
6C
6C
6C
6C
6C
CC
02
04
ENDCHAR
STARTCHAR uni04C7
ENCODING 1223
SWIDTH 538 0
DWIDTH 7 0
BBX 6 11 0 -2
BITMAP
CC
CC
CC
CC
FC
CC
CC
CC
CC
04
18
ENDCHAR
STARTCHAR uni04C8
ENCODING 1224
SWIDTH 538 0
DWIDTH 7 0
BBX 6 9 0 -2
BITMAP
CC
CC
CC
FC
CC
CC
CC
04
18
ENDCHAR
STARTCHAR uni04C9
ENCODING 1225
SWIDTH 538 0
DWIDTH 7 0
BBX 7 11 0 -2
BITMAP
CC
CC
CC
CC
FC
CC
CC
CC
CC
02
04
ENDCHAR
STARTCHAR uni04CA
ENCODING 1226
SWIDTH 538 0
DWIDTH 7 0
BBX 7 9 0 -2
BITMAP
CC
CC
CC
FC
CC
CC
CC
02
04
ENDCHAR
STARTCHAR uni04CB
ENCODING 1227
SWIDTH 538 0
DWIDTH 7 0
BBX 6 11 0 -2
BITMAP
CC
CC
CC
CC
7C
0C
0C
0C
1C
10
10
ENDCHAR
STARTCHAR uni04CC
ENCODING 1228
SWIDTH 538 0
DWIDTH 7 0
BBX 6 9 0 -2
BITMAP
CC
CC
CC
7C
0C
0C
1C
10
10
ENDCHAR
STARTCHAR uni04CD
ENCODING 1229
SWIDTH 538 0
DWIDTH 7 0
BBX 7 11 0 -2
BITMAP
84
CC
FC
FC
FC
CC
CC
CC
CC
02
04
ENDCHAR
STARTCHAR uni04CE
ENCODING 1230
SWIDTH 538 0
DWIDTH 7 0
BBX 7 9 0 -2
BITMAP
84
CC
FC
FC
CC
CC
CC
02
04
ENDCHAR
STARTCHAR uni04CF
ENCODING 1231
SWIDTH 538 0
DWIDTH 7 0
BBX 6 9 0 0
BITMAP
FC
30
30
30
30
30
30
30
FC
ENDCHAR
STARTCHAR uni04D0
ENCODING 1232
SWIDTH 500 0
DWIDTH 7 0
BBX 6 11 0 0
BITMAP
CC
78
00
78
CC
CC
FC
CC
CC
CC
CC
ENDCHAR
STARTCHAR uni04D1
ENCODING 1233
SWIDTH 500 0
DWIDTH 7 0
BBX 6 10 0 0
BITMAP
CC
78
00
78
0C
0C
7C
CC
CC
7C
ENDCHAR
STARTCHAR uni04D2
ENCODING 1234
SWIDTH 500 0
DWIDTH 7 0
BBX 6 11 0 0
BITMAP
6C
00
78
CC
CC
CC
FC
CC
CC
CC
CC
ENDCHAR
STARTCHAR uni04D3
ENCODING 1235
SWIDTH 500 0
DWIDTH 7 0
BBX 6 9 0 0
BITMAP
6C
00
78
0C
0C
7C
CC
CC
7C
ENDCHAR
STARTCHAR uni04D4
ENCODING 1236
SWIDTH 500 0
DWIDTH 7 0
BBX 7 9 0 0
BITMAP
7E
D8
D8
D8
FE
D8
D8
D8
DE
ENDCHAR
STARTCHAR uni04D5
ENCODING 1237
SWIDTH 500 0
DWIDTH 7 0
BBX 7 7 0 0
BITMAP
7C
1A
1A
7E
D8
D8
7E
ENDCHAR
STARTCHAR uni04D6
ENCODING 1238
SWIDTH 500 0
DWIDTH 7 0
BBX 6 11 0 0
BITMAP
CC
78
00
FC
C0
C0
F8
C0
C0
C0
FC
ENDCHAR
STARTCHAR uni04D7
ENCODING 1239
SWIDTH 500 0
DWIDTH 7 0
BBX 6 10 0 0
BITMAP
CC
78
00
78
CC
CC
FC
C0
C0
7C
ENDCHAR
STARTCHAR uni04D8
ENCODING 1240
SWIDTH 500 0
DWIDTH 7 0
BBX 6 9 0 0
BITMAP
F8
0C
0C
0C
FC
CC
CC
CC
78
ENDCHAR
STARTCHAR afii10846
ENCODING 1241
SWIDTH 500 0
DWIDTH 7 0
BBX 6 7 0 0
BITMAP
78
0C
0C
FC
CC
CC
78
ENDCHAR
STARTCHAR uni04DA
ENCODING 1242
SWIDTH 500 0
DWIDTH 7 0
BBX 6 11 0 0
BITMAP
6C
00
F8
0C
0C
0C
FC
CC
CC
CC
78
ENDCHAR
STARTCHAR uni04DB
ENCODING 1243
SWIDTH 500 0
DWIDTH 7 0
BBX 6 9 0 0
BITMAP
6C
00
F8
0C
0C
FC
CC
CC
78
ENDCHAR
STARTCHAR uni04DC
ENCODING 1244
SWIDTH 500 0
DWIDTH 7 0
BBX 6 11 0 0
BITMAP
6C
00
B4
B4
B4
B4
78
B4
B4
B4
B4
ENDCHAR
STARTCHAR uni04DD
ENCODING 1245
SWIDTH 500 0
DWIDTH 7 0
BBX 6 9 0 0
BITMAP
6C
00
B4
B4
B4
78
B4
B4
B4
ENDCHAR
STARTCHAR uni04DE
ENCODING 1246
SWIDTH 500 0
DWIDTH 7 0
BBX 6 11 0 0
BITMAP
6C
00
F8
0C
0C
0C
78
0C
0C
0C
F8
ENDCHAR
STARTCHAR uni04DF
ENCODING 1247
SWIDTH 500 0
DWIDTH 7 0
BBX 6 9 0 0
BITMAP
6C
00
F8
0C
0C
78
0C
0C
F8
ENDCHAR
STARTCHAR uni04E0
ENCODING 1248
SWIDTH 500 0
DWIDTH 7 0
BBX 6 9 0 0
BITMAP
FC
0C
18
30
78
0C
0C
0C
F8
ENDCHAR
STARTCHAR uni04E1
ENCODING 1249
SWIDTH 500 0
DWIDTH 7 0
BBX 6 9 0 -2
BITMAP
FC
0C
18
30
78
0C
0C
0C
F8
ENDCHAR
STARTCHAR uni04E2
ENCODING 1250
SWIDTH 500 0
DWIDTH 7 0
BBX 6 11 0 0
BITMAP
78
00
CC
CC
DC
DC
FC
EC
EC
CC
CC
ENDCHAR
STARTCHAR uni04E3
ENCODING 1251
SWIDTH 500 0
DWIDTH 7 0
BBX 6 9 0 0
BITMAP
78
00
CC
CC
DC
FC
EC
CC
CC
ENDCHAR
STARTCHAR uni04E4
ENCODING 1252
SWIDTH 500 0
DWIDTH 7 0
BBX 6 11 0 0
BITMAP
6C
00
CC
CC
DC
DC
FC
EC
EC
CC
CC
ENDCHAR
STARTCHAR uni04E5
ENCODING 1253
SWIDTH 500 0
DWIDTH 7 0
BBX 6 9 0 0
BITMAP
28
00
CC
CC
DC
FC
EC
CC
CC
ENDCHAR
STARTCHAR uni04E6
ENCODING 1254
SWIDTH 500 0
DWIDTH 7 0
BBX 6 11 0 0
BITMAP
6C
00
78
CC
CC
CC
CC
CC
CC
CC
78
ENDCHAR
STARTCHAR uni04E7
ENCODING 1255
SWIDTH 500 0
DWIDTH 7 0
BBX 6 9 0 0
BITMAP
6C
00
78
CC
CC
CC
CC
CC
78
ENDCHAR
STARTCHAR uni04E8
ENCODING 1256
SWIDTH 500 0
DWIDTH 7 0
BBX 6 9 0 0
BITMAP
78
CC
CC
CC
FC
CC
CC
CC
78
ENDCHAR
STARTCHAR uni04E9
ENCODING 1257
SWIDTH 500 0
DWIDTH 7 0
BBX 6 7 0 0
BITMAP
78
CC
CC
FC
CC
CC
78
ENDCHAR
STARTCHAR uni04EA
ENCODING 1258
SWIDTH 500 0
DWIDTH 7 0
BBX 6 11 0 0
BITMAP
6C
00
78
CC
CC
CC
FC
CC
CC
CC
78
ENDCHAR
STARTCHAR uni04EB
ENCODING 1259
SWIDTH 500 0
DWIDTH 7 0
BBX 6 9 0 0
BITMAP
6C
00
78
CC
CC
FC
CC
CC
78
ENDCHAR
STARTCHAR uni04EC
ENCODING 1260
SWIDTH 500 0
DWIDTH 7 0
BBX 6 11 0 0
BITMAP
6C
00
F8
0C
0C
0C
7C
0C
0C
0C
F8
ENDCHAR
STARTCHAR uni04ED
ENCODING 1261
SWIDTH 500 0
DWIDTH 7 0
BBX 6 9 0 0
BITMAP
6C
00
F8
0C
0C
7C
0C
0C
F8
ENDCHAR
STARTCHAR uni04EE
ENCODING 1262
SWIDTH 500 0
DWIDTH 7 0
BBX 6 11 0 0
BITMAP
78
00
CC
CC
CC
CC
CC
CC
7C
0C
78
ENDCHAR
STARTCHAR uni04EF
ENCODING 1263
SWIDTH 500 0
DWIDTH 7 0
BBX 6 11 0 -2
BITMAP
78
00
CC
CC
CC
CC
CC
CC
7C
0C
78
ENDCHAR
STARTCHAR uni04F0
ENCODING 1264
SWIDTH 500 0
DWIDTH 7 0
BBX 6 11 0 0
BITMAP
6C
00
CC
CC
CC
CC
CC
CC
7C
0C
78
ENDCHAR
STARTCHAR uni04F1
ENCODING 1265
SWIDTH 500 0
DWIDTH 7 0
BBX 6 11 0 -2
BITMAP
6C
00
CC
CC
CC
CC
CC
CC
7C
0C
78
ENDCHAR
STARTCHAR uni04F2
ENCODING 1266
SWIDTH 500 0
DWIDTH 7 0
BBX 6 11 0 0
BITMAP
6C
D8
00
CC
CC
CC
CC
CC
7C
0C
78
ENDCHAR
STARTCHAR uni04F3
ENCODING 1267
SWIDTH 500 0
DWIDTH 7 0
BBX 6 12 0 -2
BITMAP
6C
D8
00
CC
CC
CC
CC
CC
CC
7C
0C
78
ENDCHAR
STARTCHAR uni04F4
ENCODING 1268
SWIDTH 500 0
DWIDTH 7 0
BBX 6 11 0 0
BITMAP
6C
00
CC
CC
CC
CC
7C
0C
0C
0C
0C
ENDCHAR
STARTCHAR uni04F5
ENCODING 1269
SWIDTH 500 0
DWIDTH 7 0
BBX 6 9 0 0
BITMAP
6C
00
CC
CC
CC
7C
0C
0C
0C
ENDCHAR
STARTCHAR uni04F6
ENCODING 1270
SWIDTH 1000 0
DWIDTH 7 0
BBX 6 11 0 -2
BITMAP
FC
C0
C0
C0
C0
C0
C0
C0
E0
20
20
ENDCHAR
STARTCHAR uni04F7
ENCODING 1271
SWIDTH 1000 0
DWIDTH 7 0
BBX 6 9 0 -2
BITMAP
FC
C0
C0
C0
C0
C0
E0
20
20
ENDCHAR
STARTCHAR uni04F8
ENCODING 1272
SWIDTH 500 0
DWIDTH 7 0
BBX 6 11 0 0
BITMAP
6C
00
CC
CC
CC
CC
EC
DC
DC
DC
EC
ENDCHAR
STARTCHAR uni04F9
ENCODING 1273
SWIDTH 500 0
DWIDTH 7 0
BBX 6 9 0 0
BITMAP
6C
00
CC
CC
CC
EC
DC
DC
EC
ENDCHAR
STARTCHAR uni04FA
ENCODING 1274
SWIDTH 538 0
DWIDTH 7 0
BBX 6 11 0 -2
BITMAP
7C
60
60
60
F8
60
60
60
60
60
C0
ENDCHAR
STARTCHAR uni04FB
ENCODING 1275
SWIDTH 538 0
DWIDTH 7 0
BBX 6 9 0 -2
BITMAP
7C
60
60
F8
60
60
60
60
C0
ENDCHAR
STARTCHAR uni04FC
ENCODING 1276
SWIDTH 538 0
DWIDTH 7 0
BBX 6 11 0 -2
BITMAP
CC
CC
CC
78
30
78
CC
CC
CC
04
08
ENDCHAR
STARTCHAR uni04FD
ENCODING 1277
SWIDTH 538 0
DWIDTH 7 0
BBX 6 9 0 -2
BITMAP
CC
CC
78
30
78
CC
CC
04
08
ENDCHAR
STARTCHAR uni04FE
ENCODING 1278
SWIDTH 538 0
DWIDTH 7 0
BBX 6 9 0 0
BITMAP
CC
CC
CC
78
FC
78
CC
CC
CC
ENDCHAR
STARTCHAR uni04FF
ENCODING 1279
SWIDTH 538 0
DWIDTH 7 0
BBX 6 7 0 0
BITMAP
CC
CC
78
FC
78
CC
CC
ENDCHAR
STARTCHAR uni0500
ENCODING 1280
SWIDTH 538 0
DWIDTH 7 0
BBX 6 9 0 0
BITMAP
0C
0C
0C
7C
CC
CC
CC
CC
7C
ENDCHAR
STARTCHAR uni0501
ENCODING 1281
SWIDTH 538 0
DWIDTH 7 0
BBX 6 7 0 0
BITMAP
0C
0C
0C
7C
CC
CC
7C
ENDCHAR
STARTCHAR uni0502
ENCODING 1282
SWIDTH 538 0
DWIDTH 7 0
BBX 6 9 0 0
BITMAP
10
14
74
D4
D4
D4
D4
DC
68
ENDCHAR
STARTCHAR uni0503
ENCODING 1283
SWIDTH 538 0
DWIDTH 7 0
BBX 6 9 0 0
BITMAP
10
10
10
14
74
D4
D4
DC
68
ENDCHAR
STARTCHAR uni0504
ENCODING 1284
SWIDTH 538 0
DWIDTH 7 0
BBX 6 9 0 0
BITMAP
E0
30
34
E4
34
34
34
34
18
ENDCHAR
STARTCHAR uni0505
ENCODING 1285
SWIDTH 538 0
DWIDTH 7 0
BBX 6 7 0 0
BITMAP
E0
30
34
E4
34
34
18
ENDCHAR
STARTCHAR uni0506
ENCODING 1286
SWIDTH 538 0
DWIDTH 7 0
BBX 6 11 0 -2
BITMAP
F0
18
18
70
18
18
18
18
1C
04
04
ENDCHAR
STARTCHAR uni0507
ENCODING 1287
SWIDTH 538 0
DWIDTH 7 0
BBX 6 9 0 -2
BITMAP
F0
18
18
70
18
18
1C
04
04
ENDCHAR
STARTCHAR uni0508
ENCODING 1288
SWIDTH 538 0
DWIDTH 7 0
BBX 7 9 0 0
BITMAP
78
6A
6A
6A
6A
6A
6A
6E
C4
ENDCHAR
STARTCHAR uni0509
ENCODING 1289
SWIDTH 538 0
DWIDTH 7 0
BBX 7 7 0 0
BITMAP
78
6A
6A
6A
6A
6E
C4
ENDCHAR
STARTCHAR uni050A
ENCODING 1290
SWIDTH 538 0
DWIDTH 7 0
BBX 6 9 0 0
BITMAP
D0
D4
D4
D4
F4
D4
D4
DC
C8
ENDCHAR
STARTCHAR uni050B
ENCODING 1291
SWIDTH 538 0
DWIDTH 7 0
BBX 6 7 0 0
BITMAP
D0
D4
D4
F4
D4
DC
C8
ENDCHAR
STARTCHAR uni050C
ENCODING 1292
SWIDTH 538 0
DWIDTH 7 0
BBX 6 9 0 0
BITMAP
7C
C0
C0
C0
DC
CC
CC
CC
78
ENDCHAR
STARTCHAR uni050D
ENCODING 1293
SWIDTH 538 0
DWIDTH 7 0
BBX 6 7 0 0
BITMAP
7C
C0
C0
DC
CC
CC
78
ENDCHAR
STARTCHAR uni050E
ENCODING 1294
SWIDTH 538 0
DWIDTH 7 0
BBX 6 9 0 0
BITMAP
FC
30
30
34
34
34
34
3C
18
ENDCHAR
STARTCHAR uni050F
ENCODING 1295
SWIDTH 538 0
DWIDTH 7 0
BBX 6 7 0 0
BITMAP
FC
30
30
34
34
3C
18
ENDCHAR
STARTCHAR uni0510
ENCODING 1296
SWIDTH 538 0
DWIDTH 7 0
BBX 6 9 0 0
BITMAP
7C
C0
C0
C0
78
C0
C0
C0
7C
ENDCHAR
STARTCHAR uni0511
ENCODING 1297
SWIDTH 538 0
DWIDTH 7 0
BBX 6 7 0 0
BITMAP
7C
C0
C0
78
C0
C0
7C
ENDCHAR
STARTCHAR uni0512
ENCODING 1298
SWIDTH 538 0
DWIDTH 7 0
BBX 6 12 0 -2
BITMAP
7C
6C
6C
6C
6C
6C
6C
6C
6C
CC
0C
18
ENDCHAR
STARTCHAR uni0513
ENCODING 1299
SWIDTH 538 0
DWIDTH 7 0
BBX 6 9 0 -2
BITMAP
7C
6C
6C
6C
6C
6C
CC
0C
18
ENDCHAR
STARTCHAR uni0514
ENCODING 1300
SWIDTH 538 0
DWIDTH 7 0
BBX 7 9 0 0
BITMAP
7A
6A
6A
6A
64
6A
6A
6A
CA
ENDCHAR
STARTCHAR uni0515
ENCODING 1301
SWIDTH 538 0
DWIDTH 7 0
BBX 7 7 0 0
BITMAP
7A
6A
6A
64
6A
6A
CA
ENDCHAR
STARTCHAR uni0516
ENCODING 1302
SWIDTH 538 0
DWIDTH 7 0
BBX 6 9 0 0
BITMAP
EC
DC
D8
D8
F0
D8
D8
CC
CC
ENDCHAR
STARTCHAR uni0517
ENCODING 1303
SWIDTH 538 0
DWIDTH 7 0
BBX 6 9 0 -2
BITMAP
EC
DC
D8
D0
D8
DC
EC
C0
C0
ENDCHAR
STARTCHAR uni0518
ENCODING 1304
SWIDTH 538 0
DWIDTH 7 0
BBX 7 9 0 0
BITMAP
7E
D8
D8
D8
7E
38
78
D8
DE
ENDCHAR
STARTCHAR uni0519
ENCODING 1305
SWIDTH 538 0
DWIDTH 7 0
BBX 7 7 0 0
BITMAP
7C
DA
DA
7E
38
68
C6
ENDCHAR
STARTCHAR uni051A
ENCODING 1306
SWIDTH 538 0
DWIDTH 7 0
BBX 6 10 0 -1
BITMAP
78
CC
CC
CC
CC
CC
CC
CC
78
0C
ENDCHAR
STARTCHAR uni051B
ENCODING 1307
SWIDTH 538 0
DWIDTH 7 0
BBX 6 9 0 -2
BITMAP
7C
CC
CC
CC
CC
CC
7C
0C
0C
ENDCHAR
STARTCHAR uni051C
ENCODING 1308
SWIDTH 538 0
DWIDTH 7 0
BBX 6 9 0 0
BITMAP
CC
CC
CC
CC
FC
FC
FC
CC
84
ENDCHAR
STARTCHAR uni051D
ENCODING 1309
SWIDTH 538 0
DWIDTH 7 0
BBX 6 7 0 0
BITMAP
CC
CC
CC
FC
FC
FC
78
ENDCHAR
STARTCHAR uni051E
ENCODING 1310
SWIDTH 538 0
DWIDTH 7 0
BBX 6 10 0 0
BITMAP
10
CC
D8
F4
E0
C0
E0
F0
D8
CC
ENDCHAR
STARTCHAR uni051F
ENCODING 1311
SWIDTH 538 0
DWIDTH 7 0
BBX 6 8 0 0
BITMAP
10
CC
D8
F4
E0
F0
D8
CC
ENDCHAR
STARTCHAR uni0520
ENCODING 1312
SWIDTH 538 0
DWIDTH 7 0
BBX 7 11 0 -2
BITMAP
78
68
68
68
6C
6E
6A
6A
CA
06
0C
ENDCHAR
STARTCHAR uni0521
ENCODING 1313
SWIDTH 538 0
DWIDTH 7 0
BBX 7 9 0 -2
BITMAP
78
68
68
6C
6E
6A
CA
06
0C
ENDCHAR
STARTCHAR uni0522
ENCODING 1314
SWIDTH 538 0
DWIDTH 7 0
BBX 7 11 0 -2
BITMAP
D8
D8
D8
D8
FC
DA
DA
DA
DA
02
0C
ENDCHAR
STARTCHAR uni0523
ENCODING 1315
SWIDTH 538 0
DWIDTH 7 0
BBX 7 9 0 -2
BITMAP
D8
D8
D8
FC
DA
DA
DA
02
0C
ENDCHAR
STARTCHAR uni0524
ENCODING 1316
SWIDTH 538 0
DWIDTH 7 0
BBX 7 11 0 -2
BITMAP
FC
CC
CC
CC
CC
CC
CC
CC
CE
02
02
ENDCHAR
STARTCHAR uni0525
ENCODING 1317
SWIDTH 538 0
DWIDTH 7 0
BBX 7 9 0 -2
BITMAP
FC
CC
CC
CC
CC
CC
CE
02
02
ENDCHAR
STARTCHAR uni0526
ENCODING 1318
SWIDTH 538 0
DWIDTH 7 0
BBX 7 11 0 -2
BITMAP
C0
C0
F8
CC
CC
CC
CC
CC
CE
02
02
ENDCHAR
STARTCHAR uni0527
ENCODING 1319
SWIDTH 538 0
DWIDTH 7 0
BBX 7 9 0 -2
BITMAP
C0
C0
F8
CC
CC
CC
CE
02
02
ENDCHAR
STARTCHAR afii57407
ENCODING 1567
SWIDTH 500 0
DWIDTH 7 0
BBX 5 9 0 0
BITMAP
70
88
88
40
20
00
00
20
20
ENDCHAR
STARTCHAR afii57409
ENCODING 1569
SWIDTH 500 0
DWIDTH 7 0
BBX 3 5 2 2
BITMAP
60
80
80
60
C0
ENDCHAR
STARTCHAR afii57410
ENCODING 1570
SWIDTH 500 0
DWIDTH 7 0
BBX 4 11 1 0
BITMAP
50
A0
00
40
40
40
40
40
40
40
40
ENDCHAR
STARTCHAR afii57411
ENCODING 1571
SWIDTH 500 0
DWIDTH 7 0
BBX 3 11 1 0
BITMAP
60
80
E0
00
40
40
40
40
40
40
40
ENDCHAR
STARTCHAR afii57412
ENCODING 1572
SWIDTH 500 0
DWIDTH 7 0
BBX 5 11 0 -2
BITMAP
30
40
70
00
30
48
48
48
38
08
F0
ENDCHAR
STARTCHAR afii57413
ENCODING 1573
SWIDTH 500 0
DWIDTH 7 0
BBX 3 11 1 -2
BITMAP
40
40
40
40
40
40
00
00
60
80
E0
ENDCHAR
STARTCHAR afii57414
ENCODING 1574
SWIDTH 500 0
DWIDTH 7 0
BBX 6 10 0 0
BITMAP
60
80
E0
08
14
50
00
88
88
70
ENDCHAR
STARTCHAR afii57415
ENCODING 1575
SWIDTH 500 0
DWIDTH 7 0
BBX 1 9 2 0
BITMAP
80
80
80
80
80
80
80
80
80
ENDCHAR
STARTCHAR afii57416
ENCODING 1576
SWIDTH 500 0
DWIDTH 7 0
BBX 5 4 0 1
BITMAP
10
88
88
70
ENDCHAR
STARTCHAR afii57417
ENCODING 1577
SWIDTH 500 0
DWIDTH 7 0
BBX 5 8 0 0
BITMAP
50
00
60
90
88
88
00
70
ENDCHAR
STARTCHAR afii57418
ENCODING 1578
SWIDTH 500 0
DWIDTH 7 0
BBX 5 6 0 1
BITMAP
50
00
10
88
88
70
ENDCHAR
STARTCHAR afii57419
ENCODING 1579
SWIDTH 500 0
DWIDTH 7 0
BBX 5 9 0 0
BITMAP
20
00
50
00
10
88
88
88
70
ENDCHAR
STARTCHAR afii57420
ENCODING 1580
SWIDTH 500 0
DWIDTH 7 0
BBX 5 9 0 -2
BITMAP
F8
20
40
80
A0
80
00
40
38
ENDCHAR
STARTCHAR afii57421
ENCODING 1581
SWIDTH 500 0
DWIDTH 7 0
BBX 5 9 0 -2
BITMAP
F8
20
40
80
80
80
00
40
38
ENDCHAR
STARTCHAR afii57422
ENCODING 1582
SWIDTH 500 0
DWIDTH 7 0
BBX 5 11 0 -2
BITMAP
20
00
F8
20
40
80
80
80
80
40
38
ENDCHAR
STARTCHAR afii57423
ENCODING 1583
SWIDTH 500 0
DWIDTH 7 0
BBX 4 5 1 1
BITMAP
20
10
10
10
E0
ENDCHAR
STARTCHAR afii57424
ENCODING 1584
SWIDTH 500 0
DWIDTH 7 0
BBX 4 8 1 0
BITMAP
40
00
20
10
10
10
00
E0
ENDCHAR
STARTCHAR afii57425
ENCODING 1585
SWIDTH 500 0
DWIDTH 7 0
BBX 5 5 0 0
BITMAP
08
08
08
10
E0
ENDCHAR
STARTCHAR afii57426
ENCODING 1586
SWIDTH 500 0
DWIDTH 7 0
BBX 5 8 0 -1
BITMAP
08
00
08
08
08
00
00
E0
ENDCHAR
STARTCHAR afii57427
ENCODING 1587
SWIDTH 500 0
DWIDTH 7 0
BBX 6 8 0 -2
BITMAP
04
54
54
54
28
A0
00
40
ENDCHAR
STARTCHAR afii57428
ENCODING 1588
SWIDTH 500 0
DWIDTH 7 0
BBX 6 11 0 -2
BITMAP
20
00
50
00
54
54
54
54
20
A0
40
ENDCHAR
STARTCHAR afii57429
ENCODING 1589
SWIDTH 500 0
DWIDTH 7 0
BBX 6 6 0 -1
BITMAP
28
34
A4
B8
A0
40
ENDCHAR
STARTCHAR afii57430
ENCODING 1590
SWIDTH 500 0
DWIDTH 7 0
BBX 6 9 0 -2
BITMAP
20
00
28
34
A4
B8
B0
A0
40
ENDCHAR
STARTCHAR afii57431
ENCODING 1591
SWIDTH 500 0
DWIDTH 7 0
BBX 5 9 0 0
BITMAP
40
40
40
40
50
68
68
68
F0
ENDCHAR
STARTCHAR afii57432
ENCODING 1592
SWIDTH 500 0
DWIDTH 7 0
BBX 5 9 0 0
BITMAP
40
40
50
40
50
68
68
68
F0
ENDCHAR
STARTCHAR afii57433
ENCODING 1593
SWIDTH 500 0
DWIDTH 7 0
BBX 5 9 0 -2
BITMAP
60
80
80
70
80
80
80
88
70
ENDCHAR
STARTCHAR afii57434
ENCODING 1594
SWIDTH 500 0
DWIDTH 7 0
BBX 5 11 0 -2
BITMAP
40
00
60
80
80
70
00
80
80
88
70
ENDCHAR
STARTCHAR afii57440
ENCODING 1600
SWIDTH 500 0
DWIDTH 7 0
BBX 6 1 0 1
BITMAP
FC
ENDCHAR
STARTCHAR afii57441
ENCODING 1601
SWIDTH 500 0
DWIDTH 7 0
BBX 5 8 0 -1
BITMAP
10
00
10
28
98
88
00
70
ENDCHAR
STARTCHAR afii57442
ENCODING 1602
SWIDTH 500 0
DWIDTH 7 0
BBX 5 8 0 -1
BITMAP
28
00
10
28
98
88
00
70
ENDCHAR
STARTCHAR afii57443
ENCODING 1603
SWIDTH 500 0
DWIDTH 7 0
BBX 5 9 0 0
BITMAP
28
48
28
C8
08
88
88
88
70
ENDCHAR
STARTCHAR afii57444
ENCODING 1604
SWIDTH 500 0
DWIDTH 7 0
BBX 5 11 0 -2
BITMAP
08
08
08
08
08
08
08
48
88
88
70
ENDCHAR
STARTCHAR afii57445
ENCODING 1605
SWIDTH 500 0
DWIDTH 7 0
BBX 5 6 0 -1
BITMAP
30
48
48
B0
80
80
ENDCHAR
STARTCHAR afii57446
ENCODING 1606
SWIDTH 500 0
DWIDTH 7 0
BBX 5 8 0 -1
BITMAP
20
00
10
88
88
88
00
70
ENDCHAR
STARTCHAR afii57470
ENCODING 1607
SWIDTH 500 0
DWIDTH 7 0
BBX 5 5 0 1
BITMAP
60
90
88
88
70
ENDCHAR
STARTCHAR afii57448
ENCODING 1608
SWIDTH 500 0
DWIDTH 7 0
BBX 5 6 0 -1
BITMAP
30
48
48
38
08
F0
ENDCHAR
STARTCHAR afii57449
ENCODING 1609
SWIDTH 500 0
DWIDTH 7 0
BBX 6 5 0 0
BITMAP
08
14
90
88
70
ENDCHAR
STARTCHAR afii57450
ENCODING 1610
SWIDTH 500 0
DWIDTH 7 0
BBX 6 9 0 -2
BITMAP
08
14
50
88
88
70
00
00
50
ENDCHAR
STARTCHAR afii57392
ENCODING 1632
SWIDTH 500 0
DWIDTH 7 0
BBX 1 2 2 4
BITMAP
80
80
ENDCHAR
STARTCHAR afii57393
ENCODING 1633
SWIDTH 500 0
DWIDTH 7 0
BBX 3 9 1 0
BITMAP
80
80
40
40
20
20
20
20
20
ENDCHAR
STARTCHAR afii57394
ENCODING 1634
SWIDTH 500 0
DWIDTH 7 0
BBX 4 9 1 0
BITMAP
90
90
60
40
20
20
20
20
20
ENDCHAR
STARTCHAR afii57395
ENCODING 1635
SWIDTH 500 0
DWIDTH 7 0
BBX 5 9 0 0
BITMAP
A8
A8
70
40
20
20
20
20
20
ENDCHAR
STARTCHAR afii57396
ENCODING 1636
SWIDTH 500 0
DWIDTH 7 0
BBX 5 9 0 0
BITMAP
60
80
80
60
80
80
80
88
70
ENDCHAR
STARTCHAR afii57397
ENCODING 1637
SWIDTH 500 0
DWIDTH 7 0
BBX 5 9 0 0
BITMAP
20
50
50
88
88
88
88
88
70
ENDCHAR
STARTCHAR afii57398
ENCODING 1638
SWIDTH 500 0
DWIDTH 7 0
BBX 5 8 0 1
BITMAP
F0
10
10
10
10
08
08
08
ENDCHAR
STARTCHAR afii57399
ENCODING 1639
SWIDTH 500 0
DWIDTH 7 0
BBX 5 9 0 0
BITMAP
88
88
50
50
50
20
20
20
20
ENDCHAR
STARTCHAR afii57400
ENCODING 1640
SWIDTH 500 0
DWIDTH 7 0
BBX 5 9 0 0
BITMAP
20
20
20
50
50
50
00
88
80
ENDCHAR
STARTCHAR afii57401
ENCODING 1641
SWIDTH 500 0
DWIDTH 7 0
BBX 5 8 0 1
BITMAP
60
90
90
70
10
08
08
08
ENDCHAR
STARTCHAR afii57381
ENCODING 1642
SWIDTH 500 0
DWIDTH 7 0
BBX 5 9 0 0
BITMAP
88
90
10
20
20
40
40
48
80
ENDCHAR
STARTCHAR uni066B
ENCODING 1643
SWIDTH 500 0
DWIDTH 7 0
BBX 4 4 1 0
BITMAP
10
10
20
C0
ENDCHAR
STARTCHAR uni066C
ENCODING 1644
SWIDTH 500 0
DWIDTH 7 0
BBX 2 3 2 9
BITMAP
40
40
80
ENDCHAR
STARTCHAR uni066E
ENCODING 1646
SWIDTH 500 0
DWIDTH 7 0
BBX 5 4 0 1
BITMAP
10
88
88
70
ENDCHAR
STARTCHAR uni066F
ENCODING 1647
SWIDTH 500 0
DWIDTH 7 0
BBX 5 5 0 0
BITMAP
10
28
98
88
70
ENDCHAR
STARTCHAR uni0FD5
ENCODING 4053
SWIDTH 500 0
DWIDTH 7 0
BBX 5 5 0 3
BITMAP
B8
A0
F8
28
E8
ENDCHAR
STARTCHAR uni0FD6
ENCODING 4054
SWIDTH 500 0
DWIDTH 7 0
BBX 5 5 0 3
BITMAP
E8
28
F8
A0
B8
ENDCHAR
STARTCHAR uni1E00
ENCODING 7680
SWIDTH 538 0
DWIDTH 7 0
BBX 6 11 0 -2
BITMAP
78
CC
CC
FC
CC
CC
CC
CC
10
28
10
ENDCHAR
STARTCHAR uni1E01
ENCODING 7681
SWIDTH 538 0
DWIDTH 7 0
BBX 6 10 0 -2
BITMAP
78
0C
0C
7C
CC
CC
7C
10
28
10
ENDCHAR
STARTCHAR uni1E02
ENCODING 7682
SWIDTH 500 0
DWIDTH 7 0
BBX 6 11 0 0
BITMAP
20
00
F8
CC
CC
CC
F8
CC
CC
CC
F8
ENDCHAR
STARTCHAR uni1E03
ENCODING 7683
SWIDTH 500 0
DWIDTH 7 0
BBX 6 11 0 0
BITMAP
20
00
C0
C0
F8
CC
CC
CC
CC
CC
F8
ENDCHAR
STARTCHAR uni1E04
ENCODING 7684
SWIDTH 500 0
DWIDTH 7 0
BBX 6 11 0 -2
BITMAP
F8
CC
CC
CC
F8
CC
CC
CC
F8
00
20
ENDCHAR
STARTCHAR uni1E05
ENCODING 7685
SWIDTH 500 0
DWIDTH 7 0
BBX 6 11 0 -2
BITMAP
C0
C0
F8
CC
CC
CC
CC
CC
F8
00
20
ENDCHAR
STARTCHAR uni1E06
ENCODING 7686
SWIDTH 500 0
DWIDTH 7 0
BBX 6 11 0 -2
BITMAP
F8
CC
CC
CC
F8
CC
CC
CC
F8
00
78
ENDCHAR
STARTCHAR uni1E07
ENCODING 7687
SWIDTH 500 0
DWIDTH 7 0
BBX 6 11 0 -2
BITMAP
C0
C0
F8
CC
CC
CC
CC
CC
F8
00
78
ENDCHAR
STARTCHAR uni1E08
ENCODING 7688
SWIDTH 500 0
DWIDTH 7 0
BBX 6 13 0 -2
BITMAP
18
30
7C
C0
C0
C0
C0
C0
C0
C0
7C
30
E0
ENDCHAR
STARTCHAR uni1E09
ENCODING 7689
SWIDTH 500 0
DWIDTH 7 0
BBX 6 12 0 -2
BITMAP
18
30
00
7C
C0
C0
C0
C0
C0
7C
30
E0
ENDCHAR
STARTCHAR uni1E0A
ENCODING 7690
SWIDTH 500 0
DWIDTH 7 0
BBX 6 11 0 0
BITMAP
20
00
F0
D8
CC
CC
CC
CC
CC
D8
F0
ENDCHAR
STARTCHAR uni1E0B
ENCODING 7691
SWIDTH 500 0
DWIDTH 7 0
BBX 6 11 0 0
BITMAP
20
00
0C
0C
7C
CC
CC
CC
CC
CC
7C
ENDCHAR
STARTCHAR uni1E0C
ENCODING 7692
SWIDTH 500 0
DWIDTH 7 0
BBX 6 11 0 -2
BITMAP
F0
D8
CC
CC
CC
CC
CC
D8
F0
00
20
ENDCHAR
STARTCHAR uni1E0D
ENCODING 7693
SWIDTH 500 0
DWIDTH 7 0
BBX 6 11 0 -2
BITMAP
0C
0C
7C
CC
CC
CC
CC
CC
7C
00
20
ENDCHAR
STARTCHAR uni1E0E
ENCODING 7694
SWIDTH 500 0
DWIDTH 7 0
BBX 6 11 0 -2
BITMAP
F0
D8
CC
CC
CC
CC
CC
D8
F0
00
78
ENDCHAR
STARTCHAR uni1E0F
ENCODING 7695
SWIDTH 500 0
DWIDTH 7 0
BBX 6 11 0 -2
BITMAP
0C
0C
7C
CC
CC
CC
CC
CC
7C
00
78
ENDCHAR
STARTCHAR uni1E10
ENCODING 7696
SWIDTH 500 0
DWIDTH 7 0
BBX 6 11 0 -2
BITMAP
F0
D8
CC
CC
CC
CC
CC
D8
F0
30
E0
ENDCHAR
STARTCHAR uni1E11
ENCODING 7697
SWIDTH 500 0
DWIDTH 7 0
BBX 6 11 0 -2
BITMAP
0C
0C
7C
CC
CC
CC
CC
CC
7C
30
E0
ENDCHAR
STARTCHAR uni1E12
ENCODING 7698
SWIDTH 500 0
DWIDTH 7 0
BBX 6 11 0 -2
BITMAP
F0
D8
CC
CC
CC
CC
CC
D8
F0
30
58
ENDCHAR
STARTCHAR uni1E13
ENCODING 7699
SWIDTH 500 0
DWIDTH 7 0
BBX 6 11 0 -2
BITMAP
0C
0C
7C
CC
CC
CC
CC
CC
7C
30
58
ENDCHAR
STARTCHAR uni1E14
ENCODING 7700
SWIDTH 538 0
DWIDTH 7 0
BBX 6 11 0 0
BITMAP
60
30
78
00
FC
C0
C0
F8
C0
C0
FC
ENDCHAR
STARTCHAR uni1E15
ENCODING 7701
SWIDTH 538 0
DWIDTH 7 0
BBX 6 11 0 0
BITMAP
60
30
78
00
78
CC
CC
FC
C0
C0
7C
ENDCHAR
STARTCHAR uni1E16
ENCODING 7702
SWIDTH 538 0
DWIDTH 7 0
BBX 6 11 0 0
BITMAP
18
30
78
00
FC
C0
C0
F8
C0
C0
FC
ENDCHAR
STARTCHAR uni1E17
ENCODING 7703
SWIDTH 538 0
DWIDTH 7 0
BBX 6 11 0 0
BITMAP
18
30
78
00
78
C4
C4
FC
C0
C0
7C
ENDCHAR
STARTCHAR uni1E18
ENCODING 7704
SWIDTH 500 0
DWIDTH 7 0
BBX 6 11 0 -2
BITMAP
FC
C0
C0
F8
C0
C0
C0
FC
00
30
58
ENDCHAR
STARTCHAR uni1E19
ENCODING 7705
SWIDTH 500 0
DWIDTH 7 0
BBX 6 9 0 -2
BITMAP
78
CC
FC
C0
C0
7C
00
30
58
ENDCHAR
STARTCHAR uni1E1A
ENCODING 7706
SWIDTH 500 0
DWIDTH 7 0
BBX 6 11 0 -2
BITMAP
FC
C0
C0
F8
C0
C0
C0
FC
00
74
B8
ENDCHAR
STARTCHAR uni1E1B
ENCODING 7707
SWIDTH 500 0
DWIDTH 7 0
BBX 6 9 0 -2
BITMAP
78
CC
FC
C0
C0
7C
00
74
B8
ENDCHAR
STARTCHAR uni1E1C
ENCODING 7708
SWIDTH 500 0
DWIDTH 7 0
BBX 6 13 0 -2
BITMAP
CC
78
00
FC
C0
C0
F8
C0
C0
C0
FC
30
E0
ENDCHAR
STARTCHAR uni1E1D
ENCODING 7709
SWIDTH 500 0
DWIDTH 7 0
BBX 6 12 0 -2
BITMAP
CC
78
00
78
CC
CC
FC
C0
C0
7C
30
E0
ENDCHAR
STARTCHAR uni1E1E
ENCODING 7710
SWIDTH 500 0
DWIDTH 7 0
BBX 6 11 0 0
BITMAP
20
00
FC
C0
C0
C0
F8
C0
C0
C0
C0
ENDCHAR
STARTCHAR uni1E1F
ENCODING 7711
SWIDTH 500 0
DWIDTH 7 0
BBX 5 11 1 0
BITMAP
40
00
38
60
60
F8
60
60
60
60
60
ENDCHAR
STARTCHAR uni1E20
ENCODING 7712
SWIDTH 500 0
DWIDTH 7 0
BBX 6 11 0 0
BITMAP
78
00
7C
C0
C0
C0
DC
CC
CC
CC
78
ENDCHAR
STARTCHAR uni1E21
ENCODING 7713
SWIDTH 500 0
DWIDTH 7 0
BBX 6 11 0 -2
BITMAP
78
00
7C
CC
CC
CC
CC
CC
7C
0C
78
ENDCHAR
STARTCHAR uni1E22
ENCODING 7714
SWIDTH 500 0
DWIDTH 7 0
BBX 6 11 0 0
BITMAP
20
00
CC
CC
CC
CC
FC
CC
CC
CC
CC
ENDCHAR
STARTCHAR uni1E23
ENCODING 7715
SWIDTH 500 0
DWIDTH 7 0
BBX 6 11 0 0
BITMAP
20
00
C0
C0
F8
CC
CC
CC
CC
CC
CC
ENDCHAR
STARTCHAR uni1E24
ENCODING 7716
SWIDTH 500 0
DWIDTH 7 0
BBX 6 11 0 -2
BITMAP
CC
CC
CC
CC
FC
CC
CC
CC
CC
00
20
ENDCHAR
STARTCHAR uni1E25
ENCODING 7717
SWIDTH 500 0
DWIDTH 7 0
BBX 6 11 0 -2
BITMAP
C0
C0
F8
CC
CC
CC
CC
CC
CC
00
20
ENDCHAR
STARTCHAR uni1E26
ENCODING 7718
SWIDTH 500 0
DWIDTH 7 0
BBX 6 11 0 0
BITMAP
6C
00
CC
CC
CC
CC
FC
CC
CC
CC
CC
ENDCHAR
STARTCHAR uni1E27
ENCODING 7719
SWIDTH 500 0
DWIDTH 7 0
BBX 6 11 0 0
BITMAP
6C
00
C0
C0
F8
CC
CC
CC
CC
CC
CC
ENDCHAR
STARTCHAR uni1E28
ENCODING 7720
SWIDTH 500 0
DWIDTH 7 0
BBX 6 11 0 -2
BITMAP
CC
CC
CC
CC
FC
CC
CC
CC
CC
60
C0
ENDCHAR
STARTCHAR uni1E29
ENCODING 7721
SWIDTH 500 0
DWIDTH 7 0
BBX 6 11 0 -2
BITMAP
C0
C0
F8
CC
CC
CC
CC
CC
CC
60
C0
ENDCHAR
STARTCHAR uni1E2A
ENCODING 7722
SWIDTH 500 0
DWIDTH 7 0
BBX 6 11 0 -2
BITMAP
CC
CC
CC
FC
CC
CC
CC
CC
00
CC
78
ENDCHAR
STARTCHAR uni1E2B
ENCODING 7723
SWIDTH 500 0
DWIDTH 7 0
BBX 6 11 0 -2
BITMAP
C0
C0
F8
CC
CC
CC
CC
CC
00
CC
78
ENDCHAR
STARTCHAR uni1E2C
ENCODING 7724
SWIDTH 500 0
DWIDTH 7 0
BBX 6 11 0 -2
BITMAP
FC
30
30
30
30
30
30
FC
00
74
B8
ENDCHAR
STARTCHAR uni1E2D
ENCODING 7725
SWIDTH 500 0
DWIDTH 7 0
BBX 6 12 0 -2
BITMAP
30
30
00
70
30
30
30
30
78
00
74
B8
ENDCHAR
STARTCHAR uni1E2E
ENCODING 7726
SWIDTH 500 0
DWIDTH 7 0
BBX 6 11 0 0
BITMAP
18
30
00
6C
00
FC
30
30
30
30
FC
ENDCHAR
STARTCHAR uni1E2F
ENCODING 7727
SWIDTH 500 0
DWIDTH 7 0
BBX 5 11 1 0
BITMAP
30
60
00
D8
00
E0
60
60
60
60
F0
ENDCHAR
STARTCHAR uni1E30
ENCODING 7728
SWIDTH 500 0
DWIDTH 7 0
BBX 6 11 0 0
BITMAP
18
30
CC
D8
F0
E0
C0
E0
F0
D8
CC
ENDCHAR
STARTCHAR uni1E31
ENCODING 7729
SWIDTH 500 0
DWIDTH 7 0
BBX 6 11 0 0
BITMAP
18
30
C0
C0
CC
D8
F0
E0
F0
D8
CC
ENDCHAR
STARTCHAR uni1E32
ENCODING 7730
SWIDTH 500 0
DWIDTH 7 0
BBX 6 11 0 -2
BITMAP
CC
D8
F0
E0
C0
E0
F0
D8
CC
00
20
ENDCHAR
STARTCHAR uni1E33
ENCODING 7731
SWIDTH 500 0
DWIDTH 7 0
BBX 6 11 0 -2
BITMAP
C0
C0
CC
D8
F0
E0
F0
D8
CC
00
20
ENDCHAR
STARTCHAR uni1E34
ENCODING 7732
SWIDTH 500 0
DWIDTH 7 0
BBX 6 11 0 -2
BITMAP
CC
D8
F0
E0
C0
E0
F0
D8
CC
00
78
ENDCHAR
STARTCHAR uni1E35
ENCODING 7733
SWIDTH 500 0
DWIDTH 7 0
BBX 6 11 0 -2
BITMAP
C0
C0
CC
D8
F0
E0
F0
D8
CC
00
78
ENDCHAR
STARTCHAR uni1E36
ENCODING 7734
SWIDTH 500 0
DWIDTH 7 0
BBX 6 11 0 -2
BITMAP
C0
C0
C0
C0
C0
C0
C0
C0
FC
00
20
ENDCHAR
STARTCHAR uni1E37
ENCODING 7735
SWIDTH 1000 0
DWIDTH 7 0
BBX 4 11 1 -2
BITMAP
E0
60
60
60
60
60
60
60
30
00
20
ENDCHAR
STARTCHAR uni1E38
ENCODING 7736
SWIDTH 1000 0
DWIDTH 7 0
BBX 6 13 0 -2
BITMAP
78
00
C0
C0
C0
C0
C0
C0
C0
C0
FC
00
20
ENDCHAR
STARTCHAR uni1E39
ENCODING 7737
SWIDTH 1000 0
DWIDTH 7 0
BBX 4 13 1 -2
BITMAP
F0
00
E0
60
60
60
60
60
60
60
30
00
20
ENDCHAR
STARTCHAR uni1E3A
ENCODING 7738
SWIDTH 1000 0
DWIDTH 7 0
BBX 6 11 0 -2
BITMAP
C0
C0
C0
C0
C0
C0
C0
C0
FC
00
78
ENDCHAR
STARTCHAR uni1E3B
ENCODING 7739
SWIDTH 1000 0
DWIDTH 7 0
BBX 4 11 1 -2
BITMAP
E0
60
60
60
60
60
60
60
30
00
F0
ENDCHAR
STARTCHAR uni1E3C
ENCODING 7740
SWIDTH 1000 0
DWIDTH 7 0
BBX 6 11 0 -2
BITMAP
C0
C0
C0
C0
C0
C0
C0
FC
00
30
58
ENDCHAR
STARTCHAR uni1E3D
ENCODING 7741
SWIDTH 1000 0
DWIDTH 7 0
BBX 4 11 1 -2
BITMAP
E0
60
60
60
60
60
60
30
00
60
B0
ENDCHAR
STARTCHAR uni1E3E
ENCODING 7742
SWIDTH 1000 0
DWIDTH 7 0
BBX 6 11 0 0
BITMAP
18
30
84
CC
FC
FC
FC
CC
CC
CC
CC
ENDCHAR
STARTCHAR uni1E3F
ENCODING 7743
SWIDTH 1000 0
DWIDTH 7 0
BBX 6 10 0 0
BITMAP
18
30
00
F8
FC
FC
FC
CC
CC
CC
ENDCHAR
STARTCHAR uni1E40
ENCODING 7744
SWIDTH 1000 0
DWIDTH 7 0
BBX 6 11 0 0
BITMAP
20
00
84
CC
FC
FC
FC
CC
CC
CC
CC
ENDCHAR
STARTCHAR uni1E41
ENCODING 7745
SWIDTH 1000 0
DWIDTH 7 0
BBX 6 9 0 0
BITMAP
20
00
F8
FC
FC
FC
CC
CC
CC
ENDCHAR
STARTCHAR uni1E42
ENCODING 7746
SWIDTH 1000 0
DWIDTH 7 0
BBX 6 11 0 -2
BITMAP
84
CC
FC
FC
FC
CC
CC
CC
CC
00
20
ENDCHAR
STARTCHAR uni1E43
ENCODING 7747
SWIDTH 1000 0
DWIDTH 7 0
BBX 6 9 0 -2
BITMAP
F8
FC
FC
FC
CC
CC
CC
00
20
ENDCHAR
STARTCHAR uni1E44
ENCODING 7748
SWIDTH 1000 0
DWIDTH 7 0
BBX 6 11 0 0
BITMAP
20
00
8C
CC
EC
FC
FC
FC
DC
CC
C4
ENDCHAR
STARTCHAR uni1E45
ENCODING 7749
SWIDTH 1000 0
DWIDTH 7 0
BBX 6 9 0 0
BITMAP
20
00
F8
CC
CC
CC
CC
CC
CC
ENDCHAR
STARTCHAR uni1E46
ENCODING 7750
SWIDTH 1000 0
DWIDTH 7 0
BBX 6 11 0 -2
BITMAP
8C
CC
EC
FC
FC
FC
DC
CC
C4
00
20
ENDCHAR
STARTCHAR uni1E47
ENCODING 7751
SWIDTH 1000 0
DWIDTH 7 0
BBX 6 9 0 -2
BITMAP
F8
CC
CC
CC
CC
CC
CC
00
20
ENDCHAR
STARTCHAR uni1E48
ENCODING 7752
SWIDTH 1000 0
DWIDTH 7 0
BBX 6 11 0 -2
BITMAP
8C
CC
EC
FC
FC
FC
DC
CC
C4
00
78
ENDCHAR
STARTCHAR uni1E49
ENCODING 7753
SWIDTH 1000 0
DWIDTH 7 0
BBX 6 9 0 -2
BITMAP
F8
CC
CC
CC
CC
CC
CC
00
78
ENDCHAR
STARTCHAR uni1E4A
ENCODING 7754
SWIDTH 1000 0
DWIDTH 7 0
BBX 6 11 0 -2
BITMAP
8C
CC
EC
FC
FC
FC
DC
CC
C4
30
58
ENDCHAR
STARTCHAR uni1E4B
ENCODING 7755
SWIDTH 1000 0
DWIDTH 7 0
BBX 6 9 0 -2
BITMAP
F8
CC
CC
CC
CC
CC
CC
30
58
ENDCHAR
STARTCHAR uni1E4C
ENCODING 7756
SWIDTH 538 0
DWIDTH 7 0
BBX 6 11 0 0
BITMAP
18
30
74
B8
00
78
CC
CC
CC
CC
78
ENDCHAR
STARTCHAR uni1E4D
ENCODING 7757
SWIDTH 538 0
DWIDTH 7 0
BBX 6 11 0 0
BITMAP
18
30
00
74
B8
00
78
CC
CC
CC
78
ENDCHAR
STARTCHAR uni1E4E
ENCODING 7758
SWIDTH 538 0
DWIDTH 7 0
BBX 6 11 0 0
BITMAP
6C
00
74
B8
00
78
CC
CC
CC
CC
78
ENDCHAR
STARTCHAR uni1E4F
ENCODING 7759
SWIDTH 538 0
DWIDTH 7 0
BBX 6 10 0 0
BITMAP
6C
00
74
B8
00
78
CC
CC
CC
78
ENDCHAR
STARTCHAR uni1E50
ENCODING 7760
SWIDTH 538 0
DWIDTH 7 0
BBX 6 11 0 0
BITMAP
60
30
78
00
78
CC
CC
CC
CC
CC
78
ENDCHAR
STARTCHAR uni1E51
ENCODING 7761
SWIDTH 538 0
DWIDTH 7 0
BBX 6 11 0 0
BITMAP
60
30
00
78
00
78
CC
CC
CC
CC
78
ENDCHAR
STARTCHAR uni1E52
ENCODING 7762
SWIDTH 538 0
DWIDTH 7 0
BBX 6 11 0 0
BITMAP
18
30
78
00
78
CC
CC
CC
CC
CC
78
ENDCHAR
STARTCHAR uni1E53
ENCODING 7763
SWIDTH 538 0
DWIDTH 7 0
BBX 6 11 0 0
BITMAP
18
30
00
78
00
78
CC
CC
CC
CC
78
ENDCHAR
STARTCHAR uni1E54
ENCODING 7764
SWIDTH 538 0
DWIDTH 7 0
BBX 6 11 0 0
BITMAP
18
30
F8
CC
CC
CC
F8
C0
C0
C0
C0
ENDCHAR
STARTCHAR uni1E55
ENCODING 7765
SWIDTH 538 0
DWIDTH 7 0
BBX 6 12 0 -2
BITMAP
18
30
00
F8
CC
CC
CC
CC
CC
F8
C0
C0
ENDCHAR
STARTCHAR uni1E56
ENCODING 7766
SWIDTH 538 0
DWIDTH 7 0
BBX 6 11 0 0
BITMAP
20
00
F8
CC
CC
CC
F8
C0
C0
C0
C0
ENDCHAR
STARTCHAR uni1E57
ENCODING 7767
SWIDTH 538 0
DWIDTH 7 0
BBX 6 11 0 -2
BITMAP
20
00
F8
CC
CC
CC
CC
CC
F8
C0
C0
ENDCHAR
STARTCHAR uni1E58
ENCODING 7768
SWIDTH 538 0
DWIDTH 7 0
BBX 6 11 0 0
BITMAP
20
00
F8
CC
CC
CC
F8
E0
F0
D8
CC
ENDCHAR
STARTCHAR uni1E59
ENCODING 7769
SWIDTH 538 0
DWIDTH 7 0
BBX 6 9 0 0
BITMAP
20
00
7C
C0
C0
C0
C0
C0
C0
ENDCHAR
STARTCHAR uni1E5A
ENCODING 7770
SWIDTH 538 0
DWIDTH 7 0
BBX 6 11 0 -2
BITMAP
F8
CC
CC
CC
F8
E0
F0
D8
CC
00
20
ENDCHAR
STARTCHAR uni1E5B
ENCODING 7771
SWIDTH 538 0
DWIDTH 7 0
BBX 6 9 0 -2
BITMAP
7C
C0
C0
C0
C0
C0
C0
00
20
ENDCHAR
STARTCHAR uni1E5C
ENCODING 7772
SWIDTH 538 0
DWIDTH 7 0
BBX 6 13 0 -2
BITMAP
78
00
F8
CC
CC
CC
F8
E0
F0
D8
CC
00
20
ENDCHAR
STARTCHAR uni1E5D
ENCODING 7773
SWIDTH 538 0
DWIDTH 7 0
BBX 6 11 0 -2
BITMAP
78
00
7C
C0
C0
C0
C0
C0
C0
00
20
ENDCHAR
STARTCHAR uni1E5E
ENCODING 7774
SWIDTH 538 0
DWIDTH 7 0
BBX 6 11 0 -2
BITMAP
F8
CC
CC
CC
F8
E0
F0
D8
CC
00
78
ENDCHAR
STARTCHAR uni1E5F
ENCODING 7775
SWIDTH 538 0
DWIDTH 7 0
BBX 6 9 0 -2
BITMAP
7C
C0
C0
C0
C0
C0
C0
00
78
ENDCHAR
STARTCHAR uni1E60
ENCODING 7776
SWIDTH 538 0
DWIDTH 7 0
BBX 6 11 0 0
BITMAP
20
00
7C
C0
C0
C0
78
0C
0C
0C
F8
ENDCHAR
STARTCHAR uni1E61
ENCODING 7777
SWIDTH 538 0
DWIDTH 7 0
BBX 6 9 0 0
BITMAP
20
00
7C
C0
C0
78
0C
0C
F8
ENDCHAR
STARTCHAR uni1E62
ENCODING 7778
SWIDTH 538 0
DWIDTH 7 0
BBX 6 11 0 -2
BITMAP
7C
C0
C0
C0
78
0C
0C
0C
F8
00
20
ENDCHAR
STARTCHAR uni1E63
ENCODING 7779
SWIDTH 538 0
DWIDTH 7 0
BBX 6 9 0 -2
BITMAP
7C
C0
C0
78
0C
0C
F8
00
20
ENDCHAR
STARTCHAR uni1E64
ENCODING 7780
SWIDTH 538 0
DWIDTH 7 0
BBX 6 11 0 0
BITMAP
0C
58
00
7C
C0
C0
78
0C
0C
0C
F8
ENDCHAR
STARTCHAR uni1E65
ENCODING 7781
SWIDTH 538 0
DWIDTH 7 0
BBX 6 10 0 0
BITMAP
0C
58
00
7C
C0
C0
78
0C
0C
F8
ENDCHAR
STARTCHAR uni1E66
ENCODING 7782
SWIDTH 538 0
DWIDTH 7 0
BBX 6 11 0 0
BITMAP
D8
74
00
7C
C0
C0
78
0C
0C
0C
F8
ENDCHAR
STARTCHAR uni1E67
ENCODING 7783
SWIDTH 538 0
DWIDTH 7 0
BBX 6 10 0 0
BITMAP
D8
74
00
7C
C0
C0
78
0C
0C
F8
ENDCHAR
STARTCHAR uni1E68
ENCODING 7784
SWIDTH 538 0
DWIDTH 7 0
BBX 6 13 0 -2
BITMAP
20
00
7C
C0
C0
C0
78
0C
0C
0C
F8
00
20
ENDCHAR
STARTCHAR uni1E69
ENCODING 7785
SWIDTH 538 0
DWIDTH 7 0
BBX 6 11 0 -2
BITMAP
20
00
7C
C0
C0
78
0C
0C
F8
00
20
ENDCHAR
STARTCHAR uni1E6A
ENCODING 7786
SWIDTH 538 0
DWIDTH 7 0
BBX 6 11 0 0
BITMAP
20
00
FC
30
30
30
30
30
30
30
30
ENDCHAR
STARTCHAR uni1E6B
ENCODING 7787
SWIDTH 538 0
DWIDTH 7 0
BBX 5 11 1 0
BITMAP
80
00
C0
C0
F8
C0
C0
C0
C0
C0
78
ENDCHAR
STARTCHAR uni1E6C
ENCODING 7788
SWIDTH 538 0
DWIDTH 7 0
BBX 6 11 0 -2
BITMAP
FC
30
30
30
30
30
30
30
30
00
20
ENDCHAR
STARTCHAR uni1E6D
ENCODING 7789
SWIDTH 538 0
DWIDTH 7 0
BBX 5 11 1 -2
BITMAP
C0
C0
F8
C0
C0
C0
C0
C0
78
00
40
ENDCHAR
STARTCHAR uni1E6E
ENCODING 7790
SWIDTH 538 0
DWIDTH 7 0
BBX 6 11 0 -2
BITMAP
FC
30
30
30
30
30
30
30
30
00
78
ENDCHAR
STARTCHAR uni1E6F
ENCODING 7791
SWIDTH 538 0
DWIDTH 7 0
BBX 5 11 1 -2
BITMAP
C0
C0
F8
C0
C0
C0
C0
C0
78
00
F0
ENDCHAR
STARTCHAR uni1E70
ENCODING 7792
SWIDTH 538 0
DWIDTH 7 0
BBX 6 11 0 -2
BITMAP
FC
30
30
30
30
30
30
30
00
30
58
ENDCHAR
STARTCHAR uni1E71
ENCODING 7793
SWIDTH 538 0
DWIDTH 7 0
BBX 5 11 1 -2
BITMAP
C0
C0
F8
C0
C0
C0
C0
78
00
60
B0
ENDCHAR
STARTCHAR uni1E72
ENCODING 7794
SWIDTH 538 0
DWIDTH 7 0
BBX 6 11 0 -2
BITMAP
CC
CC
CC
CC
CC
CC
CC
CC
78
00
6C
ENDCHAR
STARTCHAR uni1E73
ENCODING 7795
SWIDTH 538 0
DWIDTH 7 0
BBX 6 9 0 -2
BITMAP
CC
CC
CC
CC
CC
CC
7C
00
6C
ENDCHAR
STARTCHAR uni1E74
ENCODING 7796
SWIDTH 538 0
DWIDTH 7 0
BBX 6 11 0 -2
BITMAP
CC
CC
CC
CC
CC
CC
CC
78
00
74
B8
ENDCHAR
STARTCHAR uni1E75
ENCODING 7797
SWIDTH 538 0
DWIDTH 7 0
BBX 6 9 0 -2
BITMAP
CC
CC
CC
CC
CC
7C
00
74
B8
ENDCHAR
STARTCHAR uni1E76
ENCODING 7798
SWIDTH 538 0
DWIDTH 7 0
BBX 6 11 0 -2
BITMAP
CC
CC
CC
CC
CC
CC
CC
78
00
30
58
ENDCHAR
STARTCHAR uni1E77
ENCODING 7799
SWIDTH 538 0
DWIDTH 7 0
BBX 6 9 0 -2
BITMAP
CC
CC
CC
CC
CC
7C
00
30
58
ENDCHAR
STARTCHAR uni1E78
ENCODING 7800
SWIDTH 538 0
DWIDTH 7 0
BBX 6 11 0 0
BITMAP
60
C0
34
58
00
CC
CC
CC
CC
CC
78
ENDCHAR
STARTCHAR uni1E79
ENCODING 7801
SWIDTH 538 0
DWIDTH 7 0
BBX 6 11 0 0
BITMAP
60
C0
34
58
00
CC
CC
CC
CC
CC
7C
ENDCHAR
STARTCHAR uni1E7A
ENCODING 7802
SWIDTH 538 0
DWIDTH 7 0
BBX 6 11 0 0
BITMAP
6C
00
78
00
CC
CC
CC
CC
CC
CC
78
ENDCHAR
STARTCHAR uni1E7B
ENCODING 7803
SWIDTH 538 0
DWIDTH 7 0
BBX 6 11 0 0
BITMAP
6C
00
78
00
CC
CC
CC
CC
CC
CC
7C
ENDCHAR
STARTCHAR uni1E7C
ENCODING 7804
SWIDTH 538 0
DWIDTH 7 0
BBX 6 11 0 0
BITMAP
74
B8
00
CC
CC
CC
78
78
78
30
30
ENDCHAR
STARTCHAR uni1E7D
ENCODING 7805
SWIDTH 538 0
DWIDTH 7 0
BBX 6 11 0 0
BITMAP
64
B4
98
00
CC
CC
78
78
78
30
30
ENDCHAR
STARTCHAR uni1E7E
ENCODING 7806
SWIDTH 538 0
DWIDTH 7 0
BBX 6 11 0 -2
BITMAP
CC
CC
CC
78
78
78
30
30
30
00
20
ENDCHAR
STARTCHAR uni1E7F
ENCODING 7807
SWIDTH 538 0
DWIDTH 7 0
BBX 6 9 0 -2
BITMAP
CC
CC
78
78
78
30
30
00
20
ENDCHAR
STARTCHAR Wgrave
ENCODING 7808
SWIDTH 538 0
DWIDTH 7 0
BBX 6 11 0 0
BITMAP
60
30
CC
CC
CC
CC
FC
FC
FC
CC
84
ENDCHAR
STARTCHAR wgrave
ENCODING 7809
SWIDTH 538 0
DWIDTH 7 0
BBX 6 10 0 0
BITMAP
60
30
00
CC
CC
CC
FC
FC
FC
78
ENDCHAR
STARTCHAR Wacute
ENCODING 7810
SWIDTH 538 0
DWIDTH 7 0
BBX 6 11 0 0
BITMAP
18
30
CC
CC
CC
CC
FC
FC
FC
CC
84
ENDCHAR
STARTCHAR wacute
ENCODING 7811
SWIDTH 538 0
DWIDTH 7 0
BBX 6 10 0 0
BITMAP
18
30
00
CC
CC
CC
FC
FC
FC
78
ENDCHAR
STARTCHAR Wdieresis
ENCODING 7812
SWIDTH 538 0
DWIDTH 7 0
BBX 6 11 0 0
BITMAP
6C
00
CC
CC
CC
CC
FC
FC
FC
CC
84
ENDCHAR
STARTCHAR wdieresis
ENCODING 7813
SWIDTH 538 0
DWIDTH 7 0
BBX 6 9 0 0
BITMAP
6C
00
CC
CC
CC
FC
FC
FC
78
ENDCHAR
STARTCHAR uni1E86
ENCODING 7814
SWIDTH 538 0
DWIDTH 7 0
BBX 6 11 0 0
BITMAP
20
00
CC
CC
CC
CC
FC
FC
FC
CC
84
ENDCHAR
STARTCHAR uni1E87
ENCODING 7815
SWIDTH 538 0
DWIDTH 7 0
BBX 6 9 0 0
BITMAP
20
00
CC
CC
CC
FC
FC
FC
78
ENDCHAR
STARTCHAR uni1E88
ENCODING 7816
SWIDTH 538 0
DWIDTH 7 0
BBX 6 11 0 -2
BITMAP
CC
CC
CC
CC
FC
FC
FC
CC
84
00
20
ENDCHAR
STARTCHAR uni1E89
ENCODING 7817
SWIDTH 538 0
DWIDTH 7 0
BBX 6 9 0 -2
BITMAP
CC
CC
CC
FC
FC
FC
78
00
20
ENDCHAR
STARTCHAR uni1E8A
ENCODING 7818
SWIDTH 538 0
DWIDTH 7 0
BBX 6 11 0 0
BITMAP
20
00
CC
CC
CC
78
30
78
CC
CC
CC
ENDCHAR
STARTCHAR uni1E8B
ENCODING 7819
SWIDTH 538 0
DWIDTH 7 0
BBX 6 9 0 0
BITMAP
20
00
CC
CC
78
30
78
CC
CC
ENDCHAR
STARTCHAR uni1E8C
ENCODING 7820
SWIDTH 538 0
DWIDTH 7 0
BBX 6 11 0 0
BITMAP
6C
00
CC
CC
CC
78
30
78
CC
CC
CC
ENDCHAR
STARTCHAR uni1E8D
ENCODING 7821
SWIDTH 538 0
DWIDTH 7 0
BBX 6 9 0 0
BITMAP
6C
00
CC
CC
78
30
78
CC
CC
ENDCHAR
STARTCHAR uni1E8E
ENCODING 7822
SWIDTH 538 0
DWIDTH 7 0
BBX 6 11 0 0
BITMAP
20
00
CC
CC
78
78
30
30
30
30
30
ENDCHAR
STARTCHAR uni1E8F
ENCODING 7823
SWIDTH 538 0
DWIDTH 7 0
BBX 6 11 0 -2
BITMAP
20
00
CC
CC
CC
CC
CC
CC
7C
0C
78
ENDCHAR
STARTCHAR uni1E90
ENCODING 7824
SWIDTH 538 0
DWIDTH 7 0
BBX 6 11 0 0
BITMAP
30
58
00
FC
0C
0C
18
30
60
C0
FC
ENDCHAR
STARTCHAR uni1E91
ENCODING 7825
SWIDTH 538 0
DWIDTH 7 0
BBX 6 10 0 0
BITMAP
30
58
00
FC
0C
18
30
60
C0
FC
ENDCHAR
STARTCHAR uni1E92
ENCODING 7826
SWIDTH 538 0
DWIDTH 7 0
BBX 6 11 0 -2
BITMAP
FC
0C
0C
18
30
60
C0
C0
FC
00
20
ENDCHAR
STARTCHAR uni1E93
ENCODING 7827
SWIDTH 538 0
DWIDTH 7 0
BBX 6 9 0 -2
BITMAP
FC
0C
18
30
60
C0
FC
00
20
ENDCHAR
STARTCHAR uni1E94
ENCODING 7828
SWIDTH 538 0
DWIDTH 7 0
BBX 6 11 0 -2
BITMAP
FC
0C
0C
18
30
60
C0
C0
FC
00
78
ENDCHAR
STARTCHAR uni1E95
ENCODING 7829
SWIDTH 538 0
DWIDTH 7 0
BBX 6 9 0 -2
BITMAP
FC
0C
18
30
60
C0
FC
00
78
ENDCHAR
STARTCHAR uni1E96
ENCODING 7830
SWIDTH 538 0
DWIDTH 7 0
BBX 6 11 0 -2
BITMAP
C0
C0
F8
CC
CC
CC
CC
CC
CC
00
78
ENDCHAR
STARTCHAR uni1E97
ENCODING 7831
SWIDTH 538 0
DWIDTH 7 0
BBX 5 11 1 0
BITMAP
D8
00
60
60
F0
60
60
60
60
60
38
ENDCHAR
STARTCHAR uni1E98
ENCODING 7832
SWIDTH 538 0
DWIDTH 7 0
BBX 6 10 0 0
BITMAP
CC
78
00
CC
CC
CC
FC
FC
FC
78
ENDCHAR
STARTCHAR uni1E99
ENCODING 7833
SWIDTH 538 0
DWIDTH 7 0
BBX 6 12 0 -2
BITMAP
CC
78
00
CC
CC
CC
CC
CC
CC
7C
0C
78
ENDCHAR
STARTCHAR uni1E9A
ENCODING 7834
SWIDTH 538 0
DWIDTH 7 0
BBX 7 11 0 0
BITMAP
04
02
02
04
78
0C
0C
7C
CC
CC
7C
ENDCHAR
STARTCHAR uni1E9B
ENCODING 7835
SWIDTH 538 0
DWIDTH 7 0
BBX 5 11 0 0
BITMAP
20
00
38
60
60
E0
60
60
60
60
60
ENDCHAR
STARTCHAR uni1E9C
ENCODING 7836
SWIDTH 538 0
DWIDTH 7 0
BBX 6 9 0 0
BITMAP
1C
30
70
3C
38
70
F0
30
30
ENDCHAR
STARTCHAR uni1E9D
ENCODING 7837
SWIDTH 538 0
DWIDTH 7 0
BBX 5 9 0 0
BITMAP
38
60
F0
60
E0
60
60
60
60
ENDCHAR
STARTCHAR uni1E9E
ENCODING 7838
SWIDTH 538 0
DWIDTH 7 0
BBX 6 9 0 0
BITMAP
78
CC
CC
D8
D0
D8
CC
CC
D8
ENDCHAR
STARTCHAR uni1E9F
ENCODING 7839
SWIDTH 538 0
DWIDTH 7 0
BBX 6 9 0 0
BITMAP
78
C0
C0
78
CC
CC
CC
CC
78
ENDCHAR
STARTCHAR uni1EA0
ENCODING 7840
SWIDTH 538 0
DWIDTH 7 0
BBX 6 11 0 -2
BITMAP
78
CC
CC
CC
FC
CC
CC
CC
CC
00
20
ENDCHAR
STARTCHAR uni1EA1
ENCODING 7841
SWIDTH 538 0
DWIDTH 7 0
BBX 6 9 0 -2
BITMAP
78
0C
0C
7C
CC
CC
7C
00
20
ENDCHAR
STARTCHAR uni1EA2
ENCODING 7842
SWIDTH 538 0
DWIDTH 7 0
BBX 6 11 0 0
BITMAP
E0
30
78
CC
CC
CC
FC
CC
CC
CC
CC
ENDCHAR
STARTCHAR uni1EA3
ENCODING 7843
SWIDTH 538 0
DWIDTH 7 0
BBX 6 10 0 0
BITMAP
E0
30
00
78
0C
0C
7C
CC
CC
7C
ENDCHAR
STARTCHAR uni1EA4
ENCODING 7844
SWIDTH 538 0
DWIDTH 7 0
BBX 6 11 0 0
BITMAP
60
D8
2C
00
78
CC
CC
FC
CC
CC
CC
ENDCHAR
STARTCHAR uni1EA5
ENCODING 7845
SWIDTH 538 0
DWIDTH 7 0
BBX 6 11 0 0
BITMAP
60
D8
2C
00
78
0C
0C
7C
CC
CC
7C
ENDCHAR
STARTCHAR uni1EA6
ENCODING 7846
SWIDTH 538 0
DWIDTH 7 0
BBX 6 11 0 0
BITMAP
18
6C
B0
00
78
CC
CC
FC
CC
CC
CC
ENDCHAR
STARTCHAR uni1EA7
ENCODING 7847
SWIDTH 538 0
DWIDTH 7 0
BBX 6 11 0 0
BITMAP
18
6C
B0
00
78
0C
0C
7C
CC
CC
7C
ENDCHAR
STARTCHAR uni1EA8
ENCODING 7848
SWIDTH 538 0
DWIDTH 7 0
BBX 6 11 0 0
BITMAP
30
08
30
58
00
78
CC
FC
CC
CC
CC
ENDCHAR
STARTCHAR uni1EA9
ENCODING 7849
SWIDTH 538 0
DWIDTH 7 0
BBX 6 11 0 0
BITMAP
30
08
30
58
00
78
0C
7C
CC
CC
7C
ENDCHAR
STARTCHAR uni1EAA
ENCODING 7850
SWIDTH 538 0
DWIDTH 7 0
BBX 6 11 0 0
BITMAP
34
58
30
58
00
78
CC
FC
CC
CC
CC
ENDCHAR
STARTCHAR uni1EAB
ENCODING 7851
SWIDTH 538 0
DWIDTH 7 0
BBX 6 11 0 0
BITMAP
34
58
30
58
00
78
0C
7C
CC
CC
7C
ENDCHAR
STARTCHAR uni1EAC
ENCODING 7852
SWIDTH 538 0
DWIDTH 7 0
BBX 6 13 0 -2
BITMAP
30
58
00
78
CC
CC
FC
CC
CC
CC
CC
00
20
ENDCHAR
STARTCHAR uni1EAD
ENCODING 7853
SWIDTH 538 0
DWIDTH 7 0
BBX 6 12 0 -2
BITMAP
30
58
00
78
0C
0C
7C
CC
CC
7C
00
20
ENDCHAR
STARTCHAR uni1EAE
ENCODING 7854
SWIDTH 538 0
DWIDTH 7 0
BBX 6 11 0 0
BITMAP
18
30
CC
78
00
78
CC
FC
CC
CC
CC
ENDCHAR
STARTCHAR uni1EAF
ENCODING 7855
SWIDTH 538 0
DWIDTH 7 0
BBX 6 11 0 0
BITMAP
18
30
CC
78
00
78
0C
7C
CC
CC
7C
ENDCHAR
STARTCHAR uni1EB0
ENCODING 7856
SWIDTH 538 0
DWIDTH 7 0
BBX 6 11 0 0
BITMAP
60
30
CC
78
00
78
CC
FC
CC
CC
CC
ENDCHAR
STARTCHAR uni1EB1
ENCODING 7857
SWIDTH 538 0
DWIDTH 7 0
BBX 6 11 0 0
BITMAP
60
30
CC
78
00
78
0C
7C
CC
CC
7C
ENDCHAR
STARTCHAR uni1EB2
ENCODING 7858
SWIDTH 538 0
DWIDTH 7 0
BBX 6 11 0 0
BITMAP
C0
20
CC
78
00
78
CC
FC
CC
CC
CC
ENDCHAR
STARTCHAR uni1EB3
ENCODING 7859
SWIDTH 538 0
DWIDTH 7 0
BBX 6 11 0 0
BITMAP
C0
20
CC
78
00
78
0C
7C
CC
CC
7C
ENDCHAR
STARTCHAR uni1EB4
ENCODING 7860
SWIDTH 538 0
DWIDTH 7 0
BBX 6 11 0 0
BITMAP
64
98
CC
78
00
78
CC
FC
CC
CC
CC
ENDCHAR
STARTCHAR uni1EB5
ENCODING 7861
SWIDTH 538 0
DWIDTH 7 0
BBX 6 11 0 0
BITMAP
64
98
CC
78
00
78
0C
7C
CC
CC
7C
ENDCHAR
STARTCHAR uni1EB6
ENCODING 7862
SWIDTH 538 0
DWIDTH 7 0
BBX 6 13 0 -2
BITMAP
CC
78
00
78
CC
CC
FC
CC
CC
CC
CC
00
20
ENDCHAR
STARTCHAR uni1EB7
ENCODING 7863
SWIDTH 538 0
DWIDTH 7 0
BBX 6 12 0 -2
BITMAP
CC
78
00
78
0C
0C
7C
CC
CC
7C
00
20
ENDCHAR
STARTCHAR uni1EB8
ENCODING 7864
SWIDTH 538 0
DWIDTH 7 0
BBX 6 11 0 -2
BITMAP
FC
C0
C0
C0
F8
C0
C0
C0
FC
00
20
ENDCHAR
STARTCHAR uni1EB9
ENCODING 7865
SWIDTH 538 0
DWIDTH 7 0
BBX 6 9 0 -2
BITMAP
78
CC
CC
FC
C0
C0
7C
00
20
ENDCHAR
STARTCHAR uni1EBA
ENCODING 7866
SWIDTH 538 0
DWIDTH 7 0
BBX 6 11 0 0
BITMAP
60
10
FC
C0
C0
C0
F8
C0
C0
C0
FC
ENDCHAR
STARTCHAR uni1EBB
ENCODING 7867
SWIDTH 538 0
DWIDTH 7 0
BBX 6 10 0 0
BITMAP
60
10
00
78
CC
CC
FC
C0
C0
7C
ENDCHAR
STARTCHAR uni1EBC
ENCODING 7868
SWIDTH 538 0
DWIDTH 7 0
BBX 6 11 0 0
BITMAP
74
B8
00
FC
C0
C0
F8
C0
C0
C0
FC
ENDCHAR
STARTCHAR uni1EBD
ENCODING 7869
SWIDTH 538 0
DWIDTH 7 0
BBX 6 11 0 0
BITMAP
64
B4
98
00
78
CC
CC
FC
C0
C0
7C
ENDCHAR
STARTCHAR uni1EBE
ENCODING 7870
SWIDTH 538 0
DWIDTH 7 0
BBX 6 11 0 0
BITMAP
60
D8
2C
00
FC
C0
C0
F8
C0
C0
FC
ENDCHAR
STARTCHAR uni1EBF
ENCODING 7871
SWIDTH 538 0
DWIDTH 7 0
BBX 6 11 0 0
BITMAP
60
D8
2C
00
78
CC
CC
FC
C0
C0
7C
ENDCHAR
STARTCHAR uni1EC0
ENCODING 7872
SWIDTH 538 0
DWIDTH 7 0
BBX 6 11 0 0
BITMAP
18
6C
B0
00
FC
C0
C0
F8
C0
C0
FC
ENDCHAR
STARTCHAR uni1EC1
ENCODING 7873
SWIDTH 538 0
DWIDTH 7 0
BBX 6 11 0 0
BITMAP
18
6C
B0
00
78
CC
CC
FC
C0
C0
7C
ENDCHAR
STARTCHAR uni1EC2
ENCODING 7874
SWIDTH 538 0
DWIDTH 7 0
BBX 6 11 0 0
BITMAP
C0
30
58
00
FC
C0
C0
F8
C0
C0
FC
ENDCHAR
STARTCHAR uni1EC3
ENCODING 7875
SWIDTH 538 0
DWIDTH 7 0
BBX 6 11 0 0
BITMAP
C0
30
58
00
78
CC
CC
FC
C0
C0
7C
ENDCHAR
STARTCHAR uni1EC4
ENCODING 7876
SWIDTH 538 0
DWIDTH 7 0
BBX 6 11 0 0
BITMAP
74
B8
30
58
00
FC
C0
F8
C0
C0
FC
ENDCHAR
STARTCHAR uni1EC5
ENCODING 7877
SWIDTH 538 0
DWIDTH 7 0
BBX 6 11 0 0
BITMAP
74
B8
30
58
00
78
CC
FC
C0
C0
7C
ENDCHAR
STARTCHAR uni1EC6
ENCODING 7878
SWIDTH 538 0
DWIDTH 7 0
BBX 6 13 0 -2
BITMAP
30
58
00
FC
C0
C0
F8
C0
C0
C0
FC
00
20
ENDCHAR
STARTCHAR uni1EC7
ENCODING 7879
SWIDTH 538 0
DWIDTH 7 0
BBX 6 12 0 -2
BITMAP
30
58
00
78
CC
CC
FC
C0
C0
7C
00
20
ENDCHAR
STARTCHAR uni1EC8
ENCODING 7880
SWIDTH 538 0
DWIDTH 7 0
BBX 6 11 0 0
BITMAP
60
10
FC
30
30
30
30
30
30
30
FC
ENDCHAR
STARTCHAR uni1EC9
ENCODING 7881
SWIDTH 538 0
DWIDTH 7 0
BBX 4 10 1 0
BITMAP
C0
20
00
E0
60
60
60
60
60
F0
ENDCHAR
STARTCHAR uni1ECA
ENCODING 7882
SWIDTH 538 0
DWIDTH 7 0
BBX 6 11 0 -2
BITMAP
FC
30
30
30
30
30
30
30
FC
00
20
ENDCHAR
STARTCHAR uni1ECB
ENCODING 7883
SWIDTH 538 0
DWIDTH 7 0
BBX 4 12 1 -2
BITMAP
60
60
00
E0
60
60
60
60
60
F0
00
40
ENDCHAR
STARTCHAR uni1ECC
ENCODING 7884
SWIDTH 538 0
DWIDTH 7 0
BBX 6 11 0 -2
BITMAP
78
CC
CC
CC
CC
CC
CC
CC
78
00
20
ENDCHAR
STARTCHAR uni1ECD
ENCODING 7885
SWIDTH 538 0
DWIDTH 7 0
BBX 6 9 0 -2
BITMAP
78
CC
CC
CC
CC
CC
78
00
20
ENDCHAR
STARTCHAR uni1ECE
ENCODING 7886
SWIDTH 538 0
DWIDTH 7 0
BBX 6 11 0 0
BITMAP
60
10
78
CC
CC
CC
CC
CC
CC
CC
78
ENDCHAR
STARTCHAR uni1ECF
ENCODING 7887
SWIDTH 538 0
DWIDTH 7 0
BBX 6 10 0 0
BITMAP
60
10
00
78
CC
CC
CC
CC
CC
78
ENDCHAR
STARTCHAR uni1ED0
ENCODING 7888
SWIDTH 538 0
DWIDTH 7 0
BBX 6 11 0 0
BITMAP
60
D8
2C
00
78
CC
CC
CC
CC
CC
78
ENDCHAR
STARTCHAR uni1ED1
ENCODING 7889
SWIDTH 538 0
DWIDTH 7 0
BBX 6 11 0 0
BITMAP
60
D8
2C
00
78
CC
CC
CC
CC
CC
78
ENDCHAR
STARTCHAR uni1ED2
ENCODING 7890
SWIDTH 538 0
DWIDTH 7 0
BBX 6 11 0 0
BITMAP
18
6C
B0
00
78
CC
CC
CC
CC
CC
78
ENDCHAR
STARTCHAR uni1ED3
ENCODING 7891
SWIDTH 538 0
DWIDTH 7 0
BBX 6 11 0 0
BITMAP
18
6C
B0
00
78
CC
CC
CC
CC
CC
78
ENDCHAR
STARTCHAR uni1ED4
ENCODING 7892
SWIDTH 538 0
DWIDTH 7 0
BBX 6 11 0 0
BITMAP
C0
30
58
00
78
CC
CC
CC
CC
CC
78
ENDCHAR
STARTCHAR uni1ED5
ENCODING 7893
SWIDTH 538 0
DWIDTH 7 0
BBX 6 11 0 0
BITMAP
C0
30
58
00
78
CC
CC
CC
CC
CC
78
ENDCHAR
STARTCHAR uni1ED6
ENCODING 7894
SWIDTH 538 0
DWIDTH 7 0
BBX 6 11 0 0
BITMAP
74
B8
30
58
00
78
CC
CC
CC
CC
78
ENDCHAR
STARTCHAR uni1ED7
ENCODING 7895
SWIDTH 538 0
DWIDTH 7 0
BBX 6 11 0 0
BITMAP
74
B8
30
58
00
78
CC
CC
CC
CC
78
ENDCHAR
STARTCHAR uni1ED8
ENCODING 7896
SWIDTH 538 0
DWIDTH 7 0
BBX 6 13 0 -2
BITMAP
30
58
00
78
CC
CC
CC
CC
CC
CC
78
00
20
ENDCHAR
STARTCHAR uni1ED9
ENCODING 7897
SWIDTH 538 0
DWIDTH 7 0
BBX 6 12 0 -2
BITMAP
30
58
00
78
CC
CC
CC
CC
CC
78
00
20
ENDCHAR
STARTCHAR uni1EDA
ENCODING 7898
SWIDTH 538 0
DWIDTH 7 0
BBX 7 11 0 0
BITMAP
18
32
7A
CC
CC
CC
CC
CC
CC
CC
78
ENDCHAR
STARTCHAR uni1EDB
ENCODING 7899
SWIDTH 538 0
DWIDTH 7 0
BBX 7 10 0 0
BITMAP
18
30
02
7A
CC
CC
CC
CC
CC
78
ENDCHAR
STARTCHAR uni1EDC
ENCODING 7900
SWIDTH 538 0
DWIDTH 7 0
BBX 7 11 0 0
BITMAP
60
32
7A
CC
CC
CC
CC
CC
CC
CC
78
ENDCHAR
STARTCHAR uni1EDD
ENCODING 7901
SWIDTH 538 0
DWIDTH 7 0
BBX 7 10 0 0
BITMAP
60
30
02
7A
CC
CC
CC
CC
CC
78
ENDCHAR
STARTCHAR uni1EDE
ENCODING 7902
SWIDTH 538 0
DWIDTH 7 0
BBX 7 11 0 0
BITMAP
60
12
7A
CC
CC
CC
CC
CC
CC
CC
78
ENDCHAR
STARTCHAR uni1EDF
ENCODING 7903
SWIDTH 538 0
DWIDTH 7 0
BBX 7 10 0 0
BITMAP
60
10
02
7A
CC
CC
CC
CC
CC
78
ENDCHAR
STARTCHAR uni1EE0
ENCODING 7904
SWIDTH 538 0
DWIDTH 7 0
BBX 7 11 0 0
BITMAP
74
B8
02
7A
CC
CC
CC
CC
CC
CC
78
ENDCHAR
STARTCHAR uni1EE1
ENCODING 7905
SWIDTH 538 0
DWIDTH 7 0
BBX 7 11 0 0
BITMAP
64
B4
98
02
7A
CC
CC
CC
CC
CC
78
ENDCHAR
STARTCHAR uni1EE2
ENCODING 7906
SWIDTH 538 0
DWIDTH 7 0
BBX 7 12 0 -2
BITMAP
02
7A
CC
CC
CC
CC
CC
CC
CC
78
00
20
ENDCHAR
STARTCHAR uni1EE3
ENCODING 7907
SWIDTH 538 0
DWIDTH 7 0
BBX 7 10 0 -2
BITMAP
02
7A
CC
CC
CC
CC
CC
78
00
20
ENDCHAR
STARTCHAR uni1EE4
ENCODING 7908
SWIDTH 538 0
DWIDTH 7 0
BBX 6 11 0 -2
BITMAP
CC
CC
CC
CC
CC
CC
CC
CC
78
00
20
ENDCHAR
STARTCHAR uni1EE5
ENCODING 7909
SWIDTH 538 0
DWIDTH 7 0
BBX 6 9 0 -2
BITMAP
CC
CC
CC
CC
CC
CC
7C
00
20
ENDCHAR
STARTCHAR uni1EE6
ENCODING 7910
SWIDTH 538 0
DWIDTH 7 0
BBX 6 11 0 0
BITMAP
60
10
CC
CC
CC
CC
CC
CC
CC
CC
78
ENDCHAR
STARTCHAR uni1EE7
ENCODING 7911
SWIDTH 538 0
DWIDTH 7 0
BBX 6 10 0 0
BITMAP
60
10
00
CC
CC
CC
CC
CC
CC
7C
ENDCHAR
STARTCHAR uni1EE8
ENCODING 7912
SWIDTH 538 0
DWIDTH 7 0
BBX 7 11 0 0
BITMAP
18
32
02
CC
CC
CC
CC
CC
CC
CC
78
ENDCHAR
STARTCHAR uni1EE9
ENCODING 7913
SWIDTH 538 0
DWIDTH 7 0
BBX 7 10 0 0
BITMAP
18
32
02
CC
CC
CC
CC
CC
CC
7C
ENDCHAR
STARTCHAR uni1EEA
ENCODING 7914
SWIDTH 538 0
DWIDTH 7 0
BBX 7 11 0 0
BITMAP
60
32
02
CC
CC
CC
CC
CC
CC
CC
78
ENDCHAR
STARTCHAR uni1EEB
ENCODING 7915
SWIDTH 538 0
DWIDTH 7 0
BBX 7 10 0 0
BITMAP
60
32
02
CC
CC
CC
CC
CC
CC
7C
ENDCHAR
STARTCHAR uni1EEC
ENCODING 7916
SWIDTH 538 0
DWIDTH 7 0
BBX 7 11 0 0
BITMAP
62
12
CC
CC
CC
CC
CC
CC
CC
CC
78
ENDCHAR
STARTCHAR uni1EED
ENCODING 7917
SWIDTH 538 0
DWIDTH 7 0
BBX 7 10 0 0
BITMAP
60
12
02
CC
CC
CC
CC
CC
CC
7C
ENDCHAR
STARTCHAR uni1EEE
ENCODING 7918
SWIDTH 538 0
DWIDTH 7 0
BBX 7 11 0 0
BITMAP
74
BA
02
CC
CC
CC
CC
CC
CC
CC
78
ENDCHAR
STARTCHAR uni1EEF
ENCODING 7919
SWIDTH 538 0
DWIDTH 7 0
BBX 7 11 0 0
BITMAP
64
B4
9A
02
CC
CC
CC
CC
CC
CC
7C
ENDCHAR
STARTCHAR uni1EF0
ENCODING 7920
SWIDTH 538 0
DWIDTH 7 0
BBX 7 13 0 -2
BITMAP
02
02
CC
CC
CC
CC
CC
CC
CC
CC
78
00
10
ENDCHAR
STARTCHAR uni1EF1
ENCODING 7921
SWIDTH 538 0
DWIDTH 7 0
BBX 7 11 0 -2
BITMAP
02
02
CC
CC
CC
CC
CC
CC
7C
00
20
ENDCHAR
STARTCHAR Ygrave
ENCODING 7922
SWIDTH 538 0
DWIDTH 7 0
BBX 6 11 0 0
BITMAP
60
30
CC
CC
78
78
30
30
30
30
30
ENDCHAR
STARTCHAR ygrave
ENCODING 7923
SWIDTH 538 0
DWIDTH 7 0
BBX 6 12 0 -2
BITMAP
60
30
00
CC
CC
CC
CC
CC
CC
7C
0C
78
ENDCHAR
STARTCHAR uni1EF4
ENCODING 7924
SWIDTH 538 0
DWIDTH 7 0
BBX 6 11 0 -2
BITMAP
CC
CC
78
78
30
30
30
30
30
00
20
ENDCHAR
STARTCHAR uni1EF5
ENCODING 7925
SWIDTH 538 0
DWIDTH 7 0
BBX 6 9 0 -2
BITMAP
CC
CC
CC
CC
CC
7C
18
F0
04
ENDCHAR
STARTCHAR uni1EF6
ENCODING 7926
SWIDTH 538 0
DWIDTH 7 0
BBX 6 11 0 0
BITMAP
60
10
CC
CC
78
78
30
30
30
30
30
ENDCHAR
STARTCHAR uni1EF7
ENCODING 7927
SWIDTH 538 0
DWIDTH 7 0
BBX 6 12 0 -2
BITMAP
60
10
00
CC
CC
CC
CC
CC
CC
7C
0C
78
ENDCHAR
STARTCHAR uni1EF8
ENCODING 7928
SWIDTH 538 0
DWIDTH 7 0
BBX 6 11 0 0
BITMAP
74
B8
00
CC
CC
78
78
30
30
30
30
ENDCHAR
STARTCHAR uni1EF9
ENCODING 7929
SWIDTH 538 0
DWIDTH 7 0
BBX 6 13 0 -2
BITMAP
64
B4
98
00
CC
CC
CC
CC
CC
CC
7C
0C
78
ENDCHAR
STARTCHAR uni1EFA
ENCODING 7930
SWIDTH 538 0
DWIDTH 7 0
BBX 6 9 0 0
BITMAP
D0
D0
D0
D0
D0
D0
D0
D0
FC
ENDCHAR
STARTCHAR uni1EFB
ENCODING 7931
SWIDTH 538 0
DWIDTH 7 0
BBX 6 9 0 0
BITMAP
F8
68
68
68
68
68
68
68
34
ENDCHAR
STARTCHAR uni1EFC
ENCODING 7932
SWIDTH 538 0
DWIDTH 7 0
BBX 6 9 0 0
BITMAP
38
60
C0
C0
D8
CC
CC
CC
78
ENDCHAR
STARTCHAR uni1EFD
ENCODING 7933
SWIDTH 538 0
DWIDTH 7 0
BBX 6 7 0 0
BITMAP
38
60
C0
D8
CC
CC
78
ENDCHAR
STARTCHAR uni1EFE
ENCODING 7934
SWIDTH 538 0
DWIDTH 7 0
BBX 6 10 0 -1
BITMAP
CC
CC
78
78
30
30
30
70
D0
60
ENDCHAR
STARTCHAR uni1EFF
ENCODING 7935
SWIDTH 538 0
DWIDTH 7 0
BBX 6 9 0 -2
BITMAP
CC
CC
CC
CC
7C
0C
6C
DC
78
ENDCHAR
STARTCHAR uni1F00
ENCODING 7936
SWIDTH 538 0
DWIDTH 7 0
BBX 6 11 0 0
BITMAP
30
10
20
00
6C
DC
CC
CC
CC
DC
6C
ENDCHAR
STARTCHAR uni1F01
ENCODING 7937
SWIDTH 538 0
DWIDTH 7 0
BBX 6 11 0 0
BITMAP
30
20
10
00
6C
DC
CC
CC
CC
DC
6C
ENDCHAR
STARTCHAR uni1F02
ENCODING 7938
SWIDTH 538 0
DWIDTH 7 0
BBX 6 11 0 0
BITMAP
C0
58
8C
00
6C
DC
CC
CC
CC
DC
6C
ENDCHAR
STARTCHAR uni1F03
ENCODING 7939
SWIDTH 538 0
DWIDTH 7 0
BBX 6 11 0 0
BITMAP
C0
98
4C
00
6C
DC
CC
CC
CC
DC
6C
ENDCHAR
STARTCHAR uni1F04
ENCODING 7940
SWIDTH 538 0
DWIDTH 7 0
BBX 6 11 0 0
BITMAP
C0
4C
98
00
6C
DC
CC
CC
CC
DC
6C
ENDCHAR
STARTCHAR uni1F05
ENCODING 7941
SWIDTH 538 0
DWIDTH 7 0
BBX 6 11 0 0
BITMAP
C0
8C
58
00
6C
DC
CC
CC
CC
DC
6C
ENDCHAR
STARTCHAR uni1F06
ENCODING 7942
SWIDTH 538 0
DWIDTH 7 0
BBX 6 11 0 0
BITMAP
78
CC
30
10
20
6C
DC
CC
CC
DC
6C
ENDCHAR
STARTCHAR uni1F07
ENCODING 7943
SWIDTH 538 0
DWIDTH 7 0
BBX 6 11 0 0
BITMAP
78
CC
30
20
10
6C
DC
CC
CC
DC
6C
ENDCHAR
STARTCHAR uni1F08
ENCODING 7944
SWIDTH 538 0
DWIDTH 7 0
BBX 6 11 0 0
BITMAP
30
10
20
78
CC
CC
FC
CC
CC
CC
CC
ENDCHAR
STARTCHAR uni1F09
ENCODING 7945
SWIDTH 538 0
DWIDTH 7 0
BBX 6 11 0 0
BITMAP
30
20
10
78
CC
CC
FC
CC
CC
CC
CC
ENDCHAR
STARTCHAR uni1F0A
ENCODING 7946
SWIDTH 538 0
DWIDTH 7 0
BBX 6 11 0 0
BITMAP
D8
4C
80
78
CC
CC
CC
FC
CC
CC
CC
ENDCHAR
STARTCHAR uni1F0B
ENCODING 7947
SWIDTH 538 0
DWIDTH 7 0
BBX 6 11 0 0
BITMAP
D8
8C
40
78
CC
CC
CC
FC
CC
CC
CC
ENDCHAR
STARTCHAR uni1F0C
ENCODING 7948
SWIDTH 538 0
DWIDTH 7 0
BBX 6 11 0 0
BITMAP
CC
58
80
78
CC
CC
FC
CC
CC
CC
CC
ENDCHAR
STARTCHAR uni1F0D
ENCODING 7949
SWIDTH 538 0
DWIDTH 7 0
BBX 6 11 0 0
BITMAP
CC
98
40
78
CC
CC
FC
CC
CC
CC
CC
ENDCHAR
STARTCHAR uni1F0E
ENCODING 7950
SWIDTH 538 0
DWIDTH 7 0
BBX 6 11 0 0
BITMAP
78
CC
30
10
20
78
CC
FC
CC
CC
CC
ENDCHAR
STARTCHAR uni1F0F
ENCODING 7951
SWIDTH 538 0
DWIDTH 7 0
BBX 6 11 0 0
BITMAP
78
CC
30
20
10
78
CC
FC
CC
CC
CC
ENDCHAR
STARTCHAR uni1F10
ENCODING 7952
SWIDTH 538 0
DWIDTH 7 0
BBX 6 11 0 0
BITMAP
30
10
20
00
7C
C0
C0
78
C0
C0
7C
ENDCHAR
STARTCHAR uni1F11
ENCODING 7953
SWIDTH 538 0
DWIDTH 7 0
BBX 6 11 0 0
BITMAP
30
20
10
00
7C
C0
C0
78
C0
C0
7C
ENDCHAR
STARTCHAR uni1F12
ENCODING 7954
SWIDTH 538 0
DWIDTH 7 0
BBX 6 11 0 0
BITMAP
C0
58
8C
00
7C
C0
C0
78
C0
C0
7C
ENDCHAR
STARTCHAR uni1F13
ENCODING 7955
SWIDTH 538 0
DWIDTH 7 0
BBX 6 11 0 0
BITMAP
C0
98
4C
00
7C
C0
C0
78
C0
C0
7C
ENDCHAR
STARTCHAR uni1F14
ENCODING 7956
SWIDTH 538 0
DWIDTH 7 0
BBX 6 11 0 0
BITMAP
C0
4C
98
00
7C
C0
C0
78
C0
C0
7C
ENDCHAR
STARTCHAR uni1F15
ENCODING 7957
SWIDTH 538 0
DWIDTH 7 0
BBX 6 11 0 0
BITMAP
C0
8C
58
00
7C
C0
C0
78
C0
C0
7C
ENDCHAR
STARTCHAR uni1F18
ENCODING 7960
SWIDTH 538 0
DWIDTH 7 0
BBX 6 11 0 0
BITMAP
30
10
20
FC
C0
C0
F8
C0
C0
C0
FC
ENDCHAR
STARTCHAR uni1F19
ENCODING 7961
SWIDTH 538 0
DWIDTH 7 0
BBX 6 11 0 0
BITMAP
30
20
10
FC
C0
C0
F8
C0
C0
C0
FC
ENDCHAR
STARTCHAR uni1F1A
ENCODING 7962
SWIDTH 538 0
DWIDTH 7 0
BBX 6 11 0 0
BITMAP
D8
4C
80
00
FC
C0
C0
F8
C0
C0
FC
ENDCHAR
STARTCHAR uni1F1B
ENCODING 7963
SWIDTH 538 0
DWIDTH 7 0
BBX 6 11 0 0
BITMAP
D8
8C
40
00
FC
C0
C0
F8
C0
C0
FC
ENDCHAR
STARTCHAR uni1F1C
ENCODING 7964
SWIDTH 538 0
DWIDTH 7 0
BBX 6 11 0 0
BITMAP
CC
58
80
00
FC
C0
C0
F8
C0
C0
FC
ENDCHAR
STARTCHAR uni1F1D
ENCODING 7965
SWIDTH 538 0
DWIDTH 7 0
BBX 6 11 0 0
BITMAP
CC
98
40
00
FC
C0
C0
F8
C0
C0
FC
ENDCHAR
STARTCHAR uni1F20
ENCODING 7968
SWIDTH 538 0
DWIDTH 7 0
BBX 6 13 0 -2
BITMAP
30
10
20
00
F8
CC
CC
CC
CC
CC
CC
0C
0C
ENDCHAR
STARTCHAR uni1F21
ENCODING 7969
SWIDTH 538 0
DWIDTH 7 0
BBX 6 13 0 -2
BITMAP
30
20
10
00
F8
CC
CC
CC
CC
CC
CC
0C
0C
ENDCHAR
STARTCHAR uni1F22
ENCODING 7970
SWIDTH 538 0
DWIDTH 7 0
BBX 6 13 0 -2
BITMAP
C0
58
8C
00
F8
CC
CC
CC
CC
CC
CC
0C
0C
ENDCHAR
STARTCHAR uni1F23
ENCODING 7971
SWIDTH 538 0
DWIDTH 7 0
BBX 6 13 0 -2
BITMAP
C0
98
4C
00
F8
CC
CC
CC
CC
CC
CC
0C
0C
ENDCHAR
STARTCHAR uni1F24
ENCODING 7972
SWIDTH 538 0
DWIDTH 7 0
BBX 6 13 0 -2
BITMAP
C0
4C
98
00
F8
CC
CC
CC
CC
CC
CC
0C
0C
ENDCHAR
STARTCHAR uni1F25
ENCODING 7973
SWIDTH 538 0
DWIDTH 7 0
BBX 6 13 0 -2
BITMAP
C0
8C
58
00
F8
CC
CC
CC
CC
CC
CC
0C
0C
ENDCHAR
STARTCHAR uni1F26
ENCODING 7974
SWIDTH 538 0
DWIDTH 7 0
BBX 6 13 0 -2
BITMAP
78
CC
30
10
20
F8
CC
CC
CC
CC
CC
0C
0C
ENDCHAR
STARTCHAR uni1F27
ENCODING 7975
SWIDTH 538 0
DWIDTH 7 0
BBX 6 13 0 -2
BITMAP
78
CC
30
20
10
F8
CC
CC
CC
CC
CC
0C
0C
ENDCHAR
STARTCHAR uni1F28
ENCODING 7976
SWIDTH 538 0
DWIDTH 7 0
BBX 6 11 0 0
BITMAP
C0
40
80
CC
CC
CC
FC
CC
CC
CC
CC
ENDCHAR
STARTCHAR uni1F29
ENCODING 7977
SWIDTH 538 0
DWIDTH 7 0
BBX 6 11 0 0
BITMAP
C0
80
40
CC
CC
CC
FC
CC
CC
CC
CC
ENDCHAR
STARTCHAR uni1F2A
ENCODING 7978
SWIDTH 538 0
DWIDTH 7 0
BBX 6 11 0 0
BITMAP
D8
4C
80
CC
CC
CC
FC
CC
CC
CC
CC
ENDCHAR
STARTCHAR uni1F2B
ENCODING 7979
SWIDTH 538 0
DWIDTH 7 0
BBX 6 11 0 0
BITMAP
D8
8C
40
CC
CC
CC
FC
CC
CC
CC
CC
ENDCHAR
STARTCHAR uni1F2C
ENCODING 7980
SWIDTH 538 0
DWIDTH 7 0
BBX 6 11 0 0
BITMAP
CC
58
80
CC
CC
CC
FC
CC
CC
CC
CC
ENDCHAR
STARTCHAR uni1F2D
ENCODING 7981
SWIDTH 538 0
DWIDTH 7 0
BBX 6 11 0 0
BITMAP
CC
98
40
CC
CC
CC
FC
CC
CC
CC
CC
ENDCHAR
STARTCHAR uni1F2E
ENCODING 7982
SWIDTH 538 0
DWIDTH 7 0
BBX 6 11 0 0
BITMAP
78
CC
30
10
20
CC
CC
FC
CC
CC
CC
ENDCHAR
STARTCHAR uni1F2F
ENCODING 7983
SWIDTH 538 0
DWIDTH 7 0
BBX 6 11 0 0
BITMAP
78
CC
30
20
10
CC
CC
FC
CC
CC
CC
ENDCHAR
STARTCHAR uni1F30
ENCODING 7984
SWIDTH 538 0
DWIDTH 7 0
BBX 5 11 1 0
BITMAP
60
20
40
00
E0
60
60
60
60
60
38
ENDCHAR
STARTCHAR uni1F31
ENCODING 7985
SWIDTH 538 0
DWIDTH 7 0
BBX 5 11 1 0
BITMAP
60
40
20
00
E0
60
60
60
60
60
38
ENDCHAR
STARTCHAR uni1F32
ENCODING 7986
SWIDTH 538 0
DWIDTH 7 0
BBX 6 11 0 0
BITMAP
C0
58
8C
00
70
30
30
30
30
30
1C
ENDCHAR
STARTCHAR uni1F33
ENCODING 7987
SWIDTH 538 0
DWIDTH 7 0
BBX 6 11 0 0
BITMAP
C0
98
4C
00
70
30
30
30
30
30
1C
ENDCHAR
STARTCHAR uni1F34
ENCODING 7988
SWIDTH 538 0
DWIDTH 7 0
BBX 6 11 0 0
BITMAP
C0
4C
98
00
70
30
30
30
30
30
1C
ENDCHAR
STARTCHAR uni1F35
ENCODING 7989
SWIDTH 538 0
DWIDTH 7 0
BBX 6 11 0 0
BITMAP
C0
8C
58
00
70
30
30
30
30
30
1C
ENDCHAR
STARTCHAR uni1F36
ENCODING 7990
SWIDTH 538 0
DWIDTH 7 0
BBX 6 11 0 0
BITMAP
78
CC
30
10
20
70
30
30
30
30
1C
ENDCHAR
STARTCHAR uni1F37
ENCODING 7991
SWIDTH 538 0
DWIDTH 7 0
BBX 6 11 0 0
BITMAP
78
CC
30
20
10
70
30
30
30
30
1C
ENDCHAR
STARTCHAR uni1F38
ENCODING 7992
SWIDTH 538 0
DWIDTH 7 0
BBX 6 11 0 0
BITMAP
30
10
20
FC
30
30
30
30
30
30
FC
ENDCHAR
STARTCHAR uni1F39
ENCODING 7993
SWIDTH 538 0
DWIDTH 7 0
BBX 6 11 0 0
BITMAP
30
20
10
FC
30
30
30
30
30
30
FC
ENDCHAR
STARTCHAR uni1F3A
ENCODING 7994
SWIDTH 538 0
DWIDTH 7 0
BBX 6 11 0 0
BITMAP
D8
4C
80
FC
30
30
30
30
30
30
FC
ENDCHAR
STARTCHAR uni1F3B
ENCODING 7995
SWIDTH 538 0
DWIDTH 7 0
BBX 6 11 0 0
BITMAP
D8
8C
40
FC
30
30
30
30
30
30
FC
ENDCHAR
STARTCHAR uni1F3C
ENCODING 7996
SWIDTH 538 0
DWIDTH 7 0
BBX 6 11 0 0
BITMAP
CC
58
80
FC
30
30
30
30
30
30
FC
ENDCHAR
STARTCHAR uni1F3D
ENCODING 7997
SWIDTH 538 0
DWIDTH 7 0
BBX 6 11 0 0
BITMAP
CC
98
40
FC
30
30
30
30
30
30
FC
ENDCHAR
STARTCHAR uni1F3E
ENCODING 7998
SWIDTH 538 0
DWIDTH 7 0
BBX 6 11 0 0
BITMAP
78
CC
30
10
20
FC
30
30
30
30
FC
ENDCHAR
STARTCHAR uni1F3F
ENCODING 7999
SWIDTH 538 0
DWIDTH 7 0
BBX 6 11 0 0
BITMAP
78
CC
30
10
20
FC
30
30
30
30
FC
ENDCHAR
STARTCHAR uni1F40
ENCODING 8000
SWIDTH 538 0
DWIDTH 7 0
BBX 6 11 0 0
BITMAP
30
10
20
00
78
CC
CC
CC
CC
CC
78
ENDCHAR
STARTCHAR uni1F41
ENCODING 8001
SWIDTH 538 0
DWIDTH 7 0
BBX 6 11 0 0
BITMAP
30
20
10
00
78
CC
CC
CC
CC
CC
78
ENDCHAR
STARTCHAR uni1F42
ENCODING 8002
SWIDTH 538 0
DWIDTH 7 0
BBX 6 11 0 0
BITMAP
C0
58
8C
00
78
CC
CC
CC
CC
CC
78
ENDCHAR
STARTCHAR uni1F43
ENCODING 8003
SWIDTH 538 0
DWIDTH 7 0
BBX 6 11 0 0
BITMAP
C0
98
4C
00
78
CC
CC
CC
CC
CC
78
ENDCHAR
STARTCHAR uni1F44
ENCODING 8004
SWIDTH 538 0
DWIDTH 7 0
BBX 6 11 0 0
BITMAP
C0
4C
98
00
78
CC
CC
CC
CC
CC
78
ENDCHAR
STARTCHAR uni1F45
ENCODING 8005
SWIDTH 538 0
DWIDTH 7 0
BBX 6 11 0 0
BITMAP
C0
8C
58
00
78
CC
CC
CC
CC
CC
78
ENDCHAR
STARTCHAR uni1F48
ENCODING 8008
SWIDTH 538 0
DWIDTH 7 0
BBX 6 11 0 0
BITMAP
30
10
20
78
CC
CC
CC
CC
CC
CC
78
ENDCHAR
STARTCHAR uni1F49
ENCODING 8009
SWIDTH 538 0
DWIDTH 7 0
BBX 6 11 0 0
BITMAP
30
20
10
78
CC
CC
CC
CC
CC
CC
78
ENDCHAR
STARTCHAR uni1F4A
ENCODING 8010
SWIDTH 538 0
DWIDTH 7 0
BBX 6 11 0 0
BITMAP
D8
4C
80
78
CC
CC
CC
CC
CC
CC
78
ENDCHAR
STARTCHAR uni1F4B
ENCODING 8011
SWIDTH 538 0
DWIDTH 7 0
BBX 6 11 0 0
BITMAP
D8
8C
40
78
CC
CC
CC
CC
CC
CC
78
ENDCHAR
STARTCHAR uni1F4C
ENCODING 8012
SWIDTH 538 0
DWIDTH 7 0
BBX 6 11 0 0
BITMAP
CC
58
80
78
CC
CC
CC
CC
CC
CC
78
ENDCHAR
STARTCHAR uni1F4D
ENCODING 8013
SWIDTH 538 0
DWIDTH 7 0
BBX 6 11 0 0
BITMAP
CC
98
40
78
CC
CC
CC
CC
CC
CC
78
ENDCHAR
STARTCHAR uni1F50
ENCODING 8016
SWIDTH 538 0
DWIDTH 7 0
BBX 6 11 0 0
BITMAP
30
10
20
00
CC
CC
CC
CC
CC
CC
78
ENDCHAR
STARTCHAR uni1F51
ENCODING 8017
SWIDTH 538 0
DWIDTH 7 0
BBX 6 11 0 0
BITMAP
30
20
10
00
CC
CC
CC
CC
CC
CC
78
ENDCHAR
STARTCHAR uni1F52
ENCODING 8018
SWIDTH 538 0
DWIDTH 7 0
BBX 6 11 0 0
BITMAP
C0
58
8C
00
CC
CC
CC
CC
CC
CC
78
ENDCHAR
STARTCHAR uni1F53
ENCODING 8019
SWIDTH 538 0
DWIDTH 7 0
BBX 6 11 0 0
BITMAP
C0
98
4C
00
CC
CC
CC
CC
CC
CC
78
ENDCHAR
STARTCHAR uni1F54
ENCODING 8020
SWIDTH 538 0
DWIDTH 7 0
BBX 6 11 0 0
BITMAP
C0
4C
98
00
CC
CC
CC
CC
CC
CC
78
ENDCHAR
STARTCHAR uni1F55
ENCODING 8021
SWIDTH 538 0
DWIDTH 7 0
BBX 6 11 0 0
BITMAP
C0
8C
58
00
CC
CC
CC
CC
CC
CC
78
ENDCHAR
STARTCHAR uni1F56
ENCODING 8022
SWIDTH 538 0
DWIDTH 7 0
BBX 6 11 0 0
BITMAP
78
CC
30
10
20
CC
CC
CC
CC
CC
78
ENDCHAR
STARTCHAR uni1F57
ENCODING 8023
SWIDTH 538 0
DWIDTH 7 0
BBX 6 11 0 0
BITMAP
78
CC
30
20
10
CC
CC
CC
CC
CC
78
ENDCHAR
STARTCHAR uni1F59
ENCODING 8025
SWIDTH 538 0
DWIDTH 7 0
BBX 6 11 0 0
BITMAP
30
20
10
CC
CC
78
78
30
30
30
30
ENDCHAR
STARTCHAR uni1F5B
ENCODING 8027
SWIDTH 538 0
DWIDTH 7 0
BBX 6 11 0 0
BITMAP
D8
8C
40
CC
CC
78
78
30
30
30
30
ENDCHAR
STARTCHAR uni1F5D
ENCODING 8029
SWIDTH 538 0
DWIDTH 7 0
BBX 6 11 0 0
BITMAP
CC
98
40
CC
CC
78
78
30
30
30
30
ENDCHAR
STARTCHAR uni1F5F
ENCODING 8031
SWIDTH 538 0
DWIDTH 7 0
BBX 6 11 0 0
BITMAP
78
CC
30
20
10
CC
CC
78
30
30
30
ENDCHAR
STARTCHAR uni1F60
ENCODING 8032
SWIDTH 538 0
DWIDTH 7 0
BBX 6 11 0 0
BITMAP
30
10
20
00
CC
CC
CC
FC
FC
FC
78
ENDCHAR
STARTCHAR uni1F61
ENCODING 8033
SWIDTH 538 0
DWIDTH 7 0
BBX 6 11 0 0
BITMAP
30
20
10
00
CC
CC
CC
FC
FC
FC
78
ENDCHAR
STARTCHAR uni1F62
ENCODING 8034
SWIDTH 538 0
DWIDTH 7 0
BBX 6 11 0 0
BITMAP
C0
58
8C
00
CC
CC
CC
FC
FC
FC
78
ENDCHAR
STARTCHAR uni1F63
ENCODING 8035
SWIDTH 538 0
DWIDTH 7 0
BBX 6 11 0 0
BITMAP
C0
98
4C
00
CC
CC
CC
FC
FC
FC
78
ENDCHAR
STARTCHAR uni1F64
ENCODING 8036
SWIDTH 538 0
DWIDTH 7 0
BBX 6 11 0 0
BITMAP
C0
4C
98
00
CC
CC
CC
FC
FC
FC
78
ENDCHAR
STARTCHAR uni1F65
ENCODING 8037
SWIDTH 538 0
DWIDTH 7 0
BBX 6 11 0 0
BITMAP
C0
8C
58
00
CC
CC
CC
FC
FC
FC
78
ENDCHAR
STARTCHAR uni1F66
ENCODING 8038
SWIDTH 538 0
DWIDTH 7 0
BBX 6 11 0 0
BITMAP
78
CC
30
10
20
CC
CC
CC
FC
FC
78
ENDCHAR
STARTCHAR uni1F67
ENCODING 8039
SWIDTH 538 0
DWIDTH 7 0
BBX 6 11 0 0
BITMAP
78
CC
30
20
10
CC
CC
CC
FC
FC
78
ENDCHAR
STARTCHAR uni1F68
ENCODING 8040
SWIDTH 538 0
DWIDTH 7 0
BBX 6 11 0 0
BITMAP
30
10
20
78
CC
CC
CC
CC
CC
48
CC
ENDCHAR
STARTCHAR uni1F69
ENCODING 8041
SWIDTH 538 0
DWIDTH 7 0
BBX 6 11 0 0
BITMAP
30
20
10
78
CC
CC
CC
CC
CC
48
CC
ENDCHAR
STARTCHAR uni1F6A
ENCODING 8042
SWIDTH 538 0
DWIDTH 7 0
BBX 6 11 0 0
BITMAP
D8
4C
80
78
CC
CC
CC
CC
CC
48
CC
ENDCHAR
STARTCHAR uni1F6B
ENCODING 8043
SWIDTH 538 0
DWIDTH 7 0
BBX 6 11 0 0
BITMAP
D8
8C
40
78
CC
CC
CC
CC
CC
48
CC
ENDCHAR
STARTCHAR uni1F6C
ENCODING 8044
SWIDTH 538 0
DWIDTH 7 0
BBX 6 11 0 0
BITMAP
CC
58
80
78
CC
CC
CC
CC
CC
48
CC
ENDCHAR
STARTCHAR uni1F6D
ENCODING 8045
SWIDTH 538 0
DWIDTH 7 0
BBX 6 11 0 0
BITMAP
CC
98
40
78
CC
CC
CC
CC
CC
48
CC
ENDCHAR
STARTCHAR uni1F6E
ENCODING 8046
SWIDTH 538 0
DWIDTH 7 0
BBX 6 11 0 0
BITMAP
78
CC
30
10
20
78
CC
CC
CC
48
CC
ENDCHAR
STARTCHAR uni1F6F
ENCODING 8047
SWIDTH 538 0
DWIDTH 7 0
BBX 6 11 0 0
BITMAP
78
CC
30
20
10
78
CC
CC
CC
48
CC
ENDCHAR
STARTCHAR uni1F70
ENCODING 8048
SWIDTH 538 0
DWIDTH 7 0
BBX 6 10 0 0
BITMAP
60
30
00
6C
DC
CC
CC
CC
DC
6C
ENDCHAR
STARTCHAR uni1F71
ENCODING 8049
SWIDTH 538 0
DWIDTH 7 0
BBX 6 10 0 0
BITMAP
18
30
00
6C
DC
CC
CC
CC
DC
6C
ENDCHAR
STARTCHAR uni1F72
ENCODING 8050
SWIDTH 538 0
DWIDTH 7 0
BBX 6 10 0 0
BITMAP
60
30
00
7C
C0
C0
78
C0
C0
7C
ENDCHAR
STARTCHAR uni1F73
ENCODING 8051
SWIDTH 538 0
DWIDTH 7 0
BBX 6 10 0 0
BITMAP
18
30
00
7C
C0
C0
78
C0
C0
7C
ENDCHAR
STARTCHAR uni1F74
ENCODING 8052
SWIDTH 538 0
DWIDTH 7 0
BBX 6 12 0 -2
BITMAP
60
30
00
F8
CC
CC
CC
CC
CC
CC
0C
0C
ENDCHAR
STARTCHAR uni1F75
ENCODING 8053
SWIDTH 538 0
DWIDTH 7 0
BBX 6 12 0 -2
BITMAP
18
30
00
F8
CC
CC
CC
CC
CC
CC
0C
0C
ENDCHAR
STARTCHAR uni1F76
ENCODING 8054
SWIDTH 538 0
DWIDTH 7 0
BBX 5 10 1 0
BITMAP
C0
60
00
E0
60
60
60
60
60
38
ENDCHAR
STARTCHAR uni1F77
ENCODING 8055
SWIDTH 538 0
DWIDTH 7 0
BBX 5 10 1 0
BITMAP
30
60
00
E0
60
60
60
60
60
38
ENDCHAR
STARTCHAR uni1F78
ENCODING 8056
SWIDTH 538 0
DWIDTH 7 0
BBX 6 10 0 0
BITMAP
60
30
00
78
CC
CC
CC
CC
CC
78
ENDCHAR
STARTCHAR uni1F79
ENCODING 8057
SWIDTH 538 0
DWIDTH 7 0
BBX 6 10 0 0
BITMAP
18
30
00
78
CC
CC
CC
CC
CC
78
ENDCHAR
STARTCHAR uni1F7A
ENCODING 8058
SWIDTH 538 0
DWIDTH 7 0
BBX 6 10 0 0
BITMAP
60
30
00
CC
CC
CC
CC
CC
CC
78
ENDCHAR
STARTCHAR uni1F7B
ENCODING 8059
SWIDTH 538 0
DWIDTH 7 0
BBX 6 10 0 0
BITMAP
18
30
00
CC
CC
CC
CC
CC
CC
78
ENDCHAR
STARTCHAR uni1F7C
ENCODING 8060
SWIDTH 538 0
DWIDTH 7 0
BBX 6 10 0 0
BITMAP
60
30
00
CC
CC
CC
FC
FC
FC
78
ENDCHAR
STARTCHAR uni1F7D
ENCODING 8061
SWIDTH 538 0
DWIDTH 7 0
BBX 6 10 0 0
BITMAP
18
30
00
CC
CC
CC
FC
FC
FC
78
ENDCHAR
STARTCHAR uni1F80
ENCODING 8064
SWIDTH 538 0
DWIDTH 7 0
BBX 6 13 0 -2
BITMAP
30
10
20
00
6C
DC
CC
CC
CC
DC
7C
30
18
ENDCHAR
STARTCHAR uni1F81
ENCODING 8065
SWIDTH 538 0
DWIDTH 7 0
BBX 6 13 0 -2
BITMAP
30
20
10
00
6C
DC
CC
CC
CC
DC
7C
30
18
ENDCHAR
STARTCHAR uni1F82
ENCODING 8066
SWIDTH 538 0
DWIDTH 7 0
BBX 6 13 0 -2
BITMAP
C0
58
8C
00
6C
DC
CC
CC
CC
DC
7C
30
18
ENDCHAR
STARTCHAR uni1F83
ENCODING 8067
SWIDTH 538 0
DWIDTH 7 0
BBX 6 13 0 -2
BITMAP
C0
98
4C
00
6C
DC
CC
CC
CC
DC
7C
30
18
ENDCHAR
STARTCHAR uni1F84
ENCODING 8068
SWIDTH 538 0
DWIDTH 7 0
BBX 6 13 0 -2
BITMAP
C0
4C
98
00
6C
DC
CC
CC
CC
DC
7C
30
18
ENDCHAR
STARTCHAR uni1F85
ENCODING 8069
SWIDTH 538 0
DWIDTH 7 0
BBX 6 13 0 -2
BITMAP
C0
8C
58
00
6C
DC
CC
CC
CC
DC
7C
30
18
ENDCHAR
STARTCHAR uni1F86
ENCODING 8070
SWIDTH 538 0
DWIDTH 7 0
BBX 6 13 0 -2
BITMAP
78
CC
30
10
20
6C
DC
CC
CC
DC
7C
30
18
ENDCHAR
STARTCHAR uni1F87
ENCODING 8071
SWIDTH 538 0
DWIDTH 7 0
BBX 6 13 0 -2
BITMAP
78
CC
30
20
10
6C
DC
CC
CC
DC
7C
30
18
ENDCHAR
STARTCHAR uni1F88
ENCODING 8072
SWIDTH 538 0
DWIDTH 7 0
BBX 6 13 0 -2
BITMAP
30
10
20
78
CC
CC
FC
CC
CC
CC
CC
30
18
ENDCHAR
STARTCHAR uni1F89
ENCODING 8073
SWIDTH 538 0
DWIDTH 7 0
BBX 6 13 0 -2
BITMAP
30
20
10
78
CC
CC
FC
CC
CC
CC
CC
30
18
ENDCHAR
STARTCHAR uni1F8A
ENCODING 8074
SWIDTH 538 0
DWIDTH 7 0
BBX 6 13 0 -2
BITMAP
D8
4C
80
78
CC
CC
CC
FC
CC
CC
CC
30
18
ENDCHAR
STARTCHAR uni1F8B
ENCODING 8075
SWIDTH 538 0
DWIDTH 7 0
BBX 6 13 0 -2
BITMAP
D8
8C
40
78
CC
CC
CC
FC
CC
CC
CC
30
18
ENDCHAR
STARTCHAR uni1F8C
ENCODING 8076
SWIDTH 538 0
DWIDTH 7 0
BBX 6 13 0 -2
BITMAP
CC
58
80
78
CC
CC
FC
CC
CC
CC
CC
30
18
ENDCHAR
STARTCHAR uni1F8D
ENCODING 8077
SWIDTH 538 0
DWIDTH 7 0
BBX 6 13 0 -2
BITMAP
CC
98
40
78
CC
CC
FC
CC
CC
CC
CC
30
18
ENDCHAR
STARTCHAR uni1F8E
ENCODING 8078
SWIDTH 538 0
DWIDTH 7 0
BBX 6 13 0 -2
BITMAP
78
CC
30
10
20
78
CC
FC
CC
CC
CC
30
18
ENDCHAR
STARTCHAR uni1F8F
ENCODING 8079
SWIDTH 538 0
DWIDTH 7 0
BBX 6 13 0 -2
BITMAP
78
CC
30
20
10
78
CC
FC
CC
CC
CC
30
18
ENDCHAR
STARTCHAR uni1F90
ENCODING 8080
SWIDTH 538 0
DWIDTH 7 0
BBX 6 13 0 -2
BITMAP
30
10
20
00
F8
CC
CC
CC
CC
CC
0C
CC
6C
ENDCHAR
STARTCHAR uni1F91
ENCODING 8081
SWIDTH 538 0
DWIDTH 7 0
BBX 6 13 0 -2
BITMAP
30
20
10
00
F8
CC
CC
CC
CC
CC
0C
CC
6C
ENDCHAR
STARTCHAR uni1F92
ENCODING 8082
SWIDTH 538 0
DWIDTH 7 0
BBX 6 13 0 -2
BITMAP
C0
58
8C
00
F8
CC
CC
CC
CC
CC
0C
CC
6C
ENDCHAR
STARTCHAR uni1F93
ENCODING 8083
SWIDTH 538 0
DWIDTH 7 0
BBX 6 13 0 -2
BITMAP
C0
98
4C
00
F8
CC
CC
CC
CC
CC
0C
CC
6C
ENDCHAR
STARTCHAR uni1F94
ENCODING 8084
SWIDTH 538 0
DWIDTH 7 0
BBX 6 13 0 -2
BITMAP
C0
4C
98
00
F8
CC
CC
CC
CC
CC
0C
CC
6C
ENDCHAR
STARTCHAR uni1F95
ENCODING 8085
SWIDTH 538 0
DWIDTH 7 0
BBX 6 13 0 -2
BITMAP
C0
8C
58
00
F8
CC
CC
CC
CC
CC
0C
CC
6C
ENDCHAR
STARTCHAR uni1F96
ENCODING 8086
SWIDTH 538 0
DWIDTH 7 0
BBX 6 13 0 -2
BITMAP
78
CC
30
10
20
F8
CC
CC
CC
CC
0C
CC
6C
ENDCHAR
STARTCHAR uni1F97
ENCODING 8087
SWIDTH 538 0
DWIDTH 7 0
BBX 6 13 0 -2
BITMAP
78
CC
30
20
10
F8
CC
CC
CC
CC
0C
CC
6C
ENDCHAR
STARTCHAR uni1F98
ENCODING 8088
SWIDTH 538 0
DWIDTH 7 0
BBX 6 13 0 -2
BITMAP
C0
40
80
CC
CC
CC
FC
CC
CC
CC
CC
30
18
ENDCHAR
STARTCHAR uni1F99
ENCODING 8089
SWIDTH 538 0
DWIDTH 7 0
BBX 6 13 0 -2
BITMAP
C0
80
40
CC
CC
CC
FC
CC
CC
CC
CC
30
18
ENDCHAR
STARTCHAR uni1F9A
ENCODING 8090
SWIDTH 538 0
DWIDTH 7 0
BBX 6 13 0 -2
BITMAP
D8
4C
80
CC
CC
CC
FC
CC
CC
CC
CC
30
18
ENDCHAR
STARTCHAR uni1F9B
ENCODING 8091
SWIDTH 538 0
DWIDTH 7 0
BBX 6 13 0 -2
BITMAP
D8
8C
40
CC
CC
CC
FC
CC
CC
CC
CC
30
18
ENDCHAR
STARTCHAR uni1F9C
ENCODING 8092
SWIDTH 538 0
DWIDTH 7 0
BBX 6 13 0 -2
BITMAP
CC
58
80
CC
CC
CC
FC
CC
CC
CC
CC
30
18
ENDCHAR
STARTCHAR uni1F9D
ENCODING 8093
SWIDTH 538 0
DWIDTH 7 0
BBX 6 13 0 -2
BITMAP
CC
98
40
CC
CC
CC
FC
CC
CC
CC
CC
30
18
ENDCHAR
STARTCHAR uni1F9E
ENCODING 8094
SWIDTH 538 0
DWIDTH 7 0
BBX 6 13 0 -2
BITMAP
78
CC
30
10
20
CC
CC
FC
CC
CC
CC
30
18
ENDCHAR
STARTCHAR uni1F9F
ENCODING 8095
SWIDTH 538 0
DWIDTH 7 0
BBX 6 13 0 -2
BITMAP
78
CC
30
20
10
CC
CC
FC
CC
CC
CC
30
18
ENDCHAR
STARTCHAR uni1FA0
ENCODING 8096
SWIDTH 538 0
DWIDTH 7 0
BBX 6 13 0 -2
BITMAP
30
10
20
00
CC
CC
CC
FC
FC
FC
78
30
18
ENDCHAR
STARTCHAR uni1FA1
ENCODING 8097
SWIDTH 538 0
DWIDTH 7 0
BBX 6 13 0 -2
BITMAP
30
20
10
00
CC
CC
CC
FC
FC
FC
78
30
18
ENDCHAR
STARTCHAR uni1FA2
ENCODING 8098
SWIDTH 538 0
DWIDTH 7 0
BBX 6 13 0 -2
BITMAP
C0
58
8C
00
CC
CC
CC
FC
FC
FC
78
30
18
ENDCHAR
STARTCHAR uni1FA3
ENCODING 8099
SWIDTH 538 0
DWIDTH 7 0
BBX 6 13 0 -2
BITMAP
C0
98
4C
00
CC
CC
CC
FC
FC
FC
78
30
18
ENDCHAR
STARTCHAR uni1FA4
ENCODING 8100
SWIDTH 538 0
DWIDTH 7 0
BBX 6 13 0 -2
BITMAP
C0
4C
98
00
CC
CC
CC
FC
FC
FC
78
30
18
ENDCHAR
STARTCHAR uni1FA5
ENCODING 8101
SWIDTH 538 0
DWIDTH 7 0
BBX 6 13 0 -2
BITMAP
C0
8C
58
00
CC
CC
CC
FC
FC
FC
78
30
18
ENDCHAR
STARTCHAR uni1FA6
ENCODING 8102
SWIDTH 538 0
DWIDTH 7 0
BBX 6 13 0 -2
BITMAP
78
CC
30
10
20
CC
CC
CC
FC
FC
78
30
18
ENDCHAR
STARTCHAR uni1FA7
ENCODING 8103
SWIDTH 538 0
DWIDTH 7 0
BBX 6 13 0 -2
BITMAP
78
CC
30
20
10
CC
CC
CC
FC
FC
78
30
18
ENDCHAR
STARTCHAR uni1FA8
ENCODING 8104
SWIDTH 538 0
DWIDTH 7 0
BBX 6 13 0 -2
BITMAP
30
10
20
78
CC
CC
CC
CC
CC
48
CC
30
18
ENDCHAR
STARTCHAR uni1FA9
ENCODING 8105
SWIDTH 538 0
DWIDTH 7 0
BBX 6 13 0 -2
BITMAP
30
20
10
78
CC
CC
CC
CC
CC
48
CC
30
18
ENDCHAR
STARTCHAR uni1FAA
ENCODING 8106
SWIDTH 538 0
DWIDTH 7 0
BBX 6 13 0 -2
BITMAP
D8
4C
80
78
CC
CC
CC
CC
CC
48
CC
30
18
ENDCHAR
STARTCHAR uni1FAB
ENCODING 8107
SWIDTH 538 0
DWIDTH 7 0
BBX 6 13 0 -2
BITMAP
D8
8C
40
78
CC
CC
CC
CC
CC
48
CC
30
18
ENDCHAR
STARTCHAR uni1FAC
ENCODING 8108
SWIDTH 538 0
DWIDTH 7 0
BBX 6 13 0 -2
BITMAP
CC
58
80
78
CC
CC
CC
CC
CC
48
CC
30
18
ENDCHAR
STARTCHAR uni1FAD
ENCODING 8109
SWIDTH 538 0
DWIDTH 7 0
BBX 6 13 0 -2
BITMAP
CC
98
40
78
CC
CC
CC
CC
CC
48
CC
30
18
ENDCHAR
STARTCHAR uni1FAE
ENCODING 8110
SWIDTH 538 0
DWIDTH 7 0
BBX 6 13 0 -2
BITMAP
78
CC
30
10
20
78
CC
CC
CC
48
CC
30
18
ENDCHAR
STARTCHAR uni1FAF
ENCODING 8111
SWIDTH 538 0
DWIDTH 7 0
BBX 6 13 0 -2
BITMAP
78
CC
30
20
10
78
CC
CC
CC
48
CC
30
18
ENDCHAR
STARTCHAR uni1FB0
ENCODING 8112
SWIDTH 538 0
DWIDTH 7 0
BBX 6 10 0 0
BITMAP
CC
78
00
6C
DC
CC
CC
CC
DC
6C
ENDCHAR
STARTCHAR uni1FB1
ENCODING 8113
SWIDTH 538 0
DWIDTH 7 0
BBX 6 9 0 0
BITMAP
78
00
6C
DC
CC
CC
CC
DC
6C
ENDCHAR
STARTCHAR uni1FB2
ENCODING 8114
SWIDTH 538 0
DWIDTH 7 0
BBX 6 12 0 -2
BITMAP
60
30
00
6C
DC
CC
CC
CC
DC
7C
30
18
ENDCHAR
STARTCHAR uni1FB3
ENCODING 8115
SWIDTH 538 0
DWIDTH 7 0
BBX 6 9 0 -2
BITMAP
6C
DC
CC
CC
CC
DC
7C
30
18
ENDCHAR
STARTCHAR uni1FB4
ENCODING 8116
SWIDTH 538 0
DWIDTH 7 0
BBX 6 12 0 -2
BITMAP
18
30
00
6C
DC
CC
CC
CC
DC
7C
30
18
ENDCHAR
STARTCHAR uni1FB6
ENCODING 8118
SWIDTH 538 0
DWIDTH 7 0
BBX 6 10 0 0
BITMAP
78
CC
00
6C
DC
CC
CC
CC
DC
6C
ENDCHAR
STARTCHAR uni1FB7
ENCODING 8119
SWIDTH 538 0
DWIDTH 7 0
BBX 6 12 0 -2
BITMAP
78
CC
00
6C
DC
CC
CC
CC
DC
7C
30
18
ENDCHAR
STARTCHAR uni1FB8
ENCODING 8120
SWIDTH 538 0
DWIDTH 7 0
BBX 6 11 0 0
BITMAP
CC
78
00
78
CC
CC
CC
FC
CC
CC
CC
ENDCHAR
STARTCHAR uni1FB9
ENCODING 8121
SWIDTH 538 0
DWIDTH 7 0
BBX 6 11 0 0
BITMAP
78
00
78
CC
CC
CC
FC
CC
CC
CC
CC
ENDCHAR
STARTCHAR uni1FBA
ENCODING 8122
SWIDTH 538 0
DWIDTH 7 0
BBX 6 11 0 0
BITMAP
60
30
78
CC
CC
CC
FC
CC
CC
CC
CC
ENDCHAR
STARTCHAR uni1FBB
ENCODING 8123
SWIDTH 538 0
DWIDTH 7 0
BBX 6 11 0 0
BITMAP
18
30
78
CC
CC
CC
FC
CC
CC
CC
CC
ENDCHAR
STARTCHAR uni1FBC
ENCODING 8124
SWIDTH 538 0
DWIDTH 7 0
BBX 6 11 0 -2
BITMAP
78
CC
CC
CC
FC
CC
CC
CC
CC
30
18
ENDCHAR
STARTCHAR uni1FBD
ENCODING 8125
SWIDTH 538 0
DWIDTH 7 0
BBX 2 3 2 8
BITMAP
C0
40
80
ENDCHAR
STARTCHAR uni1FBE
ENCODING 8126
SWIDTH 538 0
DWIDTH 7 0
BBX 3 2 2 -2
BITMAP
C0
60
ENDCHAR
STARTCHAR uni1FBF
ENCODING 8127
SWIDTH 538 0
DWIDTH 7 0
BBX 2 3 2 8
BITMAP
C0
40
80
ENDCHAR
STARTCHAR uni1FC0
ENCODING 8128
SWIDTH 538 0
DWIDTH 7 0
BBX 6 2 0 9
BITMAP
78
CC
ENDCHAR
STARTCHAR uni1FC1
ENCODING 8129
SWIDTH 538 0
DWIDTH 7 0
BBX 6 4 0 7
BITMAP
78
CC
00
6C
ENDCHAR
STARTCHAR uni1FC2
ENCODING 8130
SWIDTH 538 0
DWIDTH 7 0
BBX 6 12 0 -2
BITMAP
60
30
00
F8
CC
CC
CC
CC
CC
0C
CC
6C
ENDCHAR
STARTCHAR uni1FC3
ENCODING 8131
SWIDTH 538 0
DWIDTH 7 0
BBX 6 9 0 -2
BITMAP
F8
CC
CC
CC
CC
CC
0C
CC
6C
ENDCHAR
STARTCHAR uni1FC4
ENCODING 8132
SWIDTH 538 0
DWIDTH 7 0
BBX 6 12 0 -2
BITMAP
18
30
00
F8
CC
CC
CC
CC
CC
0C
CC
6C
ENDCHAR
STARTCHAR uni1FC6
ENCODING 8134
SWIDTH 538 0
DWIDTH 7 0
BBX 6 12 0 -2
BITMAP
78
CC
00
F8
CC
CC
CC
CC
CC
CC
0C
0C
ENDCHAR
STARTCHAR uni1FC7
ENCODING 8135
SWIDTH 538 0
DWIDTH 7 0
BBX 6 12 0 -2
BITMAP
78
CC
00
F8
CC
CC
CC
CC
CC
0C
CC
6C
ENDCHAR
STARTCHAR uni1FC8
ENCODING 8136
SWIDTH 538 0
DWIDTH 7 0
BBX 6 11 0 0
BITMAP
60
30
FC
C0
C0
C0
F8
C0
C0
C0
FC
ENDCHAR
STARTCHAR uni1FC9
ENCODING 8137
SWIDTH 538 0
DWIDTH 7 0
BBX 6 11 0 0
BITMAP
18
30
FC
C0
C0
C0
F8
C0
C0
C0
FC
ENDCHAR
STARTCHAR uni1FCA
ENCODING 8138
SWIDTH 538 0
DWIDTH 7 0
BBX 6 11 0 0
BITMAP
60
30
CC
CC
CC
CC
FC
CC
CC
CC
CC
ENDCHAR
STARTCHAR uni1FCB
ENCODING 8139
SWIDTH 538 0
DWIDTH 7 0
BBX 6 11 0 0
BITMAP
18
30
CC
CC
CC
CC
FC
CC
CC
CC
CC
ENDCHAR
STARTCHAR uni1FCC
ENCODING 8140
SWIDTH 538 0
DWIDTH 7 0
BBX 6 11 0 -2
BITMAP
CC
CC
CC
CC
FC
CC
CC
CC
CC
30
18
ENDCHAR
STARTCHAR uni1FCD
ENCODING 8141
SWIDTH 538 0
DWIDTH 7 0
BBX 6 3 0 8
BITMAP
C0
58
8C
ENDCHAR
STARTCHAR uni1FCE
ENCODING 8142
SWIDTH 538 0
DWIDTH 7 0
BBX 6 3 0 8
BITMAP
C0
58
8C
ENDCHAR
STARTCHAR uni1FCF
ENCODING 8143
SWIDTH 538 0
DWIDTH 7 0
BBX 6 5 0 6
BITMAP
78
CC
30
10
20
ENDCHAR
STARTCHAR uni1FD0
ENCODING 8144
SWIDTH 538 0
DWIDTH 7 0
BBX 6 10 0 0
BITMAP
CC
78
00
70
30
30
30
30
30
1C
ENDCHAR
STARTCHAR uni1FD1
ENCODING 8145
SWIDTH 538 0
DWIDTH 7 0
BBX 5 9 1 0
BITMAP
F0
00
E0
60
60
60
60
60
38
ENDCHAR
STARTCHAR uni1FD2
ENCODING 8146
SWIDTH 538 0
DWIDTH 7 0
BBX 5 11 1 0
BITMAP
C0
60
00
D8
00
E0
60
60
60
60
38
ENDCHAR
STARTCHAR uni1FD3
ENCODING 8147
SWIDTH 538 0
DWIDTH 7 0
BBX 5 11 1 0
BITMAP
30
60
00
D8
00
E0
60
60
60
60
38
ENDCHAR
STARTCHAR uni1FD6
ENCODING 8150
SWIDTH 538 0
DWIDTH 7 0
BBX 6 10 0 0
BITMAP
78
CC
00
70
30
30
30
30
30
1C
ENDCHAR
STARTCHAR uni1FD7
ENCODING 8151
SWIDTH 538 0
DWIDTH 7 0
BBX 6 11 0 0
BITMAP
78
CC
00
6C
00
70
30
30
30
30
1C
ENDCHAR
STARTCHAR uni1FD8
ENCODING 8152
SWIDTH 538 0
DWIDTH 7 0
BBX 6 11 0 0
BITMAP
CC
78
00
FC
30
30
30
30
30
30
FC
ENDCHAR
STARTCHAR uni1FD9
ENCODING 8153
SWIDTH 538 0
DWIDTH 7 0
BBX 6 11 0 0
BITMAP
78
00
FC
30
30
30
30
30
30
30
FC
ENDCHAR
STARTCHAR uni1FDA
ENCODING 8154
SWIDTH 538 0
DWIDTH 7 0
BBX 6 11 0 0
BITMAP
60
30
FC
30
30
30
30
30
30
30
FC
ENDCHAR
STARTCHAR uni1FDB
ENCODING 8155
SWIDTH 538 0
DWIDTH 7 0
BBX 6 11 0 0
BITMAP
18
30
FC
30
30
30
30
30
30
30
FC
ENDCHAR
STARTCHAR uni1FDD
ENCODING 8157
SWIDTH 538 0
DWIDTH 7 0
BBX 6 3 0 8
BITMAP
C0
98
4C
ENDCHAR
STARTCHAR uni1FDE
ENCODING 8158
SWIDTH 538 0
DWIDTH 7 0
BBX 6 3 0 8
BITMAP
C0
8C
58
ENDCHAR
STARTCHAR uni1FDF
ENCODING 8159
SWIDTH 538 0
DWIDTH 7 0
BBX 6 5 0 6
BITMAP
78
CC
30
20
10
ENDCHAR
STARTCHAR uni1FE0
ENCODING 8160
SWIDTH 538 0
DWIDTH 7 0
BBX 6 10 0 0
BITMAP
CC
78
00
CC
CC
CC
CC
CC
CC
7C
ENDCHAR
STARTCHAR uni1FE1
ENCODING 8161
SWIDTH 538 0
DWIDTH 7 0
BBX 6 11 0 0
BITMAP
78
00
CC
CC
CC
CC
CC
CC
CC
CC
78
ENDCHAR
STARTCHAR uni1FE2
ENCODING 8162
SWIDTH 538 0
DWIDTH 7 0
BBX 6 11 0 0
BITMAP
60
30
00
6C
00
CC
CC
CC
CC
CC
7C
ENDCHAR
STARTCHAR uni1FE3
ENCODING 8163
SWIDTH 538 0
DWIDTH 7 0
BBX 6 11 0 0
BITMAP
18
30
00
6C
00
CC
CC
CC
CC
CC
7C
ENDCHAR
STARTCHAR uni1FE4
ENCODING 8164
SWIDTH 538 0
DWIDTH 7 0
BBX 6 13 0 -2
BITMAP
30
10
20
00
78
CC
CC
CC
CC
CC
F8
C0
C0
ENDCHAR
STARTCHAR uni1FE5
ENCODING 8165
SWIDTH 538 0
DWIDTH 7 0
BBX 6 13 0 -2
BITMAP
30
20
10
00
78
CC
CC
CC
CC
CC
F8
C0
C0
ENDCHAR
STARTCHAR uni1FE6
ENCODING 8166
SWIDTH 538 0
DWIDTH 7 0
BBX 6 10 0 0
BITMAP
78
CC
00
CC
CC
CC
CC
CC
CC
7C
ENDCHAR
STARTCHAR uni1FE7
ENCODING 8167
SWIDTH 538 0
DWIDTH 7 0
BBX 6 11 0 0
BITMAP
78
CC
00
6C
00
CC
CC
CC
CC
CC
7C
ENDCHAR
STARTCHAR uni1FE8
ENCODING 8168
SWIDTH 538 0
DWIDTH 7 0
BBX 6 11 0 0
BITMAP
CC
78
00
CC
CC
78
78
30
30
30
30
ENDCHAR
STARTCHAR uni1FE9
ENCODING 8169
SWIDTH 538 0
DWIDTH 7 0
BBX 6 11 0 0
BITMAP
78
00
CC
CC
78
78
30
30
30
30
30
ENDCHAR
STARTCHAR uni1FEA
ENCODING 8170
SWIDTH 538 0
DWIDTH 7 0
BBX 6 11 0 0
BITMAP
60
30
CC
CC
78
78
30
30
30
30
30
ENDCHAR
STARTCHAR uni1FEB
ENCODING 8171
SWIDTH 538 0
DWIDTH 7 0
BBX 6 11 0 0
BITMAP
18
30
CC
CC
78
78
30
30
30
30
30
ENDCHAR
STARTCHAR uni1FEC
ENCODING 8172
SWIDTH 538 0
DWIDTH 7 0
BBX 6 11 0 0
BITMAP
30
20
10
F8
CC
CC
CC
F8
C0
C0
C0
ENDCHAR
STARTCHAR uni1FED
ENCODING 8173
SWIDTH 538 0
DWIDTH 7 0
BBX 5 4 1 7
BITMAP
C0
60
00
D8
ENDCHAR
STARTCHAR uni1FEE
ENCODING 8174
SWIDTH 538 0
DWIDTH 7 0
BBX 5 4 1 7
BITMAP
30
60
00
D8
ENDCHAR
STARTCHAR uni1FEF
ENCODING 8175
SWIDTH 538 0
DWIDTH 7 0
BBX 3 2 1 9
BITMAP
C0
60
ENDCHAR
STARTCHAR uni1FF2
ENCODING 8178
SWIDTH 538 0
DWIDTH 7 0
BBX 6 12 0 -2
BITMAP
60
30
00
CC
CC
CC
FC
FC
FC
78
30
18
ENDCHAR
STARTCHAR uni1FF3
ENCODING 8179
SWIDTH 538 0
DWIDTH 7 0
BBX 6 9 0 -2
BITMAP
CC
CC
CC
FC
FC
FC
78
30
18
ENDCHAR
STARTCHAR uni1FF4
ENCODING 8180
SWIDTH 538 0
DWIDTH 7 0
BBX 6 12 0 -2
BITMAP
18
30
00
CC
CC
CC
FC
FC
FC
78
30
18
ENDCHAR
STARTCHAR uni1FF6
ENCODING 8182
SWIDTH 538 0
DWIDTH 7 0
BBX 6 10 0 0
BITMAP
78
CC
00
CC
CC
CC
FC
FC
FC
78
ENDCHAR
STARTCHAR uni1FF7
ENCODING 8183
SWIDTH 538 0
DWIDTH 7 0
BBX 6 12 0 -2
BITMAP
78
CC
00
CC
CC
CC
FC
FC
FC
78
30
18
ENDCHAR
STARTCHAR uni1FF8
ENCODING 8184
SWIDTH 538 0
DWIDTH 7 0
BBX 6 11 0 0
BITMAP
60
30
78
CC
CC
CC
CC
CC
CC
CC
78
ENDCHAR
STARTCHAR uni1FF9
ENCODING 8185
SWIDTH 538 0
DWIDTH 7 0
BBX 6 11 0 0
BITMAP
18
30
78
CC
CC
CC
CC
CC
CC
CC
78
ENDCHAR
STARTCHAR uni1FFA
ENCODING 8186
SWIDTH 538 0
DWIDTH 7 0
BBX 6 11 0 0
BITMAP
60
30
78
CC
CC
CC
CC
CC
CC
48
CC
ENDCHAR
STARTCHAR uni1FFB
ENCODING 8187
SWIDTH 538 0
DWIDTH 7 0
BBX 6 11 0 0
BITMAP
18
30
78
CC
CC
CC
CC
CC
CC
48
CC
ENDCHAR
STARTCHAR uni1FFC
ENCODING 8188
SWIDTH 538 0
DWIDTH 7 0
BBX 6 11 0 -2
BITMAP
78
CC
CC
CC
CC
CC
CC
48
CC
30
18
ENDCHAR
STARTCHAR uni1FFD
ENCODING 8189
SWIDTH 538 0
DWIDTH 7 0
BBX 3 2 2 9
BITMAP
60
C0
ENDCHAR
STARTCHAR uni1FFE
ENCODING 8190
SWIDTH 538 0
DWIDTH 7 0
BBX 2 3 2 8
BITMAP
C0
80
40
ENDCHAR
STARTCHAR uni2010
ENCODING 8208
SWIDTH 500 0
DWIDTH 7 0
BBX 5 1 1 4
BITMAP
F8
ENDCHAR
STARTCHAR uni2011
ENCODING 8209
SWIDTH 500 0
DWIDTH 7 0
BBX 5 1 1 4
BITMAP
F8
ENDCHAR
STARTCHAR figuredash
ENCODING 8210
SWIDTH 500 0
DWIDTH 7 0
BBX 5 1 1 4
BITMAP
F8
ENDCHAR
STARTCHAR endash
ENCODING 8211
SWIDTH 500 0
DWIDTH 7 0
BBX 7 1 0 4
BITMAP
FE
ENDCHAR
STARTCHAR emdash
ENCODING 8212
SWIDTH 500 0
DWIDTH 7 0
BBX 7 1 0 4
BITMAP
FE
ENDCHAR
STARTCHAR afii00208
ENCODING 8213
SWIDTH 500 0
DWIDTH 7 0
BBX 7 1 0 4
BITMAP
FE
ENDCHAR
STARTCHAR uni2016
ENCODING 8214
SWIDTH 500 0
DWIDTH 7 0
BBX 3 12 2 -2
BITMAP
A0
A0
A0
A0
A0
A0
A0
A0
A0
A0
A0
A0
ENDCHAR
STARTCHAR underscoredbl
ENCODING 8215
SWIDTH 500 0
DWIDTH 7 0
BBX 7 3 0 -2
BITMAP
FE
00
FE
ENDCHAR
STARTCHAR quoteleft
ENCODING 8216
SWIDTH 500 0
DWIDTH 7 0
BBX 3 4 2 7
BITMAP
60
C0
C0
C0
ENDCHAR
STARTCHAR quoteright
ENCODING 8217
SWIDTH 500 0
DWIDTH 7 0
BBX 3 4 1 7
BITMAP
60
60
60
C0
ENDCHAR
STARTCHAR quotesinglbase
ENCODING 8218
SWIDTH 500 0
DWIDTH 7 0
BBX 3 4 1 -2
BITMAP
60
60
60
C0
ENDCHAR
STARTCHAR quotereversed
ENCODING 8219
SWIDTH 500 0
DWIDTH 7 0
BBX 3 4 2 7
BITMAP
C0
C0
C0
60
ENDCHAR
STARTCHAR quotedblleft
ENCODING 8220
SWIDTH 500 0
DWIDTH 7 0
BBX 6 4 0 7
BITMAP
6C
D8
D8
D8
ENDCHAR
STARTCHAR quotedblright
ENCODING 8221
SWIDTH 500 0
DWIDTH 7 0
BBX 6 4 0 7
BITMAP
6C
6C
6C
D8
ENDCHAR
STARTCHAR quotedblbase
ENCODING 8222
SWIDTH 500 0
DWIDTH 7 0
BBX 6 4 0 -2
BITMAP
6C
6C
6C
D8
ENDCHAR
STARTCHAR uni201F
ENCODING 8223
SWIDTH 500 0
DWIDTH 7 0
BBX 6 4 0 7
BITMAP
D8
D8
D8
6C
ENDCHAR
STARTCHAR dagger
ENCODING 8224
SWIDTH 500 0
DWIDTH 7 0
BBX 6 10 0 0
BITMAP
30
30
FC
30
30
30
30
30
30
30
ENDCHAR
STARTCHAR daggerdbl
ENCODING 8225
SWIDTH 500 0
DWIDTH 7 0
BBX 6 10 0 0
BITMAP
30
30
30
FC
30
30
FC
30
30
30
ENDCHAR
STARTCHAR bullet
ENCODING 8226
SWIDTH 500 0
DWIDTH 7 0
BBX 5 5 1 3
BITMAP
70
F8
F8
F8
70
ENDCHAR
STARTCHAR uni2023
ENCODING 8227
SWIDTH 500 0
DWIDTH 7 0
BBX 6 5 1 3
BITMAP
C0
F0
FC
F0
C0
ENDCHAR
STARTCHAR onedotenleader
ENCODING 8228
SWIDTH 500 0
DWIDTH 7 0
BBX 1 2 3 0
BITMAP
80
80
ENDCHAR
STARTCHAR twodotenleader
ENCODING 8229
SWIDTH 500 0
DWIDTH 7 0
BBX 3 2 2 0
BITMAP
A0
A0
ENDCHAR
STARTCHAR ellipsis
ENCODING 8230
SWIDTH 500 0
DWIDTH 7 0
BBX 5 2 1 0
BITMAP
A8
A8
ENDCHAR
STARTCHAR uni2027
ENCODING 8231
SWIDTH 500 0
DWIDTH 7 0
BBX 1 2 3 4
BITMAP
80
80
ENDCHAR
STARTCHAR uni202A
ENCODING 8234
SWIDTH 0 0
DWIDTH 0 0
BBX 1 1 0 0
BITMAP
00
ENDCHAR
STARTCHAR perthousand
ENCODING 8240
SWIDTH 500 0
DWIDTH 7 0
BBX 6 10 0 0
BITMAP
40
A0
40
0C
30
C0
00
48
B4
48
ENDCHAR
STARTCHAR uni2031
ENCODING 8241
SWIDTH 538 0
DWIDTH 7 0
BBX 7 10 0 0
BITMAP
40
A0
40
0C
30
C0
00
54
AA
54
ENDCHAR
STARTCHAR minute
ENCODING 8242
SWIDTH 500 0
DWIDTH 7 0
BBX 3 4 1 7
BITMAP
60
60
60
C0
ENDCHAR
STARTCHAR second
ENCODING 8243
SWIDTH 500 0
DWIDTH 7 0
BBX 6 4 0 7
BITMAP
6C
6C
6C
D8
ENDCHAR
STARTCHAR uni2034
ENCODING 8244
SWIDTH 1000 0
DWIDTH 7 0
BBX 6 4 0 7
BITMAP
54
54
54
A8
ENDCHAR
STARTCHAR uni2035
ENCODING 8245
SWIDTH 1000 0
DWIDTH 7 0
BBX 3 4 2 7
BITMAP
C0
C0
C0
60
ENDCHAR
STARTCHAR uni2036
ENCODING 8246
SWIDTH 1000 0
DWIDTH 7 0
BBX 6 4 0 7
BITMAP
D8
D8
D8
6C
ENDCHAR
STARTCHAR uni2037
ENCODING 8247
SWIDTH 1000 0
DWIDTH 7 0
BBX 6 4 0 7
BITMAP
A8
A8
A8
54
ENDCHAR
STARTCHAR uni2038
ENCODING 8248
SWIDTH 500 0
DWIDTH 7 0
BBX 6 3 0 -2
BITMAP
30
78
CC
ENDCHAR
STARTCHAR guilsinglleft
ENCODING 8249
SWIDTH 500 0
DWIDTH 7 0
BBX 4 5 0 2
BITMAP
30
60
C0
60
30
ENDCHAR
STARTCHAR guilsinglright
ENCODING 8250
SWIDTH 500 0
DWIDTH 7 0
BBX 4 5 1 2
BITMAP
C0
60
30
60
C0
ENDCHAR
STARTCHAR uni203B
ENCODING 8251
SWIDTH 538 0
DWIDTH 7 0
BBX 7 7 0 2
BITMAP
10
44
28
92
28
44
10
ENDCHAR
STARTCHAR exclamdbl
ENCODING 8252
SWIDTH 500 0
DWIDTH 7 0
BBX 5 9 1 0
BITMAP
D8
D8
D8
D8
D8
D8
00
D8
D8
ENDCHAR
STARTCHAR uni203D
ENCODING 8253
SWIDTH 1000 0
DWIDTH 7 0
BBX 6 9 0 0
BITMAP
F8
3C
3C
38
30
30
00
30
30
ENDCHAR
STARTCHAR uni203E
ENCODING 8254
SWIDTH 500 0
DWIDTH 7 0
BBX 5 1 1 10
BITMAP
F8
ENDCHAR
STARTCHAR uni2043
ENCODING 8259
SWIDTH 500 0
DWIDTH 7 0
BBX 4 1 1 5
BITMAP
F0
ENDCHAR
STARTCHAR uni2047
ENCODING 8263
SWIDTH 500 0
DWIDTH 7 0
BBX 6 9 0 0
BITMAP
D8
6C
6C
6C
D8
D8
00
D8
D8
ENDCHAR
STARTCHAR uni2048
ENCODING 8264
SWIDTH 500 0
DWIDTH 7 0
BBX 6 9 0 0
BITMAP
EC
3C
3C
3C
6C
6C
00
6C
6C
ENDCHAR
STARTCHAR uni2049
ENCODING 8265
SWIDTH 500 0
DWIDTH 7 0
BBX 6 9 0 0
BITMAP
F8
CC
CC
CC
D8
D8
00
D8
D8
ENDCHAR
STARTCHAR uni204B
ENCODING 8267
SWIDTH 500 0
DWIDTH 7 0
BBX 6 9 0 0
BITMAP
F8
DC
DC
DC
D8
D0
D0
D0
D0
ENDCHAR
STARTCHAR uni204C
ENCODING 8268
SWIDTH 538 0
DWIDTH 7 0
BBX 4 5 2 3
BITMAP
50
D0
D0
D0
50
ENDCHAR
STARTCHAR uni204D
ENCODING 8269
SWIDTH 538 0
DWIDTH 7 0
BBX 4 5 1 3
BITMAP
A0
B0
B0
B0
A0
ENDCHAR
STARTCHAR uni204E
ENCODING 8270
SWIDTH 500 0
DWIDTH 7 0
BBX 5 5 1 1
BITMAP
50
20
F8
20
50
ENDCHAR
STARTCHAR uni204F
ENCODING 8271
SWIDTH 500 0
DWIDTH 7 0
BBX 3 8 2 -2
BITMAP
C0
C0
00
00
C0
C0
C0
60
ENDCHAR
STARTCHAR uni2051
ENCODING 8273
SWIDTH 500 0
DWIDTH 7 0
BBX 5 11 1 -1
BITMAP
50
20
F8
20
50
00
50
20
F8
20
50
ENDCHAR
STARTCHAR uni2055
ENCODING 8277
SWIDTH 538 0
DWIDTH 7 0
BBX 5 5 1 3
BITMAP
A8
70
F8
70
A8
ENDCHAR
STARTCHAR uni2056
ENCODING 8278
SWIDTH 538 0
DWIDTH 7 0
BBX 4 5 1 3
BITMAP
10
00
80
00
10
ENDCHAR
STARTCHAR uni2058
ENCODING 8280
SWIDTH 538 0
DWIDTH 7 0
BBX 5 5 1 3
BITMAP
20
00
88
00
20
ENDCHAR
STARTCHAR uni2059
ENCODING 8281
SWIDTH 538 0
DWIDTH 7 0
BBX 5 5 1 3
BITMAP
88
00
20
00
88
ENDCHAR
STARTCHAR uni205A
ENCODING 8282
SWIDTH 538 0
DWIDTH 7 0
BBX 1 7 3 2
BITMAP
80
00
00
00
00
00
80
ENDCHAR
STARTCHAR uni205B
ENCODING 8283
SWIDTH 538 0
DWIDTH 7 0
BBX 5 7 1 2
BITMAP
20
00
00
88
00
00
20
ENDCHAR
STARTCHAR uni205C
ENCODING 8284
SWIDTH 538 0
DWIDTH 7 0
BBX 7 7 0 2
BITMAP
10
54
10
FE
10
54
10
ENDCHAR
STARTCHAR uni205D
ENCODING 8285
SWIDTH 538 0
DWIDTH 7 0
BBX 1 7 3 2
BITMAP
80
00
00
80
00
00
80
ENDCHAR
STARTCHAR uni205E
ENCODING 8286
SWIDTH 538 0
DWIDTH 7 0
BBX 1 7 3 2
BITMAP
80
00
80
00
80
00
80
ENDCHAR
STARTCHAR uni2070
ENCODING 8304
SWIDTH 500 0
DWIDTH 7 0
BBX 5 5 0 6
BITMAP
70
D8
F8
D8
70
ENDCHAR
STARTCHAR uni2071
ENCODING 8305
SWIDTH 500 0
DWIDTH 7 0
BBX 3 5 0 6
BITMAP
60
00
E0
60
60
ENDCHAR
STARTCHAR uni2074
ENCODING 8308
SWIDTH 500 0
DWIDTH 7 0
BBX 5 5 0 6
BITMAP
38
78
D8
F8
38
ENDCHAR
STARTCHAR uni2075
ENCODING 8309
SWIDTH 500 0
DWIDTH 7 0
BBX 5 5 0 6
BITMAP
F8
C0
F0
18
F0
ENDCHAR
STARTCHAR uni2076
ENCODING 8310
SWIDTH 500 0
DWIDTH 7 0
BBX 5 5 0 6
BITMAP
70
C0
F0
D8
70
ENDCHAR
STARTCHAR uni2077
ENCODING 8311
SWIDTH 500 0
DWIDTH 7 0
BBX 5 5 0 6
BITMAP
F8
18
30
60
60
ENDCHAR
STARTCHAR uni2078
ENCODING 8312
SWIDTH 500 0
DWIDTH 7 0
BBX 5 5 0 6
BITMAP
70
D8
70
D8
70
ENDCHAR
STARTCHAR uni2079
ENCODING 8313
SWIDTH 500 0
DWIDTH 7 0
BBX 5 5 0 6
BITMAP
70
D8
78
18
70
ENDCHAR
STARTCHAR uni207A
ENCODING 8314
SWIDTH 500 0
DWIDTH 7 0
BBX 4 3 1 7
BITMAP
60
F0
60
ENDCHAR
STARTCHAR uni207B
ENCODING 8315
SWIDTH 500 0
DWIDTH 7 0
BBX 4 1 1 8
BITMAP
F0
ENDCHAR
STARTCHAR uni207C
ENCODING 8316
SWIDTH 500 0
DWIDTH 7 0
BBX 4 3 1 7
BITMAP
F0
00
F0
ENDCHAR
STARTCHAR uni207D
ENCODING 8317
SWIDTH 500 0
DWIDTH 7 0
BBX 3 5 2 6
BITMAP
60
C0
C0
C0
60
ENDCHAR
STARTCHAR uni207E
ENCODING 8318
SWIDTH 500 0
DWIDTH 7 0
BBX 3 5 1 6
BITMAP
C0
60
60
60
C0
ENDCHAR
STARTCHAR uni207F
ENCODING 8319
SWIDTH 500 0
DWIDTH 7 0
BBX 5 4 0 6
BITMAP
F0
D8
D8
D8
ENDCHAR
STARTCHAR uni2080
ENCODING 8320
SWIDTH 500 0
DWIDTH 7 0
BBX 5 5 0 -1
BITMAP
70
D8
F8
D8
70
ENDCHAR
STARTCHAR uni2081
ENCODING 8321
SWIDTH 500 0
DWIDTH 7 0
BBX 3 5 1 -1
BITMAP
60
E0
60
60
60
ENDCHAR
STARTCHAR uni2082
ENCODING 8322
SWIDTH 500 0
DWIDTH 7 0
BBX 5 5 0 -1
BITMAP
F0
18
70
C0
F8
ENDCHAR
STARTCHAR uni2083
ENCODING 8323
SWIDTH 500 0
DWIDTH 7 0
BBX 5 5 0 -1
BITMAP
F0
18
70
18
F0
ENDCHAR
STARTCHAR uni2084
ENCODING 8324
SWIDTH 500 0
DWIDTH 7 0
BBX 5 5 0 -1
BITMAP
38
78
D8
F8
18
ENDCHAR
STARTCHAR uni2085
ENCODING 8325
SWIDTH 500 0
DWIDTH 7 0
BBX 5 5 0 -1
BITMAP
F8
C0
F0
18
F0
ENDCHAR
STARTCHAR uni2086
ENCODING 8326
SWIDTH 500 0
DWIDTH 7 0
BBX 5 5 0 -1
BITMAP
70
C0
F0
D8
70
ENDCHAR
STARTCHAR uni2087
ENCODING 8327
SWIDTH 500 0
DWIDTH 7 0
BBX 5 5 0 -1
BITMAP
F8
18
30
60
60
ENDCHAR
STARTCHAR uni2088
ENCODING 8328
SWIDTH 500 0
DWIDTH 7 0
BBX 5 5 0 -1
BITMAP
70
D8
70
D8
70
ENDCHAR
STARTCHAR uni2089
ENCODING 8329
SWIDTH 500 0
DWIDTH 7 0
BBX 5 5 0 -1
BITMAP
70
D8
78
18
70
ENDCHAR
STARTCHAR uni208A
ENCODING 8330
SWIDTH 500 0
DWIDTH 7 0
BBX 4 3 1 0
BITMAP
60
F0
60
ENDCHAR
STARTCHAR uni208B
ENCODING 8331
SWIDTH 500 0
DWIDTH 7 0
BBX 4 1 1 1
BITMAP
F0
ENDCHAR
STARTCHAR uni208C
ENCODING 8332
SWIDTH 500 0
DWIDTH 7 0
BBX 4 3 1 0
BITMAP
F0
00
F0
ENDCHAR
STARTCHAR uni208D
ENCODING 8333
SWIDTH 500 0
DWIDTH 7 0
BBX 3 5 2 -1
BITMAP
60
C0
C0
C0
60
ENDCHAR
STARTCHAR uni208E
ENCODING 8334
SWIDTH 500 0
DWIDTH 7 0
BBX 3 5 1 -1
BITMAP
C0
60
60
60
C0
ENDCHAR
STARTCHAR uni2090
ENCODING 8336
SWIDTH 500 0
DWIDTH 7 0
BBX 5 5 0 -1
BITMAP
70
18
78
D8
78
ENDCHAR
STARTCHAR uni2091
ENCODING 8337
SWIDTH 500 0
DWIDTH 7 0
BBX 5 5 0 -1
BITMAP
70
D8
F8
C0
78
ENDCHAR
STARTCHAR uni2092
ENCODING 8338
SWIDTH 500 0
DWIDTH 7 0
BBX 5 5 0 -1
BITMAP
70
D8
D8
D8
70
ENDCHAR
STARTCHAR uni2093
ENCODING 8339
SWIDTH 500 0
DWIDTH 7 0
BBX 6 5 0 -1
BITMAP
CC
78
30
78
CC
ENDCHAR
STARTCHAR uni2094
ENCODING 8340
SWIDTH 500 0
DWIDTH 7 0
BBX 5 5 0 -1
BITMAP
F0
18
F8
D8
70
ENDCHAR
STARTCHAR uni2095
ENCODING 8341
SWIDTH 500 0
DWIDTH 7 0
BBX 5 6 0 -1
BITMAP
C0
C0
F0
D8
D8
D8
ENDCHAR
STARTCHAR uni2096
ENCODING 8342
SWIDTH 500 0
DWIDTH 7 0
BBX 5 6 0 -1
BITMAP
C0
D8
F0
E0
F0
D8
ENDCHAR
STARTCHAR uni2097
ENCODING 8343
SWIDTH 500 0
DWIDTH 7 0
BBX 3 6 0 -1
BITMAP
E0
60
60
60
60
60
ENDCHAR
STARTCHAR uni2098
ENCODING 8344
SWIDTH 500 0
DWIDTH 7 0
BBX 5 5 0 -1
BITMAP
F0
F8
F8
D8
D8
ENDCHAR
STARTCHAR uni2099
ENCODING 8345
SWIDTH 500 0
DWIDTH 7 0
BBX 5 5 0 -1
BITMAP
F0
D8
D8
D8
D8
ENDCHAR
STARTCHAR uni209A
ENCODING 8346
SWIDTH 500 0
DWIDTH 7 0
BBX 5 6 0 -2
BITMAP
F0
D8
D8
F0
C0
C0
ENDCHAR
STARTCHAR uni209B
ENCODING 8347
SWIDTH 500 0
DWIDTH 7 0
BBX 5 5 0 -1
BITMAP
78
C0
70
18
F0
ENDCHAR
STARTCHAR uni209C
ENCODING 8348
SWIDTH 500 0
DWIDTH 7 0
BBX 5 6 0 -1
BITMAP
60
F0
60
60
60
38
ENDCHAR
STARTCHAR uni20A0
ENCODING 8352
SWIDTH 538 0
DWIDTH 7 0
BBX 7 9 0 0
BITMAP
70
C0
DE
D8
D8
DE
78
18
1E
ENDCHAR
STARTCHAR colonmonetary
ENCODING 8353
SWIDTH 538 0
DWIDTH 7 0
BBX 6 11 0 -1
BITMAP
10
3C
50
D0
D0
D0
D0
D0
50
3C
10
ENDCHAR
STARTCHAR uni20A2
ENCODING 8354
SWIDTH 538 0
DWIDTH 7 0
BBX 6 9 0 0
BITMAP
3C
40
C0
CC
D8
D8
D8
40
3C
ENDCHAR
STARTCHAR franc
ENCODING 8355
SWIDTH 538 0
DWIDTH 7 0
BBX 6 9 0 0
BITMAP
7C
60
60
60
78
60
60
F0
60
ENDCHAR
STARTCHAR lira
ENCODING 8356
SWIDTH 538 0
DWIDTH 7 0
BBX 5 9 1 0
BITMAP
38
60
60
F0
60
F0
60
60
F8
ENDCHAR
STARTCHAR uni20A5
ENCODING 8357
SWIDTH 538 0
DWIDTH 7 0
BBX 7 7 0 0
BITMAP
78
7C
56
5C
74
D4
54
ENDCHAR
STARTCHAR uni20A6
ENCODING 8358
SWIDTH 538 0
DWIDTH 7 0
BBX 7 9 0 0
BITMAP
4C
6C
7C
FE
7C
FE
7C
6C
64
ENDCHAR
STARTCHAR peseta
ENCODING 8359
SWIDTH 500 0
DWIDTH 7 0
BBX 7 9 0 0
BITMAP
D0
F0
BE
B4
F4
D6
92
92
8C
ENDCHAR
STARTCHAR uni20A8
ENCODING 8360
SWIDTH 538 0
DWIDTH 7 0
BBX 7 9 0 0
BITMAP
E0
D0
DE
D8
F8
EC
F6
D2
DC
ENDCHAR
STARTCHAR uni20A9
ENCODING 8361
SWIDTH 538 0
DWIDTH 7 0
BBX 7 9 0 0
BITMAP
6C
FE
6C
FE
6C
7C
7C
6C
44
ENDCHAR
STARTCHAR afii57636
ENCODING 8362
SWIDTH 538 0
DWIDTH 7 0
BBX 7 9 0 0
BITMAP
F2
FA
8A
AA
AA
AA
A2
BE
9E
ENDCHAR
STARTCHAR dong
ENCODING 8363
SWIDTH 538 0
DWIDTH 7 0
BBX 6 11 1 -2
BITMAP
18
3C
18
78
D8
D8
D8
D8
78
00
F8
ENDCHAR
STARTCHAR Euro
ENCODING 8364
SWIDTH 500 0
DWIDTH 7 0
BBX 6 9 0 0
BITMAP
1C
30
60
F8
60
F8
60
30
1C
ENDCHAR
STARTCHAR uni20AD
ENCODING 8365
SWIDTH 538 0
DWIDTH 7 0
BBX 7 9 0 0
BITMAP
66
6C
78
70
FC
70
78
6C
66
ENDCHAR
STARTCHAR uni20AE
ENCODING 8366
SWIDTH 500 0
DWIDTH 7 0
BBX 6 9 0 0
BITMAP
FC
30
30
38
70
38
70
30
30
ENDCHAR
STARTCHAR uni20AF
ENCODING 8367
SWIDTH 538 0
DWIDTH 7 0
BBX 7 11 0 -2
BITMAP
E0
70
50
50
50
54
5E
7A
EC
08
08
ENDCHAR
STARTCHAR uni20D0
ENCODING 8400
SWIDTH 0 0
DWIDTH 0 0
BBX 1 1 0 0
BITMAP
00
ENDCHAR
STARTCHAR uni20D1
ENCODING 8401
SWIDTH 0 0
DWIDTH 0 0
BBX 1 1 0 0
BITMAP
00
ENDCHAR
STARTCHAR uni20D2
ENCODING 8402
SWIDTH 0 0
DWIDTH 0 0
BBX 1 1 0 0
BITMAP
00
ENDCHAR
STARTCHAR uni20D3
ENCODING 8403
SWIDTH 0 0
DWIDTH 0 0
BBX 1 1 0 0
BITMAP
00
ENDCHAR
STARTCHAR uni20D4
ENCODING 8404
SWIDTH 0 0
DWIDTH 0 0
BBX 1 1 0 0
BITMAP
00
ENDCHAR
STARTCHAR uni20D5
ENCODING 8405
SWIDTH 0 0
DWIDTH 0 0
BBX 1 1 0 0
BITMAP
00
ENDCHAR
STARTCHAR uni20D6
ENCODING 8406
SWIDTH 0 0
DWIDTH 0 0
BBX 1 1 0 0
BITMAP
00
ENDCHAR
STARTCHAR uni20D7
ENCODING 8407
SWIDTH 0 0
DWIDTH 0 0
BBX 1 1 0 0
BITMAP
00
ENDCHAR
STARTCHAR uni20D8
ENCODING 8408
SWIDTH 0 0
DWIDTH 0 0
BBX 1 1 0 0
BITMAP
00
ENDCHAR
STARTCHAR uni20D9
ENCODING 8409
SWIDTH 0 0
DWIDTH 7 0
BBX 1 1 0 0
BITMAP
00
ENDCHAR
STARTCHAR uni20DA
ENCODING 8410
SWIDTH 0 0
DWIDTH 0 0
BBX 1 1 0 0
BITMAP
00
ENDCHAR
STARTCHAR uni20DB
ENCODING 8411
SWIDTH 0 0
DWIDTH 0 0
BBX 1 1 0 0
BITMAP
00
ENDCHAR
STARTCHAR uni20DC
ENCODING 8412
SWIDTH 0 0
DWIDTH 0 0
BBX 1 1 0 0
BITMAP
00
ENDCHAR
STARTCHAR uni20E1
ENCODING 8417
SWIDTH 0 0
DWIDTH 0 0
BBX 1 1 0 0
BITMAP
00
ENDCHAR
STARTCHAR uni20E5
ENCODING 8421
SWIDTH 0 0
DWIDTH 0 0
BBX 1 1 0 0
BITMAP
00
ENDCHAR
STARTCHAR uni20E6
ENCODING 8422
SWIDTH 0 0
DWIDTH 0 0
BBX 1 1 0 0
BITMAP
00
ENDCHAR
STARTCHAR uni20EB
ENCODING 8427
SWIDTH 0 0
DWIDTH 0 0
BBX 1 1 0 0
BITMAP
00
ENDCHAR
STARTCHAR uni20EC
ENCODING 8428
SWIDTH 0 0
DWIDTH 0 0
BBX 1 1 0 0
BITMAP
00
ENDCHAR
STARTCHAR uni20ED
ENCODING 8429
SWIDTH 0 0
DWIDTH 0 0
BBX 1 1 0 0
BITMAP
00
ENDCHAR
STARTCHAR uni20EE
ENCODING 8430
SWIDTH 0 0
DWIDTH 0 0
BBX 1 1 0 0
BITMAP
00
ENDCHAR
STARTCHAR uni20EF
ENCODING 8431
SWIDTH 0 0
DWIDTH 0 0
BBX 1 1 0 0
BITMAP
00
ENDCHAR
STARTCHAR uni2102
ENCODING 8450
SWIDTH 500 0
DWIDTH 7 0
BBX 6 9 0 0
BITMAP
3C
70
D0
D0
D0
D0
D0
70
3C
ENDCHAR
STARTCHAR uni2103
ENCODING 8451
SWIDTH 500 0
DWIDTH 7 0
BBX 6 11 0 0
BITMAP
40
A0
40
3C
60
60
60
60
60
60
3C
ENDCHAR
STARTCHAR afii61248
ENCODING 8453
SWIDTH 538 0
DWIDTH 7 0
BBX 7 10 0 0
BITMAP
70
C0
C6
7C
18
30
6C
DA
1A
0C
ENDCHAR
STARTCHAR uni2106
ENCODING 8454
SWIDTH 538 0
DWIDTH 7 0
BBX 7 10 0 0
BITMAP
70
C0
C6
7C
18
30
7A
DA
1A
0C
ENDCHAR
STARTCHAR uni2107
ENCODING 8455
SWIDTH 538 0
DWIDTH 7 0
BBX 6 9 0 0
BITMAP
78
CC
C0
C0
78
C0
C0
CC
78
ENDCHAR
STARTCHAR uni2109
ENCODING 8457
SWIDTH 500 0
DWIDTH 7 0
BBX 6 11 0 0
BITMAP
40
A0
40
7C
60
60
78
60
60
60
60
ENDCHAR
STARTCHAR uni210D
ENCODING 8461
SWIDTH 500 0
DWIDTH 7 0
BBX 6 9 0 0
BITMAP
F4
D4
D4
D4
DC
D4
D4
D4
F4
ENDCHAR
STARTCHAR uni210E
ENCODING 8462
SWIDTH 500 0
DWIDTH 7 0
BBX 5 9 1 0
BITMAP
C0
C0
F0
D8
D8
D8
D8
D8
D8
ENDCHAR
STARTCHAR uni210F
ENCODING 8463
SWIDTH 500 0
DWIDTH 7 0
BBX 6 9 0 0
BITMAP
60
F0
60
78
6C
6C
6C
6C
6C
ENDCHAR
STARTCHAR uni2115
ENCODING 8469
SWIDTH 500 0
DWIDTH 7 0
BBX 6 9 0 0
BITMAP
CC
CC
EC
DC
EC
DC
CC
CC
CC
ENDCHAR
STARTCHAR afii61352
ENCODING 8470
SWIDTH 500 0
DWIDTH 7 0
BBX 7 9 0 0
BITMAP
9A
DA
F8
FA
F8
F8
F8
D8
C8
ENDCHAR
STARTCHAR uni2117
ENCODING 8471
SWIDTH 538 0
DWIDTH 7 0
BBX 7 9 0 0
BITMAP
38
44
B2
AA
B2
A2
A2
44
38
ENDCHAR
STARTCHAR uni2119
ENCODING 8473
SWIDTH 500 0
DWIDTH 7 0
BBX 6 9 0 0
BITMAP
F8
D4
D4
D4
D8
D0
D0
D0
F0
ENDCHAR
STARTCHAR uni211A
ENCODING 8474
SWIDTH 500 0
DWIDTH 7 0
BBX 6 9 0 0
BITMAP
78
D4
D4
D4
D4
D4
D4
D8
7C
ENDCHAR
STARTCHAR uni211D
ENCODING 8477
SWIDTH 500 0
DWIDTH 7 0
BBX 6 9 0 0
BITMAP
F8
D4
D4
D4
D8
D4
D4
D4
F4
ENDCHAR
STARTCHAR uni2120
ENCODING 8480
SWIDTH 538 0
DWIDTH 7 0
BBX 6 5 0 6
BITMAP
74
9C
54
34
D4
ENDCHAR
STARTCHAR trademark
ENCODING 8482
SWIDTH 500 0
DWIDTH 7 0
BBX 6 5 0 6
BITMAP
F4
5C
54
54
54
ENDCHAR
STARTCHAR uni2124
ENCODING 8484
SWIDTH 500 0
DWIDTH 7 0
BBX 6 9 0 0
BITMAP
FC
2C
2C
58
58
58
B0
B0
FC
ENDCHAR
STARTCHAR uni2126
ENCODING 8486
SWIDTH 500 0
DWIDTH 7 0
BBX 6 9 0 0
BITMAP
78
CC
CC
CC
CC
CC
CC
48
CC
ENDCHAR
STARTCHAR uni2127
ENCODING 8487
SWIDTH 500 0
DWIDTH 7 0
BBX 6 9 0 0
BITMAP
CC
48
CC
CC
CC
CC
CC
CC
78
ENDCHAR
STARTCHAR uni212A
ENCODING 8490
SWIDTH 538 0
DWIDTH 7 0
BBX 6 9 0 0
BITMAP
CC
D8
F0
E0
C0
E0
F0
D8
CC
ENDCHAR
STARTCHAR uni212B
ENCODING 8491
SWIDTH 538 0
DWIDTH 7 0
BBX 6 11 0 0
BITMAP
30
48
30
78
CC
CC
FC
CC
CC
CC
CC
ENDCHAR
STARTCHAR uni213E
ENCODING 8510
SWIDTH 500 0
DWIDTH 7 0
BBX 6 9 0 0
BITMAP
FC
D0
D0
D0
D0
D0
D0
D0
F0
ENDCHAR
STARTCHAR uni213F
ENCODING 8511
SWIDTH 500 0
DWIDTH 7 0
BBX 6 9 0 0
BITMAP
FC
D4
D4
D4
D4
D4
D4
D4
F4
ENDCHAR
STARTCHAR uni2140
ENCODING 8512
SWIDTH 538 0
DWIDTH 7 0
BBX 6 9 0 0
BITMAP
FC
D0
68
68
34
68
68
D0
FC
ENDCHAR
STARTCHAR uni2145
ENCODING 8517
SWIDTH 538 0
DWIDTH 7 0
BBX 6 9 0 0
BITMAP
F0
D8
D4
D4
D4
D4
D4
D8
F0
ENDCHAR
STARTCHAR uni2146
ENCODING 8518
SWIDTH 538 0
DWIDTH 7 0
BBX 6 9 0 0
BITMAP
1C
14
74
D4
D4
D4
D4
D4
7C
ENDCHAR
STARTCHAR uni2147
ENCODING 8519
SWIDTH 538 0
DWIDTH 7 0
BBX 6 7 0 0
BITMAP
78
D4
D4
DC
D0
D0
7C
ENDCHAR
STARTCHAR uni2148
ENCODING 8520
SWIDTH 538 0
DWIDTH 7 0
BBX 4 10 1 0
BITMAP
60
60
00
F0
D0
D0
D0
D0
D0
F0
ENDCHAR
STARTCHAR uni2149
ENCODING 8521
SWIDTH 538 0
DWIDTH 7 0
BBX 6 12 0 -2
BITMAP
18
18
00
3C
34
34
34
34
34
34
34
F8
ENDCHAR
STARTCHAR uni2150
ENCODING 8528
SWIDTH 500 0
DWIDTH 7 0
BBX 6 13 0 -2
BITMAP
30
70
30
30
30
00
FC
00
78
18
30
60
60
ENDCHAR
STARTCHAR uni2151
ENCODING 8529
SWIDTH 500 0
DWIDTH 7 0
BBX 6 13 0 -2
BITMAP
30
70
30
30
30
00
FC
00
30
58
38
18
70
ENDCHAR
STARTCHAR uni2152
ENCODING 8530
SWIDTH 538 0
DWIDTH 7 0
BBX 6 13 0 -2
BITMAP
30
70
30
30
30
00
FC
00
D8
EC
EC
EC
D8
ENDCHAR
STARTCHAR onethird
ENCODING 8531
SWIDTH 500 0
DWIDTH 7 0
BBX 6 13 0 -2
BITMAP
30
70
30
30
30
00
FC
00
70
18
30
18
70
ENDCHAR
STARTCHAR twothirds
ENCODING 8532
SWIDTH 500 0
DWIDTH 7 0
BBX 6 13 0 -2
BITMAP
70
18
30
60
78
00
FC
00
70
18
30
18
70
ENDCHAR
STARTCHAR uni2155
ENCODING 8533
SWIDTH 500 0
DWIDTH 7 0
BBX 6 13 0 -2
BITMAP
30
70
30
30
30
00
FC
00
78
60
70
18
70
ENDCHAR
STARTCHAR uni2156
ENCODING 8534
SWIDTH 500 0
DWIDTH 7 0
BBX 6 13 0 -2
BITMAP
70
18
30
60
78
00
FC
00
78
60
70
18
70
ENDCHAR
ENDFONT
